G04 EAGLE Gerber RS-274X export*
G75*
%MOMM*%
%FSLAX34Y34*%
%LPD*%
%INSilkscreen Bottom*%
%IPPOS*%
%AMOC8*
5,1,8,0,0,1.08239X$1,22.5*%
G01*
%ADD10C,0.101600*%
%ADD11C,0.152400*%
%ADD12C,0.254000*%
%ADD13C,0.203200*%


D10*
X357094Y466149D02*
X355146Y466149D01*
X355146Y459658D01*
X359041Y459658D01*
X359140Y459660D01*
X359240Y459666D01*
X359339Y459675D01*
X359437Y459688D01*
X359535Y459705D01*
X359633Y459726D01*
X359729Y459751D01*
X359824Y459779D01*
X359918Y459811D01*
X360011Y459846D01*
X360103Y459885D01*
X360193Y459928D01*
X360281Y459973D01*
X360368Y460023D01*
X360452Y460075D01*
X360535Y460131D01*
X360615Y460189D01*
X360693Y460251D01*
X360768Y460316D01*
X360841Y460384D01*
X360911Y460454D01*
X360979Y460527D01*
X361044Y460602D01*
X361106Y460680D01*
X361164Y460760D01*
X361220Y460843D01*
X361272Y460927D01*
X361322Y461014D01*
X361367Y461102D01*
X361410Y461192D01*
X361449Y461284D01*
X361484Y461377D01*
X361516Y461471D01*
X361544Y461566D01*
X361569Y461662D01*
X361590Y461760D01*
X361607Y461858D01*
X361620Y461956D01*
X361629Y462055D01*
X361635Y462155D01*
X361637Y462254D01*
X361638Y462254D02*
X361638Y468746D01*
X361637Y468746D02*
X361635Y468845D01*
X361629Y468945D01*
X361620Y469044D01*
X361607Y469142D01*
X361590Y469240D01*
X361569Y469338D01*
X361544Y469434D01*
X361516Y469529D01*
X361484Y469623D01*
X361449Y469716D01*
X361410Y469808D01*
X361367Y469898D01*
X361322Y469986D01*
X361272Y470073D01*
X361220Y470157D01*
X361164Y470240D01*
X361106Y470320D01*
X361044Y470398D01*
X360979Y470473D01*
X360911Y470546D01*
X360841Y470616D01*
X360768Y470684D01*
X360693Y470749D01*
X360615Y470811D01*
X360535Y470869D01*
X360452Y470925D01*
X360368Y470977D01*
X360281Y471027D01*
X360193Y471072D01*
X360103Y471115D01*
X360011Y471154D01*
X359918Y471189D01*
X359824Y471221D01*
X359729Y471249D01*
X359633Y471274D01*
X359535Y471295D01*
X359437Y471312D01*
X359339Y471325D01*
X359240Y471334D01*
X359140Y471340D01*
X359041Y471342D01*
X355146Y471342D01*
X349446Y471342D02*
X349446Y459658D01*
X342954Y459658D02*
X349446Y471342D01*
X342954Y471342D02*
X342954Y459658D01*
X337254Y459658D02*
X337254Y471342D01*
X334008Y471342D01*
X333895Y471340D01*
X333782Y471334D01*
X333669Y471324D01*
X333556Y471310D01*
X333444Y471293D01*
X333333Y471271D01*
X333223Y471246D01*
X333113Y471216D01*
X333005Y471183D01*
X332898Y471146D01*
X332792Y471106D01*
X332688Y471061D01*
X332585Y471013D01*
X332484Y470962D01*
X332385Y470907D01*
X332288Y470849D01*
X332193Y470787D01*
X332100Y470722D01*
X332010Y470654D01*
X331922Y470583D01*
X331836Y470508D01*
X331753Y470431D01*
X331673Y470351D01*
X331596Y470268D01*
X331521Y470182D01*
X331450Y470094D01*
X331382Y470004D01*
X331317Y469911D01*
X331255Y469816D01*
X331197Y469719D01*
X331142Y469620D01*
X331091Y469519D01*
X331043Y469416D01*
X330998Y469312D01*
X330958Y469206D01*
X330921Y469099D01*
X330888Y468991D01*
X330858Y468881D01*
X330833Y468771D01*
X330811Y468660D01*
X330794Y468548D01*
X330780Y468435D01*
X330770Y468322D01*
X330764Y468209D01*
X330762Y468096D01*
X330762Y462904D01*
X330764Y462791D01*
X330770Y462678D01*
X330780Y462565D01*
X330794Y462452D01*
X330811Y462340D01*
X330833Y462229D01*
X330858Y462119D01*
X330888Y462009D01*
X330921Y461901D01*
X330958Y461794D01*
X330998Y461688D01*
X331043Y461584D01*
X331091Y461481D01*
X331142Y461380D01*
X331197Y461281D01*
X331255Y461184D01*
X331317Y461089D01*
X331382Y460996D01*
X331450Y460906D01*
X331521Y460818D01*
X331596Y460732D01*
X331673Y460649D01*
X331753Y460569D01*
X331836Y460492D01*
X331922Y460417D01*
X332010Y460346D01*
X332100Y460278D01*
X332193Y460213D01*
X332288Y460151D01*
X332385Y460093D01*
X332484Y460038D01*
X332585Y459987D01*
X332688Y459939D01*
X332792Y459894D01*
X332898Y459854D01*
X333005Y459817D01*
X333113Y459784D01*
X333223Y459754D01*
X333333Y459729D01*
X333444Y459707D01*
X333556Y459690D01*
X333669Y459676D01*
X333782Y459666D01*
X333895Y459660D01*
X334008Y459658D01*
X337254Y459658D01*
X463370Y374915D02*
X464036Y373085D01*
X463370Y374915D02*
X457270Y372695D01*
X458602Y369035D01*
X458603Y369035D02*
X458638Y368942D01*
X458678Y368851D01*
X458720Y368761D01*
X458767Y368673D01*
X458816Y368587D01*
X458869Y368503D01*
X458925Y368420D01*
X458984Y368340D01*
X459046Y368263D01*
X459111Y368188D01*
X459179Y368115D01*
X459250Y368045D01*
X459323Y367978D01*
X459399Y367913D01*
X459477Y367852D01*
X459558Y367793D01*
X459640Y367738D01*
X459725Y367686D01*
X459812Y367637D01*
X459900Y367592D01*
X459990Y367550D01*
X460082Y367511D01*
X460175Y367476D01*
X460269Y367445D01*
X460365Y367417D01*
X460461Y367393D01*
X460559Y367372D01*
X460657Y367356D01*
X460755Y367343D01*
X460854Y367334D01*
X460954Y367329D01*
X461053Y367327D01*
X461153Y367329D01*
X461252Y367335D01*
X461351Y367345D01*
X461449Y367359D01*
X461547Y367377D01*
X461644Y367398D01*
X461741Y367423D01*
X461836Y367451D01*
X461930Y367484D01*
X461930Y367483D02*
X468030Y369703D01*
X468030Y369704D02*
X468123Y369739D01*
X468214Y369779D01*
X468304Y369821D01*
X468392Y369868D01*
X468478Y369917D01*
X468562Y369970D01*
X468645Y370026D01*
X468725Y370085D01*
X468802Y370147D01*
X468877Y370212D01*
X468950Y370280D01*
X469020Y370351D01*
X469087Y370424D01*
X469152Y370500D01*
X469213Y370578D01*
X469272Y370659D01*
X469327Y370741D01*
X469379Y370826D01*
X469428Y370913D01*
X469473Y371001D01*
X469515Y371091D01*
X469554Y371183D01*
X469589Y371276D01*
X469620Y371370D01*
X469648Y371466D01*
X469672Y371562D01*
X469693Y371660D01*
X469709Y371758D01*
X469722Y371856D01*
X469731Y371955D01*
X469736Y372055D01*
X469738Y372154D01*
X469736Y372253D01*
X469730Y372353D01*
X469720Y372452D01*
X469706Y372550D01*
X469688Y372648D01*
X469667Y372745D01*
X469642Y372842D01*
X469614Y372937D01*
X469581Y373031D01*
X469582Y373031D02*
X468250Y376691D01*
X466300Y382048D02*
X455320Y378052D01*
X453100Y384152D02*
X466300Y382048D01*
X464080Y388148D02*
X453100Y384152D01*
X451151Y389509D02*
X462130Y393505D01*
X461020Y396555D01*
X460980Y396661D01*
X460935Y396765D01*
X460887Y396868D01*
X460836Y396969D01*
X460781Y397068D01*
X460723Y397165D01*
X460661Y397260D01*
X460596Y397353D01*
X460528Y397443D01*
X460457Y397531D01*
X460382Y397617D01*
X460305Y397700D01*
X460225Y397780D01*
X460142Y397857D01*
X460056Y397932D01*
X459968Y398003D01*
X459878Y398071D01*
X459785Y398136D01*
X459690Y398198D01*
X459593Y398256D01*
X459494Y398311D01*
X459393Y398362D01*
X459290Y398410D01*
X459186Y398455D01*
X459080Y398495D01*
X458973Y398532D01*
X458865Y398565D01*
X458755Y398595D01*
X458645Y398620D01*
X458534Y398642D01*
X458422Y398659D01*
X458309Y398673D01*
X458196Y398683D01*
X458083Y398689D01*
X457970Y398691D01*
X457857Y398689D01*
X457744Y398683D01*
X457631Y398673D01*
X457518Y398659D01*
X457406Y398642D01*
X457295Y398620D01*
X457185Y398595D01*
X457075Y398565D01*
X456967Y398532D01*
X456860Y398495D01*
X456860Y398494D02*
X451980Y396718D01*
X451980Y396719D02*
X451874Y396679D01*
X451770Y396634D01*
X451667Y396586D01*
X451566Y396535D01*
X451467Y396480D01*
X451370Y396422D01*
X451275Y396360D01*
X451182Y396295D01*
X451092Y396227D01*
X451004Y396156D01*
X450918Y396081D01*
X450835Y396004D01*
X450755Y395924D01*
X450678Y395841D01*
X450603Y395755D01*
X450532Y395667D01*
X450464Y395577D01*
X450399Y395484D01*
X450337Y395389D01*
X450279Y395292D01*
X450224Y395193D01*
X450173Y395092D01*
X450125Y394989D01*
X450080Y394885D01*
X450040Y394779D01*
X450003Y394672D01*
X449970Y394564D01*
X449940Y394454D01*
X449915Y394344D01*
X449893Y394233D01*
X449876Y394121D01*
X449862Y394008D01*
X449852Y393895D01*
X449846Y393782D01*
X449844Y393669D01*
X449846Y393556D01*
X449852Y393443D01*
X449862Y393330D01*
X449876Y393217D01*
X449893Y393105D01*
X449915Y392994D01*
X449940Y392884D01*
X449970Y392774D01*
X450003Y392666D01*
X450040Y392559D01*
X450041Y392559D02*
X451151Y389509D01*
X424851Y256480D02*
X423256Y255363D01*
X426979Y250046D01*
X430170Y252280D01*
X430169Y252280D02*
X430249Y252339D01*
X430327Y252401D01*
X430403Y252465D01*
X430476Y252533D01*
X430547Y252603D01*
X430614Y252676D01*
X430679Y252751D01*
X430741Y252829D01*
X430800Y252909D01*
X430856Y252991D01*
X430909Y253076D01*
X430958Y253162D01*
X431004Y253250D01*
X431047Y253340D01*
X431086Y253431D01*
X431121Y253524D01*
X431153Y253618D01*
X431182Y253714D01*
X431206Y253810D01*
X431227Y253907D01*
X431245Y254005D01*
X431258Y254104D01*
X431268Y254203D01*
X431274Y254302D01*
X431276Y254401D01*
X431274Y254501D01*
X431269Y254600D01*
X431259Y254699D01*
X431246Y254798D01*
X431230Y254896D01*
X431209Y254993D01*
X431185Y255090D01*
X431157Y255185D01*
X431125Y255279D01*
X431090Y255372D01*
X431051Y255464D01*
X431009Y255554D01*
X430963Y255642D01*
X430914Y255729D01*
X430862Y255813D01*
X430807Y255896D01*
X427084Y261213D01*
X427025Y261293D01*
X426963Y261371D01*
X426899Y261447D01*
X426831Y261520D01*
X426761Y261591D01*
X426688Y261658D01*
X426613Y261723D01*
X426535Y261785D01*
X426455Y261844D01*
X426373Y261900D01*
X426288Y261953D01*
X426202Y262002D01*
X426114Y262048D01*
X426024Y262091D01*
X425933Y262130D01*
X425840Y262165D01*
X425746Y262197D01*
X425650Y262226D01*
X425554Y262250D01*
X425457Y262271D01*
X425359Y262289D01*
X425260Y262302D01*
X425161Y262312D01*
X425062Y262318D01*
X424963Y262320D01*
X424863Y262318D01*
X424764Y262313D01*
X424665Y262304D01*
X424566Y262290D01*
X424468Y262274D01*
X424371Y262253D01*
X424274Y262229D01*
X424179Y262201D01*
X424085Y262169D01*
X423992Y262134D01*
X423900Y262095D01*
X423810Y262053D01*
X423722Y262007D01*
X423635Y261958D01*
X423551Y261906D01*
X423468Y261851D01*
X420278Y259617D01*
X415608Y256347D02*
X422309Y246776D01*
X416992Y243053D02*
X415608Y256347D01*
X410291Y252624D02*
X416992Y243053D01*
X412322Y239783D02*
X405621Y249354D01*
X402962Y247492D01*
X402962Y247493D02*
X402871Y247426D01*
X402781Y247357D01*
X402694Y247284D01*
X402610Y247208D01*
X402529Y247129D01*
X402450Y247048D01*
X402374Y246964D01*
X402301Y246877D01*
X402232Y246788D01*
X402165Y246696D01*
X402102Y246602D01*
X402042Y246506D01*
X401985Y246408D01*
X401932Y246308D01*
X401882Y246206D01*
X401836Y246102D01*
X401794Y245997D01*
X401755Y245891D01*
X401720Y245783D01*
X401689Y245674D01*
X401661Y245564D01*
X401638Y245453D01*
X401618Y245342D01*
X401602Y245230D01*
X401590Y245117D01*
X401582Y245004D01*
X401578Y244891D01*
X401578Y244777D01*
X401582Y244664D01*
X401590Y244551D01*
X401602Y244438D01*
X401618Y244326D01*
X401638Y244215D01*
X401661Y244104D01*
X401689Y243994D01*
X401720Y243885D01*
X401755Y243777D01*
X401794Y243671D01*
X401836Y243566D01*
X401882Y243462D01*
X401932Y243360D01*
X401985Y243260D01*
X402042Y243162D01*
X402102Y243066D01*
X402165Y242972D01*
X405144Y238718D01*
X405143Y238718D02*
X405210Y238627D01*
X405279Y238537D01*
X405352Y238450D01*
X405428Y238366D01*
X405507Y238285D01*
X405588Y238206D01*
X405672Y238130D01*
X405759Y238057D01*
X405849Y237988D01*
X405940Y237921D01*
X406034Y237858D01*
X406130Y237798D01*
X406228Y237741D01*
X406328Y237688D01*
X406430Y237638D01*
X406534Y237592D01*
X406639Y237550D01*
X406745Y237511D01*
X406853Y237476D01*
X406962Y237445D01*
X407072Y237417D01*
X407183Y237394D01*
X407294Y237374D01*
X407406Y237358D01*
X407519Y237346D01*
X407632Y237338D01*
X407745Y237334D01*
X407859Y237334D01*
X407972Y237338D01*
X408085Y237346D01*
X408198Y237358D01*
X408310Y237374D01*
X408421Y237394D01*
X408532Y237417D01*
X408642Y237445D01*
X408751Y237476D01*
X408859Y237511D01*
X408965Y237550D01*
X409070Y237592D01*
X409174Y237638D01*
X409276Y237688D01*
X409376Y237741D01*
X409474Y237798D01*
X409570Y237858D01*
X409664Y237921D01*
X412322Y239783D01*
X285396Y243983D02*
X283801Y245100D01*
X280078Y239783D01*
X283268Y237549D01*
X283351Y237494D01*
X283435Y237442D01*
X283522Y237393D01*
X283610Y237347D01*
X283700Y237305D01*
X283792Y237266D01*
X283885Y237231D01*
X283979Y237199D01*
X284074Y237171D01*
X284171Y237147D01*
X284268Y237126D01*
X284366Y237110D01*
X284465Y237096D01*
X284564Y237087D01*
X284663Y237082D01*
X284763Y237080D01*
X284862Y237082D01*
X284961Y237088D01*
X285060Y237098D01*
X285159Y237111D01*
X285257Y237129D01*
X285354Y237150D01*
X285450Y237174D01*
X285546Y237203D01*
X285640Y237235D01*
X285733Y237270D01*
X285824Y237309D01*
X285914Y237352D01*
X286002Y237398D01*
X286088Y237447D01*
X286173Y237500D01*
X286255Y237556D01*
X286335Y237615D01*
X286413Y237677D01*
X286488Y237742D01*
X286561Y237809D01*
X286631Y237880D01*
X286699Y237953D01*
X286763Y238029D01*
X286825Y238107D01*
X286884Y238187D01*
X290607Y243504D01*
X290662Y243587D01*
X290714Y243671D01*
X290763Y243758D01*
X290809Y243846D01*
X290851Y243936D01*
X290890Y244028D01*
X290925Y244121D01*
X290957Y244215D01*
X290985Y244310D01*
X291009Y244407D01*
X291030Y244504D01*
X291046Y244602D01*
X291060Y244701D01*
X291069Y244800D01*
X291074Y244899D01*
X291076Y244999D01*
X291074Y245098D01*
X291068Y245197D01*
X291058Y245296D01*
X291045Y245395D01*
X291027Y245493D01*
X291006Y245590D01*
X290982Y245686D01*
X290953Y245782D01*
X290921Y245876D01*
X290886Y245969D01*
X290847Y246060D01*
X290804Y246150D01*
X290758Y246238D01*
X290709Y246324D01*
X290656Y246409D01*
X290600Y246491D01*
X290541Y246571D01*
X290479Y246649D01*
X290414Y246724D01*
X290347Y246797D01*
X290276Y246867D01*
X290203Y246935D01*
X290127Y246999D01*
X290049Y247061D01*
X289969Y247120D01*
X289970Y247120D02*
X286779Y249354D01*
X282110Y252624D02*
X275408Y243053D01*
X270091Y246776D02*
X282110Y252624D01*
X276792Y256347D02*
X270091Y246776D01*
X265421Y250046D02*
X272122Y259617D01*
X269464Y261478D01*
X269464Y261479D02*
X269370Y261542D01*
X269274Y261602D01*
X269176Y261659D01*
X269076Y261712D01*
X268974Y261762D01*
X268870Y261808D01*
X268765Y261850D01*
X268659Y261889D01*
X268551Y261924D01*
X268442Y261955D01*
X268332Y261983D01*
X268221Y262006D01*
X268110Y262026D01*
X267998Y262042D01*
X267885Y262054D01*
X267772Y262062D01*
X267659Y262066D01*
X267545Y262066D01*
X267432Y262062D01*
X267319Y262054D01*
X267206Y262042D01*
X267094Y262026D01*
X266983Y262006D01*
X266872Y261983D01*
X266762Y261955D01*
X266653Y261924D01*
X266545Y261889D01*
X266439Y261850D01*
X266334Y261808D01*
X266230Y261762D01*
X266128Y261712D01*
X266028Y261659D01*
X265930Y261602D01*
X265834Y261542D01*
X265740Y261479D01*
X265649Y261412D01*
X265559Y261343D01*
X265472Y261270D01*
X265388Y261194D01*
X265307Y261115D01*
X265228Y261034D01*
X265152Y260950D01*
X265079Y260863D01*
X265010Y260774D01*
X264943Y260682D01*
X264944Y260681D02*
X261965Y256428D01*
X261902Y256334D01*
X261842Y256238D01*
X261785Y256140D01*
X261732Y256040D01*
X261682Y255938D01*
X261636Y255834D01*
X261594Y255729D01*
X261555Y255623D01*
X261520Y255515D01*
X261489Y255406D01*
X261461Y255296D01*
X261438Y255185D01*
X261418Y255074D01*
X261402Y254962D01*
X261390Y254849D01*
X261382Y254736D01*
X261378Y254623D01*
X261378Y254509D01*
X261382Y254396D01*
X261390Y254283D01*
X261402Y254170D01*
X261418Y254058D01*
X261438Y253947D01*
X261461Y253836D01*
X261489Y253726D01*
X261520Y253617D01*
X261555Y253509D01*
X261594Y253403D01*
X261636Y253298D01*
X261682Y253194D01*
X261732Y253092D01*
X261785Y252992D01*
X261842Y252894D01*
X261902Y252798D01*
X261965Y252704D01*
X262032Y252612D01*
X262101Y252523D01*
X262174Y252436D01*
X262250Y252352D01*
X262329Y252271D01*
X262410Y252192D01*
X262494Y252116D01*
X262581Y252043D01*
X262671Y251974D01*
X262762Y251907D01*
X265421Y250046D01*
X235150Y391729D02*
X235816Y393559D01*
X235150Y391729D02*
X241250Y389509D01*
X242582Y393169D01*
X242581Y393169D02*
X242614Y393263D01*
X242642Y393358D01*
X242667Y393455D01*
X242688Y393552D01*
X242706Y393650D01*
X242720Y393748D01*
X242730Y393847D01*
X242736Y393947D01*
X242738Y394046D01*
X242736Y394145D01*
X242731Y394245D01*
X242722Y394344D01*
X242709Y394442D01*
X242693Y394540D01*
X242672Y394638D01*
X242648Y394734D01*
X242620Y394830D01*
X242589Y394924D01*
X242554Y395017D01*
X242515Y395109D01*
X242473Y395199D01*
X242428Y395287D01*
X242379Y395374D01*
X242327Y395459D01*
X242272Y395541D01*
X242213Y395622D01*
X242152Y395700D01*
X242087Y395776D01*
X242020Y395849D01*
X241950Y395920D01*
X241877Y395988D01*
X241802Y396053D01*
X241725Y396115D01*
X241645Y396174D01*
X241562Y396230D01*
X241478Y396283D01*
X241392Y396332D01*
X241304Y396379D01*
X241214Y396421D01*
X241123Y396461D01*
X241030Y396496D01*
X234930Y398716D01*
X234930Y398717D02*
X234836Y398750D01*
X234741Y398778D01*
X234644Y398803D01*
X234547Y398824D01*
X234449Y398842D01*
X234351Y398856D01*
X234252Y398866D01*
X234153Y398872D01*
X234053Y398874D01*
X233954Y398872D01*
X233854Y398867D01*
X233755Y398858D01*
X233657Y398845D01*
X233558Y398829D01*
X233461Y398808D01*
X233365Y398784D01*
X233269Y398756D01*
X233175Y398725D01*
X233081Y398690D01*
X232990Y398651D01*
X232900Y398609D01*
X232811Y398564D01*
X232724Y398515D01*
X232640Y398463D01*
X232557Y398408D01*
X232476Y398349D01*
X232398Y398288D01*
X232322Y398223D01*
X232249Y398156D01*
X232179Y398086D01*
X232111Y398013D01*
X232046Y397938D01*
X231983Y397860D01*
X231924Y397780D01*
X231868Y397698D01*
X231815Y397614D01*
X231766Y397527D01*
X231720Y397439D01*
X231677Y397349D01*
X231637Y397258D01*
X231602Y397165D01*
X230270Y393505D01*
X228320Y388148D02*
X239300Y384152D01*
X237080Y378052D02*
X228320Y388148D01*
X226100Y382048D02*
X237080Y378052D01*
X235130Y372695D02*
X224151Y376691D01*
X223041Y373641D01*
X223040Y373641D02*
X223003Y373534D01*
X222970Y373426D01*
X222940Y373316D01*
X222915Y373206D01*
X222893Y373095D01*
X222876Y372983D01*
X222862Y372870D01*
X222852Y372757D01*
X222846Y372644D01*
X222844Y372531D01*
X222846Y372418D01*
X222852Y372305D01*
X222862Y372192D01*
X222876Y372079D01*
X222893Y371967D01*
X222915Y371856D01*
X222940Y371746D01*
X222970Y371636D01*
X223003Y371528D01*
X223040Y371421D01*
X223080Y371315D01*
X223125Y371211D01*
X223173Y371108D01*
X223224Y371007D01*
X223279Y370908D01*
X223337Y370811D01*
X223399Y370716D01*
X223464Y370623D01*
X223532Y370533D01*
X223603Y370445D01*
X223678Y370359D01*
X223755Y370276D01*
X223835Y370196D01*
X223918Y370119D01*
X224004Y370044D01*
X224092Y369973D01*
X224182Y369905D01*
X224275Y369840D01*
X224370Y369778D01*
X224467Y369720D01*
X224566Y369665D01*
X224667Y369614D01*
X224770Y369566D01*
X224874Y369521D01*
X224980Y369481D01*
X229860Y367705D01*
X229860Y367706D02*
X229967Y367669D01*
X230076Y367636D01*
X230185Y367606D01*
X230295Y367581D01*
X230407Y367559D01*
X230518Y367542D01*
X230631Y367528D01*
X230744Y367518D01*
X230857Y367512D01*
X230970Y367510D01*
X231083Y367512D01*
X231196Y367518D01*
X231309Y367528D01*
X231422Y367542D01*
X231534Y367559D01*
X231645Y367581D01*
X231755Y367606D01*
X231864Y367636D01*
X231973Y367669D01*
X232080Y367706D01*
X232186Y367746D01*
X232290Y367791D01*
X232393Y367838D01*
X232493Y367890D01*
X232593Y367945D01*
X232690Y368003D01*
X232785Y368065D01*
X232877Y368130D01*
X232968Y368198D01*
X233056Y368269D01*
X233141Y368344D01*
X233224Y368421D01*
X233304Y368501D01*
X233382Y368584D01*
X233456Y368669D01*
X233527Y368757D01*
X233595Y368848D01*
X233660Y368940D01*
X233722Y369035D01*
X233780Y369133D01*
X233835Y369232D01*
X233887Y369333D01*
X233934Y369435D01*
X233979Y369539D01*
X234019Y369645D01*
X234020Y369645D02*
X235130Y372695D01*
D11*
X392918Y283853D02*
X392918Y266073D01*
X392918Y283853D02*
X387980Y283853D01*
X387840Y283851D01*
X387701Y283845D01*
X387561Y283835D01*
X387422Y283821D01*
X387283Y283804D01*
X387145Y283782D01*
X387008Y283756D01*
X386871Y283727D01*
X386735Y283694D01*
X386601Y283657D01*
X386467Y283616D01*
X386335Y283571D01*
X386203Y283522D01*
X386074Y283470D01*
X385946Y283415D01*
X385819Y283355D01*
X385694Y283292D01*
X385571Y283226D01*
X385450Y283156D01*
X385331Y283083D01*
X385214Y283006D01*
X385100Y282926D01*
X384987Y282843D01*
X384877Y282757D01*
X384770Y282667D01*
X384665Y282575D01*
X384563Y282480D01*
X384463Y282382D01*
X384366Y282281D01*
X384272Y282177D01*
X384182Y282071D01*
X384094Y281962D01*
X384009Y281851D01*
X383928Y281737D01*
X383849Y281622D01*
X383774Y281504D01*
X383703Y281384D01*
X383635Y281261D01*
X383570Y281138D01*
X383509Y281012D01*
X383451Y280884D01*
X383397Y280756D01*
X383347Y280625D01*
X383300Y280493D01*
X383257Y280360D01*
X383218Y280226D01*
X383183Y280091D01*
X383152Y279955D01*
X383124Y279817D01*
X383101Y279680D01*
X383081Y279541D01*
X383065Y279402D01*
X383053Y279263D01*
X383045Y279124D01*
X383041Y278984D01*
X383041Y278844D01*
X383045Y278704D01*
X383053Y278565D01*
X383065Y278426D01*
X383081Y278287D01*
X383101Y278148D01*
X383124Y278011D01*
X383152Y277873D01*
X383183Y277737D01*
X383218Y277602D01*
X383257Y277468D01*
X383300Y277335D01*
X383347Y277203D01*
X383397Y277072D01*
X383451Y276944D01*
X383509Y276816D01*
X383570Y276690D01*
X383635Y276567D01*
X383703Y276445D01*
X383774Y276324D01*
X383849Y276206D01*
X383928Y276091D01*
X384009Y275977D01*
X384094Y275866D01*
X384182Y275757D01*
X384272Y275651D01*
X384366Y275547D01*
X384463Y275446D01*
X384563Y275348D01*
X384665Y275253D01*
X384770Y275161D01*
X384877Y275071D01*
X384987Y274985D01*
X385100Y274902D01*
X385214Y274822D01*
X385331Y274745D01*
X385450Y274672D01*
X385571Y274602D01*
X385694Y274536D01*
X385819Y274473D01*
X385946Y274413D01*
X386074Y274358D01*
X386203Y274306D01*
X386335Y274257D01*
X386467Y274212D01*
X386601Y274171D01*
X386735Y274134D01*
X386871Y274101D01*
X387008Y274072D01*
X387145Y274046D01*
X387283Y274024D01*
X387422Y274007D01*
X387561Y273993D01*
X387701Y273983D01*
X387840Y273977D01*
X387980Y273975D01*
X392918Y273975D01*
X376923Y274963D02*
X376919Y275313D01*
X376906Y275662D01*
X376885Y276011D01*
X376856Y276360D01*
X376819Y276708D01*
X376773Y277055D01*
X376719Y277400D01*
X376657Y277744D01*
X376586Y278087D01*
X376507Y278428D01*
X376421Y278767D01*
X376326Y279103D01*
X376223Y279438D01*
X376112Y279769D01*
X375994Y280099D01*
X375867Y280425D01*
X375733Y280748D01*
X375591Y281067D01*
X375441Y281384D01*
X375442Y281383D02*
X375402Y281496D01*
X375358Y281606D01*
X375310Y281716D01*
X375259Y281823D01*
X375204Y281929D01*
X375146Y282034D01*
X375084Y282136D01*
X375019Y282236D01*
X374951Y282334D01*
X374880Y282430D01*
X374805Y282523D01*
X374728Y282614D01*
X374648Y282702D01*
X374565Y282787D01*
X374479Y282870D01*
X374390Y282950D01*
X374299Y283027D01*
X374205Y283101D01*
X374109Y283172D01*
X374011Y283240D01*
X373911Y283304D01*
X373808Y283366D01*
X373704Y283423D01*
X373598Y283478D01*
X373490Y283529D01*
X373380Y283576D01*
X373269Y283620D01*
X373157Y283660D01*
X373043Y283696D01*
X372929Y283729D01*
X372813Y283758D01*
X372696Y283783D01*
X372579Y283804D01*
X372461Y283822D01*
X372342Y283835D01*
X372223Y283845D01*
X372104Y283851D01*
X371985Y283853D01*
X371866Y283851D01*
X371747Y283845D01*
X371628Y283835D01*
X371509Y283822D01*
X371391Y283804D01*
X371274Y283783D01*
X371157Y283758D01*
X371041Y283729D01*
X370927Y283696D01*
X370813Y283660D01*
X370701Y283620D01*
X370590Y283576D01*
X370480Y283529D01*
X370372Y283478D01*
X370266Y283423D01*
X370162Y283366D01*
X370059Y283304D01*
X369959Y283240D01*
X369861Y283172D01*
X369765Y283101D01*
X369671Y283027D01*
X369580Y282950D01*
X369491Y282870D01*
X369406Y282787D01*
X369322Y282702D01*
X369242Y282614D01*
X369165Y282523D01*
X369090Y282430D01*
X369019Y282334D01*
X368951Y282236D01*
X368886Y282136D01*
X368824Y282034D01*
X368766Y281929D01*
X368711Y281824D01*
X368660Y281716D01*
X368612Y281606D01*
X368568Y281496D01*
X368528Y281383D01*
X368528Y281384D02*
X368378Y281067D01*
X368236Y280748D01*
X368102Y280425D01*
X367975Y280099D01*
X367857Y279769D01*
X367746Y279438D01*
X367643Y279103D01*
X367548Y278767D01*
X367462Y278428D01*
X367383Y278087D01*
X367312Y277744D01*
X367250Y277400D01*
X367196Y277055D01*
X367150Y276708D01*
X367113Y276360D01*
X367084Y276011D01*
X367063Y275662D01*
X367050Y275313D01*
X367046Y274963D01*
X376923Y274963D02*
X376919Y274613D01*
X376906Y274264D01*
X376885Y273915D01*
X376856Y273566D01*
X376819Y273218D01*
X376773Y272871D01*
X376719Y272526D01*
X376657Y272182D01*
X376586Y271839D01*
X376507Y271498D01*
X376421Y271159D01*
X376326Y270823D01*
X376223Y270488D01*
X376112Y270157D01*
X375994Y269828D01*
X375867Y269501D01*
X375733Y269178D01*
X375591Y268859D01*
X375441Y268543D01*
X375442Y268542D02*
X375402Y268429D01*
X375358Y268319D01*
X375310Y268209D01*
X375259Y268102D01*
X375204Y267996D01*
X375146Y267891D01*
X375084Y267789D01*
X375019Y267689D01*
X374951Y267591D01*
X374880Y267495D01*
X374805Y267402D01*
X374728Y267311D01*
X374648Y267223D01*
X374565Y267138D01*
X374479Y267055D01*
X374390Y266975D01*
X374299Y266898D01*
X374205Y266824D01*
X374109Y266753D01*
X374011Y266685D01*
X373911Y266621D01*
X373808Y266559D01*
X373704Y266502D01*
X373598Y266447D01*
X373490Y266396D01*
X373380Y266349D01*
X373269Y266305D01*
X373157Y266265D01*
X373043Y266229D01*
X372929Y266196D01*
X372813Y266167D01*
X372696Y266142D01*
X372579Y266121D01*
X372461Y266103D01*
X372342Y266090D01*
X372223Y266080D01*
X372104Y266074D01*
X371985Y266072D01*
X368528Y268543D02*
X368378Y268859D01*
X368236Y269178D01*
X368102Y269501D01*
X367975Y269828D01*
X367857Y270157D01*
X367746Y270488D01*
X367643Y270823D01*
X367548Y271159D01*
X367462Y271498D01*
X367383Y271839D01*
X367312Y272182D01*
X367250Y272526D01*
X367196Y272871D01*
X367150Y273218D01*
X367113Y273566D01*
X367084Y273915D01*
X367063Y274264D01*
X367050Y274613D01*
X367046Y274963D01*
X368528Y268542D02*
X368568Y268429D01*
X368612Y268319D01*
X368660Y268209D01*
X368711Y268101D01*
X368766Y267995D01*
X368824Y267891D01*
X368886Y267789D01*
X368951Y267689D01*
X369019Y267591D01*
X369090Y267495D01*
X369165Y267402D01*
X369242Y267311D01*
X369322Y267223D01*
X369406Y267138D01*
X369491Y267055D01*
X369580Y266975D01*
X369671Y266898D01*
X369765Y266824D01*
X369861Y266753D01*
X369959Y266685D01*
X370059Y266621D01*
X370162Y266559D01*
X370266Y266501D01*
X370372Y266447D01*
X370480Y266396D01*
X370590Y266349D01*
X370701Y266305D01*
X370813Y266265D01*
X370927Y266229D01*
X371041Y266196D01*
X371157Y266167D01*
X371274Y266142D01*
X371391Y266121D01*
X371509Y266103D01*
X371628Y266090D01*
X371747Y266080D01*
X371866Y266074D01*
X371985Y266072D01*
X375936Y270024D02*
X368033Y279902D01*
X360173Y274963D02*
X360169Y275313D01*
X360156Y275662D01*
X360135Y276011D01*
X360106Y276360D01*
X360069Y276708D01*
X360023Y277055D01*
X359969Y277400D01*
X359907Y277744D01*
X359836Y278087D01*
X359757Y278428D01*
X359671Y278767D01*
X359576Y279103D01*
X359473Y279438D01*
X359362Y279769D01*
X359244Y280099D01*
X359117Y280425D01*
X358983Y280748D01*
X358841Y281067D01*
X358691Y281384D01*
X358691Y281383D02*
X358651Y281496D01*
X358607Y281606D01*
X358559Y281716D01*
X358508Y281823D01*
X358453Y281929D01*
X358395Y282034D01*
X358333Y282136D01*
X358268Y282236D01*
X358200Y282334D01*
X358129Y282430D01*
X358054Y282523D01*
X357977Y282614D01*
X357897Y282702D01*
X357814Y282787D01*
X357728Y282870D01*
X357639Y282950D01*
X357548Y283027D01*
X357454Y283101D01*
X357358Y283172D01*
X357260Y283240D01*
X357160Y283304D01*
X357057Y283366D01*
X356953Y283423D01*
X356847Y283478D01*
X356739Y283529D01*
X356629Y283576D01*
X356518Y283620D01*
X356406Y283660D01*
X356292Y283696D01*
X356178Y283729D01*
X356062Y283758D01*
X355945Y283783D01*
X355828Y283804D01*
X355710Y283822D01*
X355591Y283835D01*
X355472Y283845D01*
X355353Y283851D01*
X355234Y283853D01*
X355115Y283851D01*
X354996Y283845D01*
X354877Y283835D01*
X354758Y283822D01*
X354640Y283804D01*
X354523Y283783D01*
X354406Y283758D01*
X354290Y283729D01*
X354176Y283696D01*
X354062Y283660D01*
X353950Y283620D01*
X353839Y283576D01*
X353729Y283529D01*
X353621Y283478D01*
X353515Y283423D01*
X353411Y283366D01*
X353308Y283304D01*
X353208Y283240D01*
X353110Y283172D01*
X353014Y283101D01*
X352920Y283027D01*
X352829Y282950D01*
X352740Y282870D01*
X352655Y282787D01*
X352571Y282702D01*
X352491Y282614D01*
X352414Y282523D01*
X352339Y282430D01*
X352268Y282334D01*
X352200Y282236D01*
X352135Y282136D01*
X352073Y282034D01*
X352015Y281929D01*
X351960Y281824D01*
X351909Y281716D01*
X351861Y281606D01*
X351817Y281496D01*
X351777Y281383D01*
X351777Y281384D02*
X351627Y281067D01*
X351485Y280748D01*
X351351Y280425D01*
X351224Y280099D01*
X351106Y279769D01*
X350995Y279438D01*
X350892Y279103D01*
X350797Y278767D01*
X350711Y278428D01*
X350632Y278087D01*
X350561Y277744D01*
X350499Y277400D01*
X350445Y277055D01*
X350399Y276708D01*
X350362Y276360D01*
X350333Y276011D01*
X350312Y275662D01*
X350299Y275313D01*
X350295Y274963D01*
X360173Y274963D02*
X360169Y274613D01*
X360156Y274264D01*
X360135Y273915D01*
X360106Y273566D01*
X360069Y273218D01*
X360023Y272871D01*
X359969Y272526D01*
X359907Y272182D01*
X359836Y271839D01*
X359757Y271498D01*
X359671Y271159D01*
X359576Y270823D01*
X359473Y270488D01*
X359362Y270157D01*
X359244Y269828D01*
X359117Y269501D01*
X358983Y269178D01*
X358841Y268859D01*
X358691Y268543D01*
X358691Y268542D02*
X358651Y268429D01*
X358607Y268319D01*
X358559Y268209D01*
X358508Y268102D01*
X358453Y267996D01*
X358395Y267891D01*
X358333Y267789D01*
X358268Y267689D01*
X358200Y267591D01*
X358129Y267495D01*
X358054Y267402D01*
X357977Y267311D01*
X357897Y267223D01*
X357814Y267138D01*
X357728Y267055D01*
X357639Y266975D01*
X357548Y266898D01*
X357454Y266824D01*
X357358Y266753D01*
X357260Y266685D01*
X357160Y266621D01*
X357057Y266559D01*
X356953Y266502D01*
X356847Y266447D01*
X356739Y266396D01*
X356629Y266349D01*
X356518Y266305D01*
X356406Y266265D01*
X356292Y266229D01*
X356178Y266196D01*
X356062Y266167D01*
X355945Y266142D01*
X355828Y266121D01*
X355710Y266103D01*
X355591Y266090D01*
X355472Y266080D01*
X355353Y266074D01*
X355234Y266072D01*
X351777Y268543D02*
X351627Y268859D01*
X351485Y269178D01*
X351351Y269501D01*
X351224Y269828D01*
X351106Y270157D01*
X350995Y270488D01*
X350892Y270823D01*
X350797Y271159D01*
X350711Y271498D01*
X350632Y271839D01*
X350561Y272182D01*
X350499Y272526D01*
X350445Y272871D01*
X350399Y273218D01*
X350362Y273566D01*
X350333Y273915D01*
X350312Y274264D01*
X350299Y274613D01*
X350295Y274963D01*
X351777Y268542D02*
X351817Y268429D01*
X351861Y268319D01*
X351909Y268209D01*
X351960Y268101D01*
X352015Y267995D01*
X352073Y267891D01*
X352135Y267789D01*
X352200Y267689D01*
X352268Y267591D01*
X352339Y267495D01*
X352414Y267402D01*
X352491Y267311D01*
X352571Y267223D01*
X352655Y267138D01*
X352740Y267055D01*
X352829Y266975D01*
X352920Y266898D01*
X353014Y266824D01*
X353110Y266753D01*
X353208Y266685D01*
X353308Y266621D01*
X353411Y266559D01*
X353515Y266501D01*
X353621Y266447D01*
X353729Y266396D01*
X353839Y266349D01*
X353950Y266305D01*
X354062Y266265D01*
X354176Y266229D01*
X354290Y266196D01*
X354406Y266167D01*
X354523Y266142D01*
X354640Y266121D01*
X354758Y266103D01*
X354877Y266090D01*
X354996Y266080D01*
X355115Y266074D01*
X355234Y266072D01*
X359185Y270024D02*
X351283Y279902D01*
X342779Y283853D02*
X342779Y266073D01*
X342779Y283853D02*
X337840Y283853D01*
X337700Y283851D01*
X337561Y283845D01*
X337421Y283835D01*
X337282Y283821D01*
X337143Y283804D01*
X337005Y283782D01*
X336868Y283756D01*
X336731Y283727D01*
X336595Y283694D01*
X336461Y283657D01*
X336327Y283616D01*
X336195Y283571D01*
X336063Y283522D01*
X335934Y283470D01*
X335806Y283415D01*
X335679Y283355D01*
X335554Y283292D01*
X335431Y283226D01*
X335310Y283156D01*
X335191Y283083D01*
X335074Y283006D01*
X334960Y282926D01*
X334847Y282843D01*
X334737Y282757D01*
X334630Y282667D01*
X334525Y282575D01*
X334423Y282480D01*
X334323Y282382D01*
X334226Y282281D01*
X334132Y282177D01*
X334042Y282071D01*
X333954Y281962D01*
X333869Y281851D01*
X333788Y281737D01*
X333709Y281622D01*
X333634Y281504D01*
X333563Y281384D01*
X333495Y281261D01*
X333430Y281138D01*
X333369Y281012D01*
X333311Y280884D01*
X333257Y280756D01*
X333207Y280625D01*
X333160Y280493D01*
X333117Y280360D01*
X333078Y280226D01*
X333043Y280091D01*
X333012Y279955D01*
X332984Y279817D01*
X332961Y279680D01*
X332941Y279541D01*
X332925Y279402D01*
X332913Y279263D01*
X332905Y279124D01*
X332901Y278984D01*
X332901Y278844D01*
X332905Y278704D01*
X332913Y278565D01*
X332925Y278426D01*
X332941Y278287D01*
X332961Y278148D01*
X332984Y278011D01*
X333012Y277873D01*
X333043Y277737D01*
X333078Y277602D01*
X333117Y277468D01*
X333160Y277335D01*
X333207Y277203D01*
X333257Y277072D01*
X333311Y276944D01*
X333369Y276816D01*
X333430Y276690D01*
X333495Y276567D01*
X333563Y276445D01*
X333634Y276324D01*
X333709Y276206D01*
X333788Y276091D01*
X333869Y275977D01*
X333954Y275866D01*
X334042Y275757D01*
X334132Y275651D01*
X334226Y275547D01*
X334323Y275446D01*
X334423Y275348D01*
X334525Y275253D01*
X334630Y275161D01*
X334737Y275071D01*
X334847Y274985D01*
X334960Y274902D01*
X335074Y274822D01*
X335191Y274745D01*
X335310Y274672D01*
X335431Y274602D01*
X335554Y274536D01*
X335679Y274473D01*
X335806Y274413D01*
X335934Y274358D01*
X336063Y274306D01*
X336195Y274257D01*
X336327Y274212D01*
X336461Y274171D01*
X336595Y274134D01*
X336731Y274101D01*
X336868Y274072D01*
X337005Y274046D01*
X337143Y274024D01*
X337282Y274007D01*
X337421Y273993D01*
X337561Y273983D01*
X337700Y273977D01*
X337840Y273975D01*
X342779Y273975D01*
X336852Y273975D02*
X332901Y266073D01*
X326114Y279902D02*
X321175Y283853D01*
X321175Y266073D01*
X326114Y266073D02*
X316236Y266073D01*
X309363Y279902D02*
X304424Y283853D01*
X304424Y266073D01*
X299486Y266073D02*
X309363Y266073D01*
D12*
X311202Y346202D02*
X311213Y347061D01*
X311244Y347919D01*
X311297Y348777D01*
X311371Y349633D01*
X311465Y350486D01*
X311581Y351338D01*
X311717Y352186D01*
X311875Y353030D01*
X312052Y353871D01*
X312251Y354706D01*
X312470Y355537D01*
X312709Y356362D01*
X312969Y357181D01*
X313248Y357993D01*
X313547Y358798D01*
X313866Y359596D01*
X314205Y360385D01*
X314562Y361166D01*
X314939Y361938D01*
X315335Y362701D01*
X315749Y363453D01*
X316181Y364196D01*
X316632Y364927D01*
X317101Y365647D01*
X317587Y366355D01*
X318090Y367051D01*
X318610Y367735D01*
X319147Y368406D01*
X319700Y369063D01*
X320269Y369707D01*
X320853Y370336D01*
X321453Y370951D01*
X322068Y371551D01*
X322697Y372135D01*
X323341Y372704D01*
X323998Y373257D01*
X324669Y373794D01*
X325353Y374314D01*
X326049Y374817D01*
X326757Y375303D01*
X327477Y375772D01*
X328208Y376223D01*
X328951Y376655D01*
X329703Y377069D01*
X330466Y377465D01*
X331238Y377842D01*
X332019Y378199D01*
X332808Y378538D01*
X333606Y378857D01*
X334411Y379156D01*
X335223Y379435D01*
X336042Y379695D01*
X336867Y379934D01*
X337698Y380153D01*
X338533Y380352D01*
X339374Y380529D01*
X340218Y380687D01*
X341066Y380823D01*
X341918Y380939D01*
X342771Y381033D01*
X343627Y381107D01*
X344485Y381160D01*
X345343Y381191D01*
X346202Y381202D01*
X347061Y381191D01*
X347919Y381160D01*
X348777Y381107D01*
X349633Y381033D01*
X350486Y380939D01*
X351338Y380823D01*
X352186Y380687D01*
X353030Y380529D01*
X353871Y380352D01*
X354706Y380153D01*
X355537Y379934D01*
X356362Y379695D01*
X357181Y379435D01*
X357993Y379156D01*
X358798Y378857D01*
X359596Y378538D01*
X360385Y378199D01*
X361166Y377842D01*
X361938Y377465D01*
X362701Y377069D01*
X363453Y376655D01*
X364196Y376223D01*
X364927Y375772D01*
X365647Y375303D01*
X366355Y374817D01*
X367051Y374314D01*
X367735Y373794D01*
X368406Y373257D01*
X369063Y372704D01*
X369707Y372135D01*
X370336Y371551D01*
X370951Y370951D01*
X371551Y370336D01*
X372135Y369707D01*
X372704Y369063D01*
X373257Y368406D01*
X373794Y367735D01*
X374314Y367051D01*
X374817Y366355D01*
X375303Y365647D01*
X375772Y364927D01*
X376223Y364196D01*
X376655Y363453D01*
X377069Y362701D01*
X377465Y361938D01*
X377842Y361166D01*
X378199Y360385D01*
X378538Y359596D01*
X378857Y358798D01*
X379156Y357993D01*
X379435Y357181D01*
X379695Y356362D01*
X379934Y355537D01*
X380153Y354706D01*
X380352Y353871D01*
X380529Y353030D01*
X380687Y352186D01*
X380823Y351338D01*
X380939Y350486D01*
X381033Y349633D01*
X381107Y348777D01*
X381160Y347919D01*
X381191Y347061D01*
X381202Y346202D01*
X381191Y345343D01*
X381160Y344485D01*
X381107Y343627D01*
X381033Y342771D01*
X380939Y341918D01*
X380823Y341066D01*
X380687Y340218D01*
X380529Y339374D01*
X380352Y338533D01*
X380153Y337698D01*
X379934Y336867D01*
X379695Y336042D01*
X379435Y335223D01*
X379156Y334411D01*
X378857Y333606D01*
X378538Y332808D01*
X378199Y332019D01*
X377842Y331238D01*
X377465Y330466D01*
X377069Y329703D01*
X376655Y328951D01*
X376223Y328208D01*
X375772Y327477D01*
X375303Y326757D01*
X374817Y326049D01*
X374314Y325353D01*
X373794Y324669D01*
X373257Y323998D01*
X372704Y323341D01*
X372135Y322697D01*
X371551Y322068D01*
X370951Y321453D01*
X370336Y320853D01*
X369707Y320269D01*
X369063Y319700D01*
X368406Y319147D01*
X367735Y318610D01*
X367051Y318090D01*
X366355Y317587D01*
X365647Y317101D01*
X364927Y316632D01*
X364196Y316181D01*
X363453Y315749D01*
X362701Y315335D01*
X361938Y314939D01*
X361166Y314562D01*
X360385Y314205D01*
X359596Y313866D01*
X358798Y313547D01*
X357993Y313248D01*
X357181Y312969D01*
X356362Y312709D01*
X355537Y312470D01*
X354706Y312251D01*
X353871Y312052D01*
X353030Y311875D01*
X352186Y311717D01*
X351338Y311581D01*
X350486Y311465D01*
X349633Y311371D01*
X348777Y311297D01*
X347919Y311244D01*
X347061Y311213D01*
X346202Y311202D01*
X345343Y311213D01*
X344485Y311244D01*
X343627Y311297D01*
X342771Y311371D01*
X341918Y311465D01*
X341066Y311581D01*
X340218Y311717D01*
X339374Y311875D01*
X338533Y312052D01*
X337698Y312251D01*
X336867Y312470D01*
X336042Y312709D01*
X335223Y312969D01*
X334411Y313248D01*
X333606Y313547D01*
X332808Y313866D01*
X332019Y314205D01*
X331238Y314562D01*
X330466Y314939D01*
X329703Y315335D01*
X328951Y315749D01*
X328208Y316181D01*
X327477Y316632D01*
X326757Y317101D01*
X326049Y317587D01*
X325353Y318090D01*
X324669Y318610D01*
X323998Y319147D01*
X323341Y319700D01*
X322697Y320269D01*
X322068Y320853D01*
X321453Y321453D01*
X320853Y322068D01*
X320269Y322697D01*
X319700Y323341D01*
X319147Y323998D01*
X318610Y324669D01*
X318090Y325353D01*
X317587Y326049D01*
X317101Y326757D01*
X316632Y327477D01*
X316181Y328208D01*
X315749Y328951D01*
X315335Y329703D01*
X314939Y330466D01*
X314562Y331238D01*
X314205Y332019D01*
X313866Y332808D01*
X313547Y333606D01*
X313248Y334411D01*
X312969Y335223D01*
X312709Y336042D01*
X312470Y336867D01*
X312251Y337698D01*
X312052Y338533D01*
X311875Y339374D01*
X311717Y340218D01*
X311581Y341066D01*
X311465Y341918D01*
X311371Y342771D01*
X311297Y343627D01*
X311244Y344485D01*
X311213Y345343D01*
X311202Y346202D01*
X300202Y346202D02*
X300216Y347331D01*
X300257Y348459D01*
X300327Y349586D01*
X300424Y350711D01*
X300548Y351833D01*
X300700Y352952D01*
X300879Y354066D01*
X301086Y355176D01*
X301320Y356281D01*
X301581Y357379D01*
X301868Y358471D01*
X302183Y359555D01*
X302524Y360631D01*
X302891Y361699D01*
X303284Y362757D01*
X303704Y363805D01*
X304148Y364843D01*
X304618Y365870D01*
X305114Y366884D01*
X305634Y367886D01*
X306178Y368875D01*
X306746Y369851D01*
X307339Y370812D01*
X307954Y371758D01*
X308593Y372689D01*
X309254Y373604D01*
X309938Y374503D01*
X310644Y375384D01*
X311370Y376248D01*
X312118Y377094D01*
X312887Y377921D01*
X313675Y378729D01*
X314483Y379517D01*
X315310Y380286D01*
X316156Y381034D01*
X317020Y381760D01*
X317901Y382466D01*
X318800Y383150D01*
X319715Y383811D01*
X320646Y384450D01*
X321592Y385065D01*
X322553Y385658D01*
X323529Y386226D01*
X324518Y386770D01*
X325520Y387290D01*
X326534Y387786D01*
X327561Y388256D01*
X328599Y388700D01*
X329647Y389120D01*
X330705Y389513D01*
X331773Y389880D01*
X332849Y390221D01*
X333933Y390536D01*
X335025Y390823D01*
X336123Y391084D01*
X337228Y391318D01*
X338338Y391525D01*
X339452Y391704D01*
X340571Y391856D01*
X341693Y391980D01*
X342818Y392077D01*
X343945Y392147D01*
X345073Y392188D01*
X346202Y392202D01*
X347331Y392188D01*
X348459Y392147D01*
X349586Y392077D01*
X350711Y391980D01*
X351833Y391856D01*
X352952Y391704D01*
X354066Y391525D01*
X355176Y391318D01*
X356281Y391084D01*
X357379Y390823D01*
X358471Y390536D01*
X359555Y390221D01*
X360631Y389880D01*
X361699Y389513D01*
X362757Y389120D01*
X363805Y388700D01*
X364843Y388256D01*
X365870Y387786D01*
X366884Y387290D01*
X367886Y386770D01*
X368875Y386226D01*
X369851Y385658D01*
X370812Y385065D01*
X371758Y384450D01*
X372689Y383811D01*
X373604Y383150D01*
X374503Y382466D01*
X375384Y381760D01*
X376248Y381034D01*
X377094Y380286D01*
X377921Y379517D01*
X378729Y378729D01*
X379517Y377921D01*
X380286Y377094D01*
X381034Y376248D01*
X381760Y375384D01*
X382466Y374503D01*
X383150Y373604D01*
X383811Y372689D01*
X384450Y371758D01*
X385065Y370812D01*
X385658Y369851D01*
X386226Y368875D01*
X386770Y367886D01*
X387290Y366884D01*
X387786Y365870D01*
X388256Y364843D01*
X388700Y363805D01*
X389120Y362757D01*
X389513Y361699D01*
X389880Y360631D01*
X390221Y359555D01*
X390536Y358471D01*
X390823Y357379D01*
X391084Y356281D01*
X391318Y355176D01*
X391525Y354066D01*
X391704Y352952D01*
X391856Y351833D01*
X391980Y350711D01*
X392077Y349586D01*
X392147Y348459D01*
X392188Y347331D01*
X392202Y346202D01*
X392188Y345073D01*
X392147Y343945D01*
X392077Y342818D01*
X391980Y341693D01*
X391856Y340571D01*
X391704Y339452D01*
X391525Y338338D01*
X391318Y337228D01*
X391084Y336123D01*
X390823Y335025D01*
X390536Y333933D01*
X390221Y332849D01*
X389880Y331773D01*
X389513Y330705D01*
X389120Y329647D01*
X388700Y328599D01*
X388256Y327561D01*
X387786Y326534D01*
X387290Y325520D01*
X386770Y324518D01*
X386226Y323529D01*
X385658Y322553D01*
X385065Y321592D01*
X384450Y320646D01*
X383811Y319715D01*
X383150Y318800D01*
X382466Y317901D01*
X381760Y317020D01*
X381034Y316156D01*
X380286Y315310D01*
X379517Y314483D01*
X378729Y313675D01*
X377921Y312887D01*
X377094Y312118D01*
X376248Y311370D01*
X375384Y310644D01*
X374503Y309938D01*
X373604Y309254D01*
X372689Y308593D01*
X371758Y307954D01*
X370812Y307339D01*
X369851Y306746D01*
X368875Y306178D01*
X367886Y305634D01*
X366884Y305114D01*
X365870Y304618D01*
X364843Y304148D01*
X363805Y303704D01*
X362757Y303284D01*
X361699Y302891D01*
X360631Y302524D01*
X359555Y302183D01*
X358471Y301868D01*
X357379Y301581D01*
X356281Y301320D01*
X355176Y301086D01*
X354066Y300879D01*
X352952Y300700D01*
X351833Y300548D01*
X350711Y300424D01*
X349586Y300327D01*
X348459Y300257D01*
X347331Y300216D01*
X346202Y300202D01*
X345073Y300216D01*
X343945Y300257D01*
X342818Y300327D01*
X341693Y300424D01*
X340571Y300548D01*
X339452Y300700D01*
X338338Y300879D01*
X337228Y301086D01*
X336123Y301320D01*
X335025Y301581D01*
X333933Y301868D01*
X332849Y302183D01*
X331773Y302524D01*
X330705Y302891D01*
X329647Y303284D01*
X328599Y303704D01*
X327561Y304148D01*
X326534Y304618D01*
X325520Y305114D01*
X324518Y305634D01*
X323529Y306178D01*
X322553Y306746D01*
X321592Y307339D01*
X320646Y307954D01*
X319715Y308593D01*
X318800Y309254D01*
X317901Y309938D01*
X317020Y310644D01*
X316156Y311370D01*
X315310Y312118D01*
X314483Y312887D01*
X313675Y313675D01*
X312887Y314483D01*
X312118Y315310D01*
X311370Y316156D01*
X310644Y317020D01*
X309938Y317901D01*
X309254Y318800D01*
X308593Y319715D01*
X307954Y320646D01*
X307339Y321592D01*
X306746Y322553D01*
X306178Y323529D01*
X305634Y324518D01*
X305114Y325520D01*
X304618Y326534D01*
X304148Y327561D01*
X303704Y328599D01*
X303284Y329647D01*
X302891Y330705D01*
X302524Y331773D01*
X302183Y332849D01*
X301868Y333933D01*
X301581Y335025D01*
X301320Y336123D01*
X301086Y337228D01*
X300879Y338338D01*
X300700Y339452D01*
X300548Y340571D01*
X300424Y341693D01*
X300327Y342818D01*
X300257Y343945D01*
X300216Y345073D01*
X300202Y346202D01*
X317702Y346202D02*
X317711Y346901D01*
X317736Y347600D01*
X317779Y348299D01*
X317839Y348995D01*
X317916Y349691D01*
X318010Y350384D01*
X318122Y351074D01*
X318250Y351762D01*
X318394Y352446D01*
X318556Y353127D01*
X318734Y353803D01*
X318929Y354475D01*
X319140Y355142D01*
X319368Y355803D01*
X319612Y356459D01*
X319871Y357108D01*
X320147Y357751D01*
X320438Y358387D01*
X320745Y359016D01*
X321067Y359637D01*
X321405Y360250D01*
X321757Y360854D01*
X322124Y361449D01*
X322505Y362036D01*
X322901Y362613D01*
X323311Y363179D01*
X323734Y363736D01*
X324171Y364282D01*
X324622Y364817D01*
X325085Y365341D01*
X325561Y365854D01*
X326049Y366355D01*
X326550Y366843D01*
X327063Y367319D01*
X327587Y367782D01*
X328122Y368233D01*
X328668Y368670D01*
X329225Y369093D01*
X329791Y369503D01*
X330368Y369899D01*
X330955Y370280D01*
X331550Y370647D01*
X332154Y370999D01*
X332767Y371337D01*
X333388Y371659D01*
X334017Y371966D01*
X334653Y372257D01*
X335296Y372533D01*
X335945Y372792D01*
X336601Y373036D01*
X337262Y373264D01*
X337929Y373475D01*
X338601Y373670D01*
X339277Y373848D01*
X339958Y374010D01*
X340642Y374154D01*
X341330Y374282D01*
X342020Y374394D01*
X342713Y374488D01*
X343409Y374565D01*
X344105Y374625D01*
X344804Y374668D01*
X345503Y374693D01*
X346202Y374702D01*
X346901Y374693D01*
X347600Y374668D01*
X348299Y374625D01*
X348995Y374565D01*
X349691Y374488D01*
X350384Y374394D01*
X351074Y374282D01*
X351762Y374154D01*
X352446Y374010D01*
X353127Y373848D01*
X353803Y373670D01*
X354475Y373475D01*
X355142Y373264D01*
X355803Y373036D01*
X356459Y372792D01*
X357108Y372533D01*
X357751Y372257D01*
X358387Y371966D01*
X359016Y371659D01*
X359637Y371337D01*
X360250Y370999D01*
X360854Y370647D01*
X361449Y370280D01*
X362036Y369899D01*
X362613Y369503D01*
X363179Y369093D01*
X363736Y368670D01*
X364282Y368233D01*
X364817Y367782D01*
X365341Y367319D01*
X365854Y366843D01*
X366355Y366355D01*
X366843Y365854D01*
X367319Y365341D01*
X367782Y364817D01*
X368233Y364282D01*
X368670Y363736D01*
X369093Y363179D01*
X369503Y362613D01*
X369899Y362036D01*
X370280Y361449D01*
X370647Y360854D01*
X370999Y360250D01*
X371337Y359637D01*
X371659Y359016D01*
X371966Y358387D01*
X372257Y357751D01*
X372533Y357108D01*
X372792Y356459D01*
X373036Y355803D01*
X373264Y355142D01*
X373475Y354475D01*
X373670Y353803D01*
X373848Y353127D01*
X374010Y352446D01*
X374154Y351762D01*
X374282Y351074D01*
X374394Y350384D01*
X374488Y349691D01*
X374565Y348995D01*
X374625Y348299D01*
X374668Y347600D01*
X374693Y346901D01*
X374702Y346202D01*
X374693Y345503D01*
X374668Y344804D01*
X374625Y344105D01*
X374565Y343409D01*
X374488Y342713D01*
X374394Y342020D01*
X374282Y341330D01*
X374154Y340642D01*
X374010Y339958D01*
X373848Y339277D01*
X373670Y338601D01*
X373475Y337929D01*
X373264Y337262D01*
X373036Y336601D01*
X372792Y335945D01*
X372533Y335296D01*
X372257Y334653D01*
X371966Y334017D01*
X371659Y333388D01*
X371337Y332767D01*
X370999Y332154D01*
X370647Y331550D01*
X370280Y330955D01*
X369899Y330368D01*
X369503Y329791D01*
X369093Y329225D01*
X368670Y328668D01*
X368233Y328122D01*
X367782Y327587D01*
X367319Y327063D01*
X366843Y326550D01*
X366355Y326049D01*
X365854Y325561D01*
X365341Y325085D01*
X364817Y324622D01*
X364282Y324171D01*
X363736Y323734D01*
X363179Y323311D01*
X362613Y322901D01*
X362036Y322505D01*
X361449Y322124D01*
X360854Y321757D01*
X360250Y321405D01*
X359637Y321067D01*
X359016Y320745D01*
X358387Y320438D01*
X357751Y320147D01*
X357108Y319871D01*
X356459Y319612D01*
X355803Y319368D01*
X355142Y319140D01*
X354475Y318929D01*
X353803Y318734D01*
X353127Y318556D01*
X352446Y318394D01*
X351762Y318250D01*
X351074Y318122D01*
X350384Y318010D01*
X349691Y317916D01*
X348995Y317839D01*
X348299Y317779D01*
X347600Y317736D01*
X346901Y317711D01*
X346202Y317702D01*
X345503Y317711D01*
X344804Y317736D01*
X344105Y317779D01*
X343409Y317839D01*
X342713Y317916D01*
X342020Y318010D01*
X341330Y318122D01*
X340642Y318250D01*
X339958Y318394D01*
X339277Y318556D01*
X338601Y318734D01*
X337929Y318929D01*
X337262Y319140D01*
X336601Y319368D01*
X335945Y319612D01*
X335296Y319871D01*
X334653Y320147D01*
X334017Y320438D01*
X333388Y320745D01*
X332767Y321067D01*
X332154Y321405D01*
X331550Y321757D01*
X330955Y322124D01*
X330368Y322505D01*
X329791Y322901D01*
X329225Y323311D01*
X328668Y323734D01*
X328122Y324171D01*
X327587Y324622D01*
X327063Y325085D01*
X326550Y325561D01*
X326049Y326049D01*
X325561Y326550D01*
X325085Y327063D01*
X324622Y327587D01*
X324171Y328122D01*
X323734Y328668D01*
X323311Y329225D01*
X322901Y329791D01*
X322505Y330368D01*
X322124Y330955D01*
X321757Y331550D01*
X321405Y332154D01*
X321067Y332767D01*
X320745Y333388D01*
X320438Y334017D01*
X320147Y334653D01*
X319871Y335296D01*
X319612Y335945D01*
X319368Y336601D01*
X319140Y337262D01*
X318929Y337929D01*
X318734Y338601D01*
X318556Y339277D01*
X318394Y339958D01*
X318250Y340642D01*
X318122Y341330D01*
X318010Y342020D01*
X317916Y342713D01*
X317839Y343409D01*
X317779Y344105D01*
X317736Y344804D01*
X317711Y345503D01*
X317702Y346202D01*
D13*
X356870Y354330D02*
X381000Y378460D01*
X392537Y378460D01*
X402537Y378460D02*
X414073Y378460D01*
X424073Y378460D02*
X435610Y378460D01*
D10*
X435257Y382016D02*
X435257Y395224D01*
X430854Y387886D01*
X426451Y395224D01*
X426451Y382016D01*
X416405Y395224D02*
X416292Y395222D01*
X416180Y395216D01*
X416067Y395207D01*
X415955Y395193D01*
X415844Y395176D01*
X415733Y395155D01*
X415623Y395130D01*
X415514Y395102D01*
X415406Y395069D01*
X415299Y395033D01*
X415194Y394994D01*
X415089Y394951D01*
X414987Y394904D01*
X414886Y394854D01*
X414787Y394800D01*
X414689Y394743D01*
X414594Y394683D01*
X414501Y394620D01*
X414410Y394553D01*
X414321Y394483D01*
X414235Y394411D01*
X414151Y394335D01*
X414070Y394257D01*
X413992Y394176D01*
X413916Y394092D01*
X413844Y394006D01*
X413774Y393917D01*
X413707Y393826D01*
X413644Y393733D01*
X413584Y393638D01*
X413527Y393540D01*
X413473Y393441D01*
X413423Y393340D01*
X413376Y393238D01*
X413333Y393133D01*
X413294Y393028D01*
X413258Y392921D01*
X413225Y392813D01*
X413197Y392704D01*
X413172Y392594D01*
X413151Y392483D01*
X413134Y392372D01*
X413120Y392260D01*
X413111Y392147D01*
X413105Y392035D01*
X413103Y391922D01*
X416405Y395224D02*
X416532Y395222D01*
X416659Y395216D01*
X416786Y395207D01*
X416912Y395194D01*
X417038Y395177D01*
X417163Y395156D01*
X417288Y395131D01*
X417411Y395103D01*
X417534Y395071D01*
X417656Y395035D01*
X417777Y394996D01*
X417897Y394953D01*
X418015Y394907D01*
X418132Y394857D01*
X418247Y394803D01*
X418360Y394746D01*
X418472Y394686D01*
X418582Y394623D01*
X418690Y394556D01*
X418796Y394486D01*
X418900Y394413D01*
X419002Y394336D01*
X419101Y394257D01*
X419198Y394175D01*
X419292Y394090D01*
X419384Y394002D01*
X419473Y393912D01*
X419559Y393818D01*
X419643Y393723D01*
X419723Y393625D01*
X419801Y393524D01*
X419876Y393421D01*
X419947Y393316D01*
X420015Y393209D01*
X420080Y393100D01*
X420142Y392989D01*
X420201Y392876D01*
X420256Y392762D01*
X420307Y392646D01*
X420355Y392528D01*
X420400Y392409D01*
X420441Y392289D01*
X414204Y389354D02*
X414122Y389434D01*
X414043Y389517D01*
X413966Y389603D01*
X413892Y389691D01*
X413822Y389782D01*
X413754Y389874D01*
X413689Y389969D01*
X413627Y390066D01*
X413569Y390165D01*
X413513Y390266D01*
X413461Y390368D01*
X413413Y390472D01*
X413368Y390578D01*
X413326Y390685D01*
X413287Y390793D01*
X413253Y390903D01*
X413221Y391013D01*
X413194Y391125D01*
X413170Y391237D01*
X413149Y391350D01*
X413133Y391464D01*
X413120Y391578D01*
X413110Y391692D01*
X413105Y391807D01*
X413103Y391922D01*
X414204Y389354D02*
X420441Y382016D01*
X413103Y382016D01*
X439138Y364744D02*
X439138Y351536D01*
X434735Y357406D02*
X439138Y364744D01*
X434735Y357406D02*
X430332Y364744D01*
X430332Y351536D01*
X420286Y364744D02*
X420173Y364742D01*
X420061Y364736D01*
X419948Y364727D01*
X419836Y364713D01*
X419725Y364696D01*
X419614Y364675D01*
X419504Y364650D01*
X419395Y364622D01*
X419287Y364589D01*
X419180Y364553D01*
X419075Y364514D01*
X418970Y364471D01*
X418868Y364424D01*
X418767Y364374D01*
X418668Y364320D01*
X418570Y364263D01*
X418475Y364203D01*
X418382Y364140D01*
X418291Y364073D01*
X418202Y364003D01*
X418116Y363931D01*
X418032Y363855D01*
X417951Y363777D01*
X417873Y363696D01*
X417797Y363612D01*
X417725Y363526D01*
X417655Y363437D01*
X417588Y363346D01*
X417525Y363253D01*
X417465Y363158D01*
X417408Y363060D01*
X417354Y362961D01*
X417304Y362860D01*
X417257Y362758D01*
X417214Y362653D01*
X417175Y362548D01*
X417139Y362441D01*
X417106Y362333D01*
X417078Y362224D01*
X417053Y362114D01*
X417032Y362003D01*
X417015Y361892D01*
X417001Y361780D01*
X416992Y361667D01*
X416986Y361555D01*
X416984Y361442D01*
X420286Y364744D02*
X420413Y364742D01*
X420540Y364736D01*
X420667Y364727D01*
X420793Y364714D01*
X420919Y364697D01*
X421044Y364676D01*
X421169Y364651D01*
X421292Y364623D01*
X421415Y364591D01*
X421537Y364555D01*
X421658Y364516D01*
X421778Y364473D01*
X421896Y364427D01*
X422013Y364377D01*
X422128Y364323D01*
X422241Y364266D01*
X422353Y364206D01*
X422463Y364143D01*
X422571Y364076D01*
X422677Y364006D01*
X422781Y363933D01*
X422883Y363856D01*
X422982Y363777D01*
X423079Y363695D01*
X423173Y363610D01*
X423265Y363522D01*
X423354Y363432D01*
X423440Y363338D01*
X423524Y363243D01*
X423604Y363145D01*
X423682Y363044D01*
X423757Y362941D01*
X423828Y362836D01*
X423896Y362729D01*
X423961Y362620D01*
X424023Y362509D01*
X424082Y362396D01*
X424137Y362282D01*
X424188Y362166D01*
X424236Y362048D01*
X424281Y361929D01*
X424322Y361809D01*
X418085Y358874D02*
X418003Y358954D01*
X417924Y359037D01*
X417847Y359123D01*
X417773Y359211D01*
X417703Y359302D01*
X417635Y359394D01*
X417570Y359489D01*
X417508Y359586D01*
X417450Y359685D01*
X417394Y359786D01*
X417342Y359888D01*
X417294Y359992D01*
X417249Y360098D01*
X417207Y360205D01*
X417168Y360313D01*
X417134Y360423D01*
X417102Y360533D01*
X417075Y360645D01*
X417051Y360757D01*
X417030Y360870D01*
X417014Y360984D01*
X417001Y361098D01*
X416991Y361212D01*
X416986Y361327D01*
X416984Y361442D01*
X418085Y358874D02*
X424322Y351536D01*
X416984Y351536D01*
X412059Y351536D02*
X412059Y352270D01*
X411325Y352270D01*
X411325Y351536D01*
X412059Y351536D01*
X406400Y351536D02*
X401997Y351536D01*
X401890Y351538D01*
X401783Y351544D01*
X401676Y351554D01*
X401570Y351567D01*
X401464Y351585D01*
X401359Y351606D01*
X401255Y351631D01*
X401151Y351660D01*
X401049Y351693D01*
X400949Y351730D01*
X400849Y351770D01*
X400751Y351814D01*
X400655Y351861D01*
X400561Y351912D01*
X400468Y351966D01*
X400378Y352023D01*
X400289Y352084D01*
X400203Y352148D01*
X400120Y352215D01*
X400038Y352285D01*
X399960Y352358D01*
X399884Y352434D01*
X399811Y352512D01*
X399741Y352594D01*
X399674Y352677D01*
X399610Y352763D01*
X399549Y352852D01*
X399492Y352942D01*
X399438Y353035D01*
X399387Y353129D01*
X399340Y353225D01*
X399296Y353323D01*
X399256Y353423D01*
X399219Y353523D01*
X399186Y353625D01*
X399157Y353729D01*
X399132Y353833D01*
X399111Y353938D01*
X399093Y354044D01*
X399080Y354150D01*
X399070Y354257D01*
X399064Y354364D01*
X399062Y354471D01*
X399062Y355939D01*
X399064Y356046D01*
X399070Y356153D01*
X399080Y356260D01*
X399093Y356366D01*
X399111Y356472D01*
X399132Y356577D01*
X399157Y356681D01*
X399186Y356785D01*
X399219Y356887D01*
X399256Y356987D01*
X399296Y357087D01*
X399340Y357185D01*
X399387Y357281D01*
X399438Y357375D01*
X399492Y357468D01*
X399549Y357558D01*
X399610Y357647D01*
X399674Y357733D01*
X399741Y357816D01*
X399811Y357898D01*
X399884Y357976D01*
X399960Y358052D01*
X400038Y358125D01*
X400120Y358195D01*
X400203Y358262D01*
X400289Y358326D01*
X400378Y358387D01*
X400468Y358444D01*
X400561Y358498D01*
X400655Y358549D01*
X400751Y358597D01*
X400849Y358640D01*
X400949Y358680D01*
X401049Y358717D01*
X401151Y358750D01*
X401255Y358779D01*
X401359Y358804D01*
X401464Y358825D01*
X401570Y358843D01*
X401676Y358856D01*
X401783Y358866D01*
X401890Y358872D01*
X401997Y358874D01*
X406400Y358874D01*
X406400Y364744D01*
X399062Y364744D01*
X272697Y359664D02*
X272697Y346456D01*
X268294Y352326D02*
X272697Y359664D01*
X268294Y352326D02*
X263891Y359664D01*
X263891Y346456D01*
X257881Y346456D02*
X254212Y346456D01*
X254092Y346458D01*
X253972Y346464D01*
X253852Y346474D01*
X253733Y346487D01*
X253614Y346505D01*
X253496Y346526D01*
X253379Y346552D01*
X253262Y346581D01*
X253147Y346614D01*
X253033Y346651D01*
X252920Y346691D01*
X252808Y346735D01*
X252698Y346783D01*
X252589Y346834D01*
X252482Y346889D01*
X252378Y346948D01*
X252275Y347009D01*
X252174Y347074D01*
X252075Y347143D01*
X251978Y347214D01*
X251884Y347289D01*
X251793Y347366D01*
X251704Y347447D01*
X251618Y347531D01*
X251534Y347617D01*
X251453Y347706D01*
X251376Y347797D01*
X251301Y347891D01*
X251230Y347988D01*
X251161Y348087D01*
X251096Y348188D01*
X251035Y348291D01*
X250976Y348395D01*
X250921Y348502D01*
X250870Y348611D01*
X250822Y348721D01*
X250778Y348833D01*
X250738Y348946D01*
X250701Y349060D01*
X250668Y349175D01*
X250639Y349292D01*
X250613Y349409D01*
X250592Y349527D01*
X250574Y349646D01*
X250561Y349765D01*
X250551Y349885D01*
X250545Y350005D01*
X250543Y350125D01*
X250545Y350245D01*
X250551Y350365D01*
X250561Y350485D01*
X250574Y350604D01*
X250592Y350723D01*
X250613Y350841D01*
X250639Y350958D01*
X250668Y351075D01*
X250701Y351190D01*
X250738Y351304D01*
X250778Y351417D01*
X250822Y351529D01*
X250870Y351639D01*
X250921Y351748D01*
X250976Y351855D01*
X251035Y351960D01*
X251096Y352062D01*
X251161Y352163D01*
X251230Y352262D01*
X251301Y352359D01*
X251376Y352453D01*
X251453Y352544D01*
X251534Y352633D01*
X251618Y352719D01*
X251704Y352803D01*
X251793Y352884D01*
X251884Y352961D01*
X251978Y353036D01*
X252075Y353107D01*
X252174Y353176D01*
X252275Y353241D01*
X252378Y353302D01*
X252482Y353361D01*
X252589Y353416D01*
X252698Y353467D01*
X252808Y353515D01*
X252920Y353559D01*
X253033Y353599D01*
X253147Y353636D01*
X253262Y353669D01*
X253379Y353698D01*
X253496Y353724D01*
X253614Y353745D01*
X253733Y353763D01*
X253852Y353776D01*
X253972Y353786D01*
X254092Y353792D01*
X254212Y353794D01*
X253478Y359664D02*
X257881Y359664D01*
X253478Y359664D02*
X253371Y359662D01*
X253264Y359656D01*
X253157Y359646D01*
X253051Y359633D01*
X252945Y359615D01*
X252840Y359594D01*
X252736Y359569D01*
X252632Y359540D01*
X252530Y359507D01*
X252430Y359470D01*
X252330Y359430D01*
X252232Y359386D01*
X252136Y359339D01*
X252042Y359288D01*
X251949Y359234D01*
X251859Y359177D01*
X251770Y359116D01*
X251684Y359052D01*
X251601Y358985D01*
X251519Y358915D01*
X251441Y358842D01*
X251365Y358766D01*
X251292Y358688D01*
X251222Y358606D01*
X251155Y358523D01*
X251091Y358437D01*
X251030Y358348D01*
X250973Y358258D01*
X250919Y358165D01*
X250868Y358071D01*
X250821Y357975D01*
X250777Y357877D01*
X250737Y357777D01*
X250700Y357677D01*
X250667Y357575D01*
X250638Y357471D01*
X250613Y357367D01*
X250592Y357262D01*
X250574Y357156D01*
X250561Y357050D01*
X250551Y356943D01*
X250545Y356836D01*
X250543Y356729D01*
X250545Y356622D01*
X250551Y356515D01*
X250561Y356408D01*
X250574Y356302D01*
X250592Y356196D01*
X250613Y356091D01*
X250638Y355987D01*
X250667Y355883D01*
X250700Y355781D01*
X250737Y355681D01*
X250777Y355581D01*
X250821Y355483D01*
X250868Y355387D01*
X250919Y355293D01*
X250973Y355200D01*
X251030Y355110D01*
X251091Y355021D01*
X251155Y354935D01*
X251222Y354852D01*
X251292Y354770D01*
X251365Y354692D01*
X251441Y354616D01*
X251519Y354543D01*
X251601Y354473D01*
X251684Y354406D01*
X251770Y354342D01*
X251859Y354281D01*
X251949Y354224D01*
X252042Y354170D01*
X252136Y354119D01*
X252232Y354072D01*
X252330Y354028D01*
X252430Y353988D01*
X252530Y353951D01*
X252632Y353918D01*
X252736Y353889D01*
X252840Y353864D01*
X252945Y353843D01*
X253051Y353825D01*
X253157Y353812D01*
X253264Y353802D01*
X253371Y353796D01*
X253478Y353794D01*
X256414Y353794D01*
X280317Y378206D02*
X280317Y391414D01*
X275914Y384076D01*
X271511Y391414D01*
X271511Y378206D01*
X265501Y381141D02*
X262566Y391414D01*
X265501Y381141D02*
X258163Y381141D01*
X260365Y384076D02*
X260365Y378206D01*
D13*
X257810Y374650D02*
X268500Y374650D01*
X278500Y374650D02*
X289190Y374650D01*
X299190Y374650D02*
X309880Y374650D01*
X264690Y342900D02*
X251460Y342900D01*
X274690Y342900D02*
X287920Y342900D01*
X297920Y342900D02*
X311150Y342900D01*
X374650Y346710D02*
X389573Y346710D01*
X399573Y346710D02*
X414497Y346710D01*
X424497Y346710D02*
X439420Y346710D01*
M02*
