G04 EAGLE Gerber RS-274X export*
G75*
%MOMM*%
%FSLAX34Y34*%
%LPD*%
%INTop Copper*%
%IPPOS*%
%AMOC8*
5,1,8,0,0,1.08239X$1,22.5*%
G01*
%ADD10C,0.800000*%

G36*
X278630Y226508D02*
X278630Y226508D01*
X278658Y226506D01*
X278726Y226528D01*
X278797Y226542D01*
X278820Y226558D01*
X278847Y226567D01*
X278901Y226614D01*
X278961Y226655D01*
X278976Y226679D01*
X278997Y226697D01*
X279029Y226762D01*
X279068Y226822D01*
X279073Y226850D01*
X279085Y226875D01*
X279094Y226978D01*
X279101Y227019D01*
X279099Y227029D01*
X279100Y227041D01*
X278984Y228519D01*
X316815Y228519D01*
X316900Y228536D01*
X316985Y228548D01*
X316997Y228556D01*
X317011Y228558D01*
X317083Y228607D01*
X317157Y228652D01*
X317165Y228663D01*
X317177Y228671D01*
X317224Y228743D01*
X317275Y228814D01*
X317279Y228828D01*
X317286Y228839D01*
X317296Y228894D01*
X317320Y228988D01*
X317422Y230347D01*
X317413Y230417D01*
X317413Y230487D01*
X317401Y230518D01*
X317397Y230546D01*
X317372Y230590D01*
X317346Y230654D01*
X317343Y230659D01*
X317487Y231292D01*
X317488Y231326D01*
X317499Y231367D01*
X317547Y232014D01*
X317551Y232017D01*
X317595Y232073D01*
X317644Y232123D01*
X317657Y232153D01*
X317674Y232175D01*
X317688Y232225D01*
X317715Y232289D01*
X318242Y234599D01*
X318244Y234669D01*
X318254Y234739D01*
X318247Y234771D01*
X318247Y234799D01*
X318229Y234847D01*
X318213Y234914D01*
X318210Y234919D01*
X318447Y235523D01*
X318454Y235558D01*
X318470Y235596D01*
X318614Y236229D01*
X318619Y236231D01*
X318670Y236280D01*
X318727Y236322D01*
X318744Y236350D01*
X318764Y236370D01*
X318785Y236417D01*
X318821Y236476D01*
X319687Y238681D01*
X319699Y238751D01*
X319719Y238818D01*
X319717Y238851D01*
X319722Y238878D01*
X319710Y238929D01*
X319704Y238998D01*
X319703Y239003D01*
X320027Y239565D01*
X320039Y239598D01*
X320060Y239633D01*
X320297Y240237D01*
X320303Y240239D01*
X320360Y240280D01*
X320423Y240313D01*
X320444Y240338D01*
X320467Y240354D01*
X320494Y240398D01*
X320539Y240451D01*
X321724Y242502D01*
X321733Y242530D01*
X321736Y242535D01*
X321738Y242545D01*
X321746Y242569D01*
X321776Y242633D01*
X321779Y242666D01*
X321787Y242692D01*
X321784Y242744D01*
X321788Y242813D01*
X321788Y242818D01*
X322192Y243326D01*
X322208Y243357D01*
X322235Y243388D01*
X322559Y243950D01*
X322565Y243952D01*
X322628Y243983D01*
X322694Y244007D01*
X322719Y244028D01*
X322744Y244041D01*
X322778Y244080D01*
X322830Y244125D01*
X324307Y245978D01*
X324339Y246040D01*
X324379Y246099D01*
X324386Y246131D01*
X324399Y246156D01*
X324403Y246207D01*
X324417Y246275D01*
X324418Y246280D01*
X324893Y246722D01*
X324914Y246750D01*
X324945Y246777D01*
X325349Y247285D01*
X325355Y247285D01*
X325422Y247307D01*
X325491Y247320D01*
X325519Y247338D01*
X325546Y247347D01*
X325585Y247380D01*
X325643Y247418D01*
X327380Y249029D01*
X327421Y249086D01*
X327469Y249138D01*
X327481Y249169D01*
X327497Y249192D01*
X327509Y249242D01*
X327533Y249307D01*
X327534Y249312D01*
X328070Y249677D01*
X328095Y249702D01*
X328130Y249725D01*
X328605Y250166D01*
X328611Y250166D01*
X328680Y250177D01*
X328751Y250180D01*
X328781Y250194D01*
X328809Y250198D01*
X328852Y250225D01*
X328916Y250254D01*
X330873Y251588D01*
X330922Y251639D01*
X330977Y251683D01*
X330993Y251712D01*
X331013Y251732D01*
X331032Y251780D01*
X331066Y251840D01*
X331068Y251845D01*
X331653Y252127D01*
X331680Y252148D01*
X331718Y252165D01*
X332254Y252530D01*
X332260Y252529D01*
X332330Y252530D01*
X332401Y252522D01*
X332432Y252531D01*
X332460Y252531D01*
X332507Y252552D01*
X332574Y252570D01*
X334709Y253598D01*
X334765Y253641D01*
X334826Y253677D01*
X334846Y253702D01*
X334868Y253719D01*
X334894Y253764D01*
X334937Y253818D01*
X334940Y253823D01*
X335560Y254014D01*
X335590Y254031D01*
X335630Y254042D01*
X336215Y254324D01*
X336220Y254322D01*
X336290Y254312D01*
X336358Y254294D01*
X336391Y254298D01*
X336419Y254294D01*
X336469Y254308D01*
X336537Y254316D01*
X338801Y255014D01*
X338863Y255048D01*
X338929Y255074D01*
X338952Y255097D01*
X338977Y255110D01*
X339009Y255150D01*
X339060Y255198D01*
X339063Y255202D01*
X339704Y255299D01*
X339737Y255311D01*
X339778Y255316D01*
X340399Y255507D01*
X340403Y255504D01*
X340471Y255484D01*
X340536Y255457D01*
X340569Y255456D01*
X340596Y255448D01*
X340647Y255453D01*
X340716Y255451D01*
X343059Y255804D01*
X343125Y255829D01*
X343194Y255845D01*
X343221Y255863D01*
X343247Y255873D01*
X343285Y255908D01*
X343342Y255947D01*
X343346Y255951D01*
X343995Y255951D01*
X344029Y255958D01*
X344070Y255957D01*
X344712Y256054D01*
X344716Y256050D01*
X344780Y256021D01*
X344840Y255983D01*
X344872Y255977D01*
X344898Y255966D01*
X344949Y255964D01*
X345017Y255951D01*
X347387Y255951D01*
X347456Y255965D01*
X347526Y255971D01*
X347556Y255985D01*
X347583Y255991D01*
X347626Y256020D01*
X347688Y256050D01*
X347692Y256054D01*
X348334Y255957D01*
X348369Y255959D01*
X348409Y255951D01*
X349058Y255951D01*
X349062Y255947D01*
X349121Y255908D01*
X349175Y255862D01*
X349206Y255852D01*
X349229Y255836D01*
X349280Y255827D01*
X349345Y255804D01*
X351688Y255451D01*
X351759Y255455D01*
X351829Y255450D01*
X351860Y255460D01*
X351888Y255461D01*
X351935Y255484D01*
X352001Y255504D01*
X352005Y255507D01*
X352626Y255316D01*
X352660Y255312D01*
X352700Y255299D01*
X353341Y255202D01*
X353344Y255198D01*
X353397Y255150D01*
X353443Y255097D01*
X353472Y255082D01*
X353493Y255063D01*
X353542Y255046D01*
X353603Y255014D01*
X355867Y254316D01*
X355937Y254309D01*
X356006Y254294D01*
X356038Y254299D01*
X356066Y254296D01*
X356116Y254311D01*
X356184Y254322D01*
X356189Y254324D01*
X356774Y254042D01*
X356807Y254034D01*
X356844Y254014D01*
X357464Y253823D01*
X357467Y253818D01*
X357512Y253764D01*
X357550Y253704D01*
X357576Y253685D01*
X357594Y253663D01*
X357639Y253639D01*
X357695Y253598D01*
X359830Y252570D01*
X359898Y252553D01*
X359964Y252527D01*
X359997Y252528D01*
X360024Y252521D01*
X360075Y252528D01*
X360144Y252529D01*
X360150Y252530D01*
X360686Y252165D01*
X360718Y252151D01*
X360751Y252127D01*
X361336Y251845D01*
X361338Y251840D01*
X361374Y251779D01*
X361403Y251715D01*
X361426Y251692D01*
X361440Y251667D01*
X361482Y251637D01*
X361531Y251588D01*
X363488Y250254D01*
X363553Y250226D01*
X363615Y250191D01*
X363647Y250187D01*
X363673Y250176D01*
X363724Y250176D01*
X363793Y250166D01*
X363799Y250166D01*
X364274Y249725D01*
X364304Y249707D01*
X364334Y249677D01*
X364870Y249312D01*
X364871Y249307D01*
X364897Y249241D01*
X364916Y249173D01*
X364936Y249147D01*
X364946Y249121D01*
X364983Y249084D01*
X365024Y249029D01*
X366761Y247418D01*
X366821Y247381D01*
X366876Y247337D01*
X366908Y247328D01*
X366932Y247313D01*
X366983Y247305D01*
X367049Y247285D01*
X367055Y247285D01*
X367459Y246777D01*
X367486Y246755D01*
X367511Y246722D01*
X367986Y246280D01*
X367987Y246275D01*
X368003Y246206D01*
X368011Y246136D01*
X368027Y246107D01*
X368033Y246080D01*
X368064Y246039D01*
X368097Y245978D01*
X369574Y244125D01*
X369628Y244080D01*
X369676Y244029D01*
X369706Y244015D01*
X369727Y243997D01*
X369777Y243981D01*
X369839Y243952D01*
X369845Y243950D01*
X370169Y243388D01*
X370192Y243362D01*
X370212Y243326D01*
X370616Y242818D01*
X370616Y242813D01*
X370622Y242742D01*
X370620Y242672D01*
X370631Y242641D01*
X370633Y242613D01*
X370657Y242567D01*
X370680Y242502D01*
X371865Y240451D01*
X371912Y240398D01*
X371952Y240340D01*
X371979Y240321D01*
X371998Y240300D01*
X372044Y240278D01*
X372101Y240239D01*
X372107Y240237D01*
X372344Y239633D01*
X372362Y239604D01*
X372377Y239565D01*
X372701Y239003D01*
X372700Y238998D01*
X372695Y238927D01*
X372682Y238858D01*
X372689Y238826D01*
X372687Y238798D01*
X372704Y238749D01*
X372717Y238681D01*
X373583Y236476D01*
X373621Y236416D01*
X373652Y236353D01*
X373676Y236331D01*
X373691Y236307D01*
X373734Y236278D01*
X373785Y236231D01*
X373790Y236229D01*
X373934Y235596D01*
X373948Y235564D01*
X373957Y235523D01*
X374194Y234919D01*
X374191Y234914D01*
X374177Y234845D01*
X374154Y234779D01*
X374155Y234746D01*
X374149Y234718D01*
X374159Y234668D01*
X374162Y234599D01*
X374689Y232289D01*
X374718Y232225D01*
X374739Y232157D01*
X374760Y232132D01*
X374771Y232106D01*
X374809Y232071D01*
X374853Y232017D01*
X374857Y232014D01*
X374905Y231367D01*
X374915Y231333D01*
X374917Y231292D01*
X375061Y230659D01*
X375058Y230654D01*
X375033Y230588D01*
X375000Y230526D01*
X374997Y230493D01*
X374987Y230467D01*
X374989Y230415D01*
X374982Y230347D01*
X375084Y228988D01*
X375107Y228905D01*
X375126Y228820D01*
X375134Y228809D01*
X375138Y228795D01*
X375191Y228727D01*
X375242Y228657D01*
X375254Y228649D01*
X375262Y228638D01*
X375338Y228597D01*
X375412Y228551D01*
X375427Y228548D01*
X375438Y228542D01*
X375494Y228536D01*
X375589Y228519D01*
X413420Y228519D01*
X413304Y227041D01*
X413308Y227013D01*
X413303Y226985D01*
X413320Y226915D01*
X413329Y226844D01*
X413343Y226819D01*
X413349Y226792D01*
X413392Y226734D01*
X413428Y226671D01*
X413450Y226655D01*
X413467Y226632D01*
X413529Y226595D01*
X413587Y226552D01*
X413614Y226545D01*
X413638Y226530D01*
X413739Y226513D01*
X413779Y226503D01*
X413790Y226505D01*
X413802Y226503D01*
X432802Y226503D01*
X432831Y226509D01*
X432861Y226506D01*
X432928Y226528D01*
X432997Y226542D01*
X433022Y226559D01*
X433050Y226569D01*
X433103Y226615D01*
X433161Y226655D01*
X433177Y226680D01*
X433199Y226700D01*
X433245Y226786D01*
X433268Y226822D01*
X433270Y226834D01*
X433277Y226847D01*
X439177Y244947D01*
X439180Y244976D01*
X439191Y245002D01*
X439191Y245074D01*
X439199Y245145D01*
X439191Y245172D01*
X439191Y245201D01*
X439164Y245267D01*
X439143Y245336D01*
X439125Y245358D01*
X439114Y245384D01*
X439063Y245434D01*
X439017Y245489D01*
X438992Y245502D01*
X438972Y245522D01*
X438878Y245562D01*
X438841Y245582D01*
X438830Y245582D01*
X438818Y245587D01*
X437358Y245938D01*
X449038Y281895D01*
X449048Y281981D01*
X449063Y282066D01*
X449060Y282080D01*
X449061Y282094D01*
X449037Y282177D01*
X449018Y282261D01*
X449009Y282273D01*
X449005Y282286D01*
X448951Y282353D01*
X448900Y282424D01*
X448888Y282432D01*
X448879Y282442D01*
X448830Y282468D01*
X448748Y282521D01*
X447474Y283044D01*
X447405Y283057D01*
X447338Y283078D01*
X447305Y283076D01*
X447277Y283082D01*
X447227Y283071D01*
X447158Y283066D01*
X447153Y283065D01*
X446596Y283398D01*
X446563Y283410D01*
X446528Y283432D01*
X445928Y283678D01*
X445926Y283683D01*
X445886Y283742D01*
X445854Y283805D01*
X445829Y283826D01*
X445813Y283849D01*
X445770Y283878D01*
X445718Y283923D01*
X443688Y285137D01*
X443622Y285161D01*
X443558Y285192D01*
X443525Y285195D01*
X443499Y285204D01*
X443448Y285201D01*
X443379Y285207D01*
X443373Y285207D01*
X442872Y285619D01*
X442842Y285635D01*
X442810Y285663D01*
X442253Y285996D01*
X442252Y286001D01*
X442235Y286036D01*
X442234Y286044D01*
X442227Y286053D01*
X442222Y286065D01*
X442199Y286132D01*
X442178Y286157D01*
X442166Y286182D01*
X442127Y286216D01*
X442082Y286269D01*
X440256Y287772D01*
X440194Y287806D01*
X440136Y287846D01*
X440104Y287853D01*
X440079Y287867D01*
X440028Y287871D01*
X439961Y287887D01*
X439955Y287888D01*
X439521Y288370D01*
X439493Y288391D01*
X439467Y288422D01*
X438965Y288835D01*
X438965Y288840D01*
X438944Y288908D01*
X438932Y288977D01*
X438915Y289005D01*
X438907Y289032D01*
X438874Y289072D01*
X438837Y289131D01*
X437255Y290889D01*
X437199Y290931D01*
X437148Y290980D01*
X437117Y290992D01*
X437095Y291009D01*
X437045Y291021D01*
X436980Y291047D01*
X436975Y291048D01*
X436618Y291590D01*
X436593Y291614D01*
X436571Y291650D01*
X436137Y292132D01*
X436138Y292138D01*
X436128Y292208D01*
X436126Y292278D01*
X436113Y292308D01*
X436109Y292336D01*
X436082Y292380D01*
X436055Y292444D01*
X434753Y294419D01*
X434703Y294469D01*
X434660Y294524D01*
X434631Y294541D01*
X434612Y294561D01*
X434564Y294581D01*
X434504Y294616D01*
X434499Y294617D01*
X434227Y295206D01*
X434206Y295234D01*
X434190Y295273D01*
X433833Y295814D01*
X433834Y295820D01*
X433834Y295890D01*
X433843Y295960D01*
X433834Y295992D01*
X433834Y296020D01*
X433815Y296068D01*
X433797Y296135D01*
X432804Y298282D01*
X432762Y298338D01*
X432728Y298400D01*
X432702Y298421D01*
X432686Y298443D01*
X432641Y298470D01*
X432588Y298513D01*
X432583Y298516D01*
X432401Y299139D01*
X432385Y299170D01*
X432375Y299210D01*
X432102Y299799D01*
X432104Y299804D01*
X432115Y299874D01*
X432134Y299942D01*
X432130Y299974D01*
X432135Y300002D01*
X432122Y300052D01*
X432115Y300121D01*
X431453Y302392D01*
X431420Y302454D01*
X431395Y302520D01*
X431373Y302545D01*
X431360Y302569D01*
X431320Y302602D01*
X431273Y302653D01*
X431269Y302657D01*
X431182Y303300D01*
X431171Y303333D01*
X431166Y303374D01*
X430985Y303997D01*
X430988Y304002D01*
X431009Y304069D01*
X431037Y304133D01*
X431039Y304166D01*
X431047Y304193D01*
X431042Y304244D01*
X431045Y304313D01*
X430729Y306657D01*
X430706Y306724D01*
X430691Y306793D01*
X430673Y306820D01*
X430664Y306847D01*
X430629Y306885D01*
X430591Y306943D01*
X430587Y306947D01*
X430597Y307596D01*
X430591Y307630D01*
X430593Y307671D01*
X430506Y308314D01*
X430509Y308319D01*
X430540Y308382D01*
X430578Y308442D01*
X430585Y308474D01*
X430597Y308499D01*
X430600Y308550D01*
X430613Y308618D01*
X430650Y310983D01*
X430637Y311053D01*
X430632Y311123D01*
X430618Y311153D01*
X430613Y311180D01*
X430585Y311224D01*
X430555Y311286D01*
X430552Y311291D01*
X430659Y311931D01*
X430658Y311965D01*
X430666Y312006D01*
X430676Y312655D01*
X430680Y312659D01*
X430719Y312717D01*
X430766Y312770D01*
X430777Y312801D01*
X430793Y312824D01*
X430803Y312874D01*
X430827Y312940D01*
X431216Y315273D01*
X431213Y315343D01*
X431219Y315414D01*
X431210Y315445D01*
X431209Y315473D01*
X431187Y315520D01*
X431167Y315586D01*
X431165Y315591D01*
X431366Y316208D01*
X431370Y316243D01*
X431384Y316282D01*
X431490Y316922D01*
X431495Y316925D01*
X431543Y316977D01*
X431597Y317022D01*
X431613Y317051D01*
X431632Y317071D01*
X431650Y317120D01*
X431682Y317181D01*
X432415Y319430D01*
X432423Y319500D01*
X432439Y319569D01*
X432434Y319601D01*
X432438Y319629D01*
X432423Y319679D01*
X432414Y319747D01*
X432412Y319752D01*
X432702Y320332D01*
X432711Y320366D01*
X432731Y320403D01*
X432932Y321020D01*
X432937Y321022D01*
X432992Y321066D01*
X433052Y321103D01*
X433072Y321129D01*
X433094Y321147D01*
X433119Y321192D01*
X433160Y321247D01*
X434220Y323362D01*
X434238Y323430D01*
X434265Y323496D01*
X434265Y323528D01*
X434272Y323555D01*
X434265Y323607D01*
X434266Y323676D01*
X434265Y323681D01*
X434639Y324212D01*
X434653Y324243D01*
X434678Y324277D01*
X434968Y324857D01*
X434974Y324859D01*
X435035Y324894D01*
X435100Y324921D01*
X435123Y324944D01*
X435148Y324958D01*
X435179Y324999D01*
X435228Y325048D01*
X436591Y326981D01*
X436619Y327046D01*
X436655Y327107D01*
X436660Y327139D01*
X436672Y327165D01*
X436672Y327216D01*
X436683Y327284D01*
X436683Y327290D01*
X437132Y327759D01*
X437150Y327788D01*
X437180Y327817D01*
X437554Y328348D01*
X437559Y328349D01*
X437625Y328374D01*
X437693Y328392D01*
X437720Y328411D01*
X437746Y328421D01*
X437783Y328457D01*
X437839Y328498D01*
X439475Y330206D01*
X439512Y330266D01*
X439557Y330321D01*
X439567Y330352D01*
X439582Y330376D01*
X439590Y330427D01*
X439611Y330493D01*
X439612Y330498D01*
X440126Y330895D01*
X440148Y330921D01*
X440182Y330945D01*
X440631Y331414D01*
X440636Y331414D01*
X440705Y331430D01*
X440775Y331437D01*
X440804Y331452D01*
X440832Y331458D01*
X440874Y331488D01*
X440935Y331520D01*
X442807Y332966D01*
X442853Y333019D01*
X442906Y333067D01*
X442920Y333096D01*
X442938Y333117D01*
X442954Y333166D01*
X442985Y333229D01*
X442986Y333234D01*
X443553Y333549D01*
X443580Y333572D01*
X443617Y333591D01*
X444130Y333988D01*
X444136Y333987D01*
X444206Y333992D01*
X444277Y333989D01*
X444308Y333999D01*
X444336Y334001D01*
X444382Y334025D01*
X444447Y334047D01*
X446514Y335198D01*
X446567Y335244D01*
X446626Y335283D01*
X446645Y335310D01*
X446666Y335328D01*
X446689Y335374D01*
X446729Y335431D01*
X446731Y335436D01*
X447338Y335664D01*
X447368Y335682D01*
X447407Y335695D01*
X447974Y336011D01*
X447980Y336010D01*
X448050Y336004D01*
X448119Y335990D01*
X448151Y335996D01*
X448179Y335994D01*
X448228Y336010D01*
X448296Y336023D01*
X450511Y336852D01*
X450571Y336890D01*
X450635Y336920D01*
X450658Y336944D01*
X450681Y336958D01*
X450711Y337001D01*
X450759Y337051D01*
X450762Y337056D01*
X451396Y337190D01*
X451428Y337204D01*
X451469Y337211D01*
X452077Y337439D01*
X452082Y337437D01*
X452151Y337421D01*
X452217Y337397D01*
X452250Y337398D01*
X452277Y337391D01*
X452328Y337400D01*
X452397Y337402D01*
X454711Y337893D01*
X454776Y337921D01*
X454844Y337941D01*
X454869Y337961D01*
X454895Y337972D01*
X454931Y338009D01*
X454985Y338052D01*
X454989Y338056D01*
X455637Y338095D01*
X455670Y338104D01*
X455712Y338105D01*
X456347Y338239D01*
X456351Y338236D01*
X456417Y338210D01*
X456479Y338177D01*
X456511Y338173D01*
X456537Y338163D01*
X456589Y338164D01*
X456658Y338155D01*
X459019Y338295D01*
X459087Y338313D01*
X459157Y338323D01*
X459186Y338339D01*
X459213Y338347D01*
X459254Y338378D01*
X459314Y338412D01*
X459318Y338416D01*
X459964Y338357D01*
X459999Y338361D01*
X460040Y338356D01*
X460688Y338395D01*
X460692Y338391D01*
X460753Y338355D01*
X460809Y338313D01*
X460841Y338304D01*
X460865Y338290D01*
X460916Y338283D01*
X460983Y338265D01*
X463339Y338052D01*
X463409Y338059D01*
X463479Y338059D01*
X463510Y338070D01*
X463538Y338073D01*
X463583Y338098D01*
X463648Y338123D01*
X463652Y338126D01*
X464283Y337972D01*
X464317Y337970D01*
X464357Y337959D01*
X465004Y337901D01*
X465007Y337897D01*
X465062Y337852D01*
X465112Y337802D01*
X465142Y337789D01*
X465163Y337771D01*
X465213Y337757D01*
X465276Y337729D01*
X466578Y337410D01*
X466664Y337407D01*
X466751Y337399D01*
X466764Y337403D01*
X466778Y337402D01*
X466859Y337432D01*
X466942Y337458D01*
X466953Y337467D01*
X466966Y337472D01*
X467029Y337532D01*
X467095Y337588D01*
X467102Y337601D01*
X467112Y337609D01*
X467134Y337660D01*
X467181Y337746D01*
X478900Y373825D01*
X480311Y373241D01*
X480339Y373235D01*
X480365Y373222D01*
X480436Y373216D01*
X480506Y373203D01*
X480534Y373209D01*
X480563Y373206D01*
X480631Y373229D01*
X480701Y373244D01*
X480724Y373260D01*
X480752Y373270D01*
X480805Y373317D01*
X480864Y373358D01*
X480879Y373382D01*
X480901Y373401D01*
X480947Y373491D01*
X480969Y373527D01*
X480971Y373537D01*
X480977Y373549D01*
X486777Y391549D01*
X486780Y391577D01*
X486792Y391604D01*
X486791Y391675D01*
X486799Y391747D01*
X486791Y391774D01*
X486791Y391803D01*
X486763Y391869D01*
X486742Y391937D01*
X486724Y391959D01*
X486713Y391986D01*
X486643Y392058D01*
X486616Y392090D01*
X486606Y392095D01*
X486597Y392105D01*
X471297Y403305D01*
X471270Y403317D01*
X471248Y403336D01*
X471181Y403358D01*
X471116Y403388D01*
X471087Y403389D01*
X471059Y403398D01*
X470989Y403392D01*
X470918Y403394D01*
X470890Y403384D01*
X470861Y403381D01*
X470798Y403348D01*
X470732Y403322D01*
X470711Y403302D01*
X470686Y403288D01*
X470620Y403213D01*
X470590Y403183D01*
X470585Y403173D01*
X470576Y403163D01*
X469767Y401842D01*
X439103Y424123D01*
X439024Y424159D01*
X438947Y424200D01*
X438933Y424201D01*
X438921Y424207D01*
X438834Y424209D01*
X438747Y424217D01*
X438734Y424213D01*
X438720Y424213D01*
X438639Y424182D01*
X438556Y424155D01*
X438545Y424146D01*
X438533Y424141D01*
X438493Y424103D01*
X438417Y424041D01*
X437579Y423050D01*
X437545Y422989D01*
X437504Y422931D01*
X437496Y422899D01*
X437483Y422875D01*
X437477Y422824D01*
X437460Y422756D01*
X437460Y422751D01*
X436972Y422324D01*
X436951Y422296D01*
X436919Y422270D01*
X436499Y421774D01*
X436494Y421774D01*
X436426Y421754D01*
X436356Y421743D01*
X436328Y421726D01*
X436301Y421718D01*
X436261Y421686D01*
X436202Y421650D01*
X434420Y420091D01*
X434377Y420035D01*
X434328Y419984D01*
X434315Y419954D01*
X434298Y419931D01*
X434285Y419882D01*
X434258Y419818D01*
X434257Y419812D01*
X433711Y419463D01*
X433686Y419438D01*
X433650Y419417D01*
X433162Y418990D01*
X433156Y418990D01*
X433086Y418981D01*
X433015Y418980D01*
X432985Y418967D01*
X432957Y418964D01*
X432913Y418938D01*
X432849Y418911D01*
X430854Y417635D01*
X430811Y417593D01*
X430778Y417571D01*
X430773Y417562D01*
X430747Y417543D01*
X430730Y417515D01*
X430710Y417496D01*
X430690Y417448D01*
X430654Y417389D01*
X430652Y417384D01*
X430059Y417120D01*
X430031Y417099D01*
X429993Y417084D01*
X429446Y416734D01*
X429441Y416735D01*
X429370Y416736D01*
X429300Y416746D01*
X429268Y416738D01*
X429240Y416738D01*
X429192Y416719D01*
X429125Y416703D01*
X426962Y415738D01*
X426905Y415697D01*
X426843Y415663D01*
X426822Y415638D01*
X426799Y415622D01*
X426772Y415578D01*
X426728Y415525D01*
X426725Y415520D01*
X426100Y415347D01*
X426069Y415331D01*
X426028Y415321D01*
X425436Y415057D01*
X425431Y415059D01*
X425361Y415070D01*
X425293Y415090D01*
X425261Y415087D01*
X425233Y415092D01*
X425183Y415080D01*
X425114Y415074D01*
X422832Y414442D01*
X422768Y414410D01*
X422702Y414386D01*
X422678Y414364D01*
X422653Y414352D01*
X422619Y414312D01*
X422568Y414266D01*
X422564Y414262D01*
X421920Y414184D01*
X421887Y414173D01*
X421846Y414169D01*
X421220Y413996D01*
X421216Y413999D01*
X421148Y414021D01*
X421084Y414051D01*
X421052Y414053D01*
X421025Y414061D01*
X420974Y414057D01*
X420905Y414061D01*
X418554Y413777D01*
X418487Y413755D01*
X418417Y413740D01*
X418390Y413723D01*
X418363Y413714D01*
X418324Y413680D01*
X418266Y413642D01*
X418262Y413638D01*
X417614Y413657D01*
X417579Y413651D01*
X417538Y413654D01*
X416894Y413576D01*
X416890Y413579D01*
X416827Y413611D01*
X416768Y413650D01*
X416736Y413657D01*
X416711Y413669D01*
X416659Y413673D01*
X416591Y413687D01*
X414224Y413756D01*
X414155Y413744D01*
X414084Y413741D01*
X414054Y413727D01*
X414027Y413722D01*
X413983Y413695D01*
X413920Y413666D01*
X413916Y413663D01*
X413277Y413778D01*
X413242Y413777D01*
X413202Y413786D01*
X412553Y413805D01*
X412549Y413809D01*
X412492Y413850D01*
X412439Y413897D01*
X412409Y413908D01*
X412386Y413925D01*
X412335Y413936D01*
X412271Y413960D01*
X409940Y414381D01*
X409870Y414380D01*
X409799Y414387D01*
X409768Y414378D01*
X409740Y414377D01*
X409693Y414356D01*
X409626Y414337D01*
X409621Y414335D01*
X409007Y414544D01*
X408972Y414549D01*
X408934Y414563D01*
X408295Y414678D01*
X408292Y414683D01*
X408241Y414732D01*
X408196Y414786D01*
X408168Y414802D01*
X408147Y414822D01*
X408099Y414840D01*
X408039Y414874D01*
X405797Y415638D01*
X405727Y415647D01*
X405659Y415664D01*
X405626Y415660D01*
X405598Y415664D01*
X405549Y415650D01*
X405480Y415641D01*
X405475Y415639D01*
X404899Y415938D01*
X404865Y415947D01*
X404829Y415968D01*
X404215Y416177D01*
X404212Y416182D01*
X404169Y416238D01*
X404133Y416298D01*
X404107Y416318D01*
X404090Y416341D01*
X404045Y416366D01*
X403990Y416408D01*
X401888Y417498D01*
X401820Y417517D01*
X401755Y417544D01*
X401722Y417545D01*
X401695Y417553D01*
X401644Y417547D01*
X401575Y417548D01*
X401569Y417547D01*
X401044Y417928D01*
X401012Y417943D01*
X400979Y417968D01*
X400403Y418267D01*
X400402Y418272D01*
X400367Y418333D01*
X400341Y418399D01*
X400318Y418423D01*
X400304Y418447D01*
X400264Y418479D01*
X400216Y418529D01*
X398299Y419919D01*
X398235Y419949D01*
X398175Y419986D01*
X398142Y419991D01*
X398117Y420003D01*
X398065Y420004D01*
X397997Y420016D01*
X397991Y420016D01*
X397529Y420471D01*
X397500Y420490D01*
X397471Y420520D01*
X396946Y420901D01*
X396945Y420906D01*
X396920Y420973D01*
X396904Y421041D01*
X396885Y421068D01*
X396875Y421094D01*
X396840Y421132D01*
X396800Y421188D01*
X395111Y422849D01*
X395052Y422888D01*
X394998Y422933D01*
X394967Y422943D01*
X394944Y422959D01*
X394893Y422968D01*
X394827Y422990D01*
X394822Y422990D01*
X394432Y423509D01*
X394406Y423533D01*
X394382Y423566D01*
X393920Y424021D01*
X393920Y424027D01*
X393905Y424096D01*
X393899Y424166D01*
X393884Y424196D01*
X393878Y424223D01*
X393849Y424266D01*
X393818Y424327D01*
X392396Y426221D01*
X392343Y426268D01*
X392297Y426321D01*
X392267Y426336D01*
X392246Y426354D01*
X392198Y426371D01*
X392136Y426402D01*
X392131Y426404D01*
X391823Y426975D01*
X391801Y427002D01*
X391782Y427039D01*
X391392Y427558D01*
X391393Y427563D01*
X391389Y427634D01*
X391393Y427704D01*
X391383Y427736D01*
X391382Y427764D01*
X391359Y427810D01*
X391337Y427876D01*
X390214Y429960D01*
X390169Y430014D01*
X390130Y430074D01*
X390103Y430093D01*
X390086Y430114D01*
X390040Y430138D01*
X389983Y430178D01*
X389978Y430181D01*
X389759Y430791D01*
X389741Y430821D01*
X389728Y430861D01*
X389420Y431432D01*
X389422Y431437D01*
X389428Y431507D01*
X389443Y431576D01*
X389438Y431609D01*
X389440Y431637D01*
X389425Y431686D01*
X389413Y431754D01*
X388613Y433983D01*
X388576Y434043D01*
X388547Y434107D01*
X388524Y434130D01*
X388509Y434154D01*
X388467Y434185D01*
X388418Y434233D01*
X388413Y434236D01*
X388287Y434872D01*
X388274Y434905D01*
X388267Y434946D01*
X388048Y435556D01*
X388050Y435561D01*
X388067Y435630D01*
X388092Y435696D01*
X388091Y435729D01*
X388098Y435756D01*
X388090Y435807D01*
X388089Y435876D01*
X387629Y438199D01*
X387602Y438264D01*
X387583Y438332D01*
X387563Y438358D01*
X387553Y438384D01*
X387516Y438420D01*
X387474Y438475D01*
X387470Y438479D01*
X387440Y439127D01*
X387432Y439161D01*
X387431Y439203D01*
X387305Y439839D01*
X387308Y439844D01*
X387335Y439909D01*
X387370Y439970D01*
X387374Y440003D01*
X387385Y440029D01*
X387384Y440080D01*
X387393Y440149D01*
X387285Y442515D01*
X387268Y442583D01*
X387259Y442653D01*
X387244Y442682D01*
X387237Y442709D01*
X387206Y442751D01*
X387173Y442811D01*
X387169Y442815D01*
X387237Y443461D01*
X387233Y443495D01*
X387239Y443536D01*
X387209Y444185D01*
X387213Y444189D01*
X387249Y444249D01*
X387293Y444305D01*
X387302Y444337D01*
X387316Y444361D01*
X387323Y444412D01*
X387343Y444478D01*
X387589Y446833D01*
X387582Y446904D01*
X387584Y446974D01*
X387572Y447005D01*
X387570Y447033D01*
X387545Y447078D01*
X387521Y447143D01*
X387518Y447148D01*
X387681Y447776D01*
X387683Y447811D01*
X387695Y447851D01*
X387762Y448496D01*
X387766Y448500D01*
X387811Y448554D01*
X387862Y448603D01*
X387876Y448633D01*
X387894Y448654D01*
X387909Y448704D01*
X387938Y448766D01*
X388532Y451059D01*
X388536Y451129D01*
X388548Y451199D01*
X388541Y451231D01*
X388543Y451259D01*
X388525Y451308D01*
X388511Y451375D01*
X388509Y451380D01*
X388764Y451977D01*
X388771Y452011D01*
X388779Y452029D01*
X388789Y452049D01*
X388951Y452677D01*
X388956Y452680D01*
X389009Y452727D01*
X389066Y452768D01*
X389084Y452795D01*
X389105Y452814D01*
X389127Y452860D01*
X389165Y452918D01*
X390094Y455096D01*
X390109Y455166D01*
X390131Y455233D01*
X390129Y455265D01*
X390135Y455293D01*
X390125Y455343D01*
X390121Y455412D01*
X390120Y455418D01*
X390461Y455970D01*
X390473Y456002D01*
X390496Y456037D01*
X390750Y456634D01*
X390755Y456636D01*
X390815Y456675D01*
X390878Y456706D01*
X390900Y456731D01*
X390923Y456746D01*
X390952Y456789D01*
X390998Y456841D01*
X391704Y457985D01*
X391734Y458066D01*
X391768Y458145D01*
X391768Y458159D01*
X391773Y458173D01*
X391770Y458259D01*
X391771Y458346D01*
X391765Y458359D01*
X391765Y458373D01*
X391728Y458451D01*
X391695Y458531D01*
X391685Y458542D01*
X391679Y458554D01*
X391637Y458591D01*
X391570Y458661D01*
X360972Y480895D01*
X361982Y482078D01*
X361996Y482103D01*
X362016Y482124D01*
X362044Y482189D01*
X362078Y482252D01*
X362081Y482281D01*
X362092Y482307D01*
X362092Y482379D01*
X362099Y482449D01*
X362091Y482477D01*
X362090Y482506D01*
X362062Y482572D01*
X362041Y482640D01*
X362022Y482662D01*
X362011Y482689D01*
X361941Y482760D01*
X361914Y482792D01*
X361904Y482797D01*
X361894Y482807D01*
X346494Y493907D01*
X346468Y493919D01*
X346447Y493937D01*
X346378Y493959D01*
X346313Y493989D01*
X346284Y493989D01*
X346257Y493998D01*
X346186Y493992D01*
X346114Y493993D01*
X346088Y493983D01*
X346059Y493980D01*
X345968Y493936D01*
X345929Y493920D01*
X345922Y493913D01*
X345910Y493907D01*
X330510Y482807D01*
X330490Y482786D01*
X330465Y482771D01*
X330423Y482713D01*
X330375Y482661D01*
X330365Y482634D01*
X330348Y482610D01*
X330332Y482541D01*
X330308Y482474D01*
X330310Y482445D01*
X330303Y482416D01*
X330315Y482346D01*
X330319Y482275D01*
X330332Y482249D01*
X330337Y482221D01*
X330388Y482135D01*
X330407Y482097D01*
X330415Y482090D01*
X330422Y482078D01*
X331432Y480895D01*
X300834Y458661D01*
X300775Y458598D01*
X300713Y458537D01*
X300708Y458524D01*
X300698Y458514D01*
X300669Y458433D01*
X300635Y458353D01*
X300635Y458339D01*
X300630Y458325D01*
X300635Y458239D01*
X300634Y458152D01*
X300640Y458138D01*
X300640Y458125D01*
X300665Y458075D01*
X300700Y457985D01*
X301406Y456841D01*
X301454Y456789D01*
X301496Y456732D01*
X301524Y456715D01*
X301543Y456694D01*
X301590Y456673D01*
X301649Y456636D01*
X301654Y456634D01*
X301908Y456037D01*
X301928Y456008D01*
X301943Y455970D01*
X302284Y455418D01*
X302283Y455412D01*
X302280Y455342D01*
X302269Y455272D01*
X302277Y455240D01*
X302276Y455212D01*
X302294Y455164D01*
X302310Y455096D01*
X303239Y452918D01*
X303279Y452860D01*
X303311Y452797D01*
X303336Y452776D01*
X303352Y452753D01*
X303396Y452725D01*
X303448Y452680D01*
X303453Y452677D01*
X303615Y452049D01*
X303631Y452018D01*
X303640Y451977D01*
X303895Y451380D01*
X303893Y451375D01*
X303880Y451306D01*
X303859Y451238D01*
X303861Y451206D01*
X303856Y451178D01*
X303867Y451128D01*
X303872Y451059D01*
X304466Y448766D01*
X304497Y448703D01*
X304520Y448636D01*
X304542Y448611D01*
X304554Y448586D01*
X304593Y448552D01*
X304638Y448500D01*
X304642Y448496D01*
X304709Y447851D01*
X304720Y447818D01*
X304723Y447776D01*
X304886Y447148D01*
X304883Y447143D01*
X304860Y447077D01*
X304829Y447013D01*
X304826Y446980D01*
X304817Y446954D01*
X304821Y446903D01*
X304815Y446833D01*
X305061Y444478D01*
X305082Y444411D01*
X305095Y444341D01*
X305113Y444314D01*
X305121Y444287D01*
X305154Y444247D01*
X305191Y444189D01*
X305195Y444185D01*
X305165Y443536D01*
X305171Y443502D01*
X305167Y443461D01*
X305235Y442815D01*
X305231Y442811D01*
X305199Y442749D01*
X305159Y442690D01*
X305151Y442658D01*
X305138Y442634D01*
X305134Y442582D01*
X305119Y442515D01*
X305011Y440149D01*
X305021Y440079D01*
X305024Y440009D01*
X305037Y439979D01*
X305041Y439951D01*
X305068Y439907D01*
X305096Y439844D01*
X305099Y439839D01*
X304973Y439203D01*
X304973Y439168D01*
X304964Y439127D01*
X304934Y438479D01*
X304930Y438475D01*
X304889Y438418D01*
X304840Y438367D01*
X304828Y438336D01*
X304812Y438313D01*
X304800Y438263D01*
X304775Y438199D01*
X304315Y435876D01*
X304315Y435805D01*
X304307Y435735D01*
X304316Y435704D01*
X304316Y435675D01*
X304336Y435628D01*
X304354Y435561D01*
X304356Y435556D01*
X304137Y434946D01*
X304132Y434911D01*
X304117Y434872D01*
X303991Y434236D01*
X303986Y434233D01*
X303937Y434183D01*
X303881Y434139D01*
X303865Y434110D01*
X303845Y434090D01*
X303826Y434043D01*
X303791Y433983D01*
X302991Y431754D01*
X302980Y431684D01*
X302962Y431616D01*
X302966Y431583D01*
X302962Y431556D01*
X302974Y431506D01*
X302982Y431437D01*
X302984Y431432D01*
X302676Y430861D01*
X302666Y430827D01*
X302645Y430791D01*
X302426Y430181D01*
X302421Y430178D01*
X302364Y430136D01*
X302303Y430101D01*
X302282Y430075D01*
X302260Y430059D01*
X302233Y430014D01*
X302190Y429960D01*
X301067Y427876D01*
X301046Y427808D01*
X301018Y427744D01*
X301016Y427711D01*
X301008Y427684D01*
X301014Y427633D01*
X301011Y427563D01*
X301012Y427558D01*
X300622Y427039D01*
X300607Y427008D01*
X300581Y426975D01*
X300273Y426404D01*
X300268Y426402D01*
X300206Y426369D01*
X300140Y426344D01*
X300116Y426321D01*
X300091Y426308D01*
X300059Y426268D01*
X300008Y426221D01*
X298586Y424327D01*
X298556Y424264D01*
X298518Y424204D01*
X298512Y424172D01*
X298500Y424146D01*
X298497Y424095D01*
X298485Y424027D01*
X298484Y424022D01*
X298022Y423566D01*
X298002Y423538D01*
X297972Y423509D01*
X297582Y422990D01*
X297577Y422990D01*
X297510Y422966D01*
X297441Y422951D01*
X297414Y422932D01*
X297388Y422923D01*
X297350Y422888D01*
X297293Y422849D01*
X295604Y421188D01*
X295565Y421130D01*
X295519Y421077D01*
X295508Y421046D01*
X295492Y421022D01*
X295482Y420972D01*
X295459Y420906D01*
X295458Y420901D01*
X294933Y420520D01*
X294909Y420494D01*
X294875Y420471D01*
X294413Y420016D01*
X294407Y420016D01*
X294338Y420003D01*
X294267Y419998D01*
X294238Y419983D01*
X294210Y419978D01*
X294167Y419949D01*
X294105Y419919D01*
X292188Y418529D01*
X292140Y418477D01*
X292087Y418431D01*
X292071Y418402D01*
X292052Y418381D01*
X292035Y418333D01*
X292002Y418272D01*
X292001Y418267D01*
X291425Y417968D01*
X291398Y417946D01*
X291360Y417928D01*
X290835Y417547D01*
X290829Y417548D01*
X290759Y417545D01*
X290688Y417551D01*
X290657Y417541D01*
X290629Y417540D01*
X290583Y417518D01*
X290516Y417498D01*
X288414Y416408D01*
X288359Y416364D01*
X288299Y416327D01*
X288279Y416300D01*
X288257Y416283D01*
X288233Y416237D01*
X288192Y416182D01*
X288189Y416177D01*
X287575Y415968D01*
X287545Y415950D01*
X287505Y415938D01*
X286929Y415639D01*
X286924Y415641D01*
X286854Y415649D01*
X286785Y415665D01*
X286753Y415660D01*
X286725Y415663D01*
X286675Y415648D01*
X286607Y415638D01*
X284365Y414874D01*
X284304Y414838D01*
X284239Y414810D01*
X284216Y414787D01*
X284192Y414773D01*
X284161Y414732D01*
X284112Y414683D01*
X284109Y414678D01*
X283470Y414563D01*
X283438Y414550D01*
X283397Y414544D01*
X282783Y414335D01*
X282778Y414337D01*
X282710Y414355D01*
X282644Y414381D01*
X282611Y414381D01*
X282584Y414388D01*
X282533Y414381D01*
X282464Y414381D01*
X280133Y413960D01*
X280068Y413934D01*
X280000Y413916D01*
X279973Y413896D01*
X279947Y413886D01*
X279910Y413850D01*
X279855Y413809D01*
X279851Y413805D01*
X279202Y413786D01*
X279168Y413778D01*
X279127Y413778D01*
X278488Y413663D01*
X278484Y413666D01*
X278419Y413694D01*
X278358Y413729D01*
X278326Y413734D01*
X278300Y413745D01*
X278248Y413746D01*
X278180Y413756D01*
X275813Y413687D01*
X275744Y413671D01*
X275674Y413663D01*
X275645Y413648D01*
X275617Y413642D01*
X275575Y413611D01*
X275514Y413579D01*
X275510Y413576D01*
X274866Y413654D01*
X274831Y413651D01*
X274790Y413657D01*
X274142Y413638D01*
X274138Y413642D01*
X274078Y413679D01*
X274023Y413724D01*
X273991Y413733D01*
X273967Y413748D01*
X273916Y413756D01*
X273850Y413777D01*
X271499Y414061D01*
X271429Y414056D01*
X271359Y414059D01*
X271328Y414048D01*
X271300Y414045D01*
X271254Y414022D01*
X271188Y413999D01*
X271184Y413996D01*
X270558Y414169D01*
X270523Y414172D01*
X270484Y414184D01*
X269840Y414262D01*
X269836Y414266D01*
X269783Y414312D01*
X269735Y414364D01*
X269705Y414378D01*
X269684Y414397D01*
X269635Y414412D01*
X269572Y414442D01*
X267290Y415074D01*
X267220Y415079D01*
X267150Y415092D01*
X267118Y415086D01*
X267090Y415088D01*
X267041Y415072D01*
X266973Y415059D01*
X266968Y415057D01*
X266376Y415321D01*
X266342Y415329D01*
X266304Y415347D01*
X265679Y415520D01*
X265676Y415525D01*
X265630Y415578D01*
X265590Y415636D01*
X265563Y415655D01*
X265545Y415676D01*
X265499Y415699D01*
X265442Y415738D01*
X263279Y416703D01*
X263210Y416718D01*
X263143Y416742D01*
X263111Y416740D01*
X263083Y416747D01*
X263032Y416738D01*
X262963Y416735D01*
X262958Y416734D01*
X262411Y417084D01*
X262379Y417096D01*
X262345Y417120D01*
X261752Y417384D01*
X261750Y417389D01*
X261712Y417449D01*
X261682Y417512D01*
X261658Y417535D01*
X261643Y417558D01*
X261618Y417576D01*
X261611Y417585D01*
X261587Y417600D01*
X261550Y417635D01*
X259555Y418911D01*
X259489Y418937D01*
X259427Y418970D01*
X259394Y418974D01*
X259368Y418984D01*
X259317Y418982D01*
X259248Y418990D01*
X259242Y418990D01*
X258754Y419417D01*
X258724Y419434D01*
X258693Y419463D01*
X258147Y419812D01*
X258146Y419818D01*
X258117Y419882D01*
X258097Y419950D01*
X258076Y419976D01*
X258065Y420001D01*
X258027Y420037D01*
X257984Y420091D01*
X256202Y421650D01*
X256141Y421685D01*
X256084Y421727D01*
X256053Y421736D01*
X256028Y421750D01*
X255977Y421756D01*
X255910Y421774D01*
X255905Y421774D01*
X255485Y422270D01*
X255458Y422291D01*
X255432Y422324D01*
X254944Y422751D01*
X254944Y422756D01*
X254925Y422825D01*
X254915Y422894D01*
X254898Y422923D01*
X254891Y422950D01*
X254859Y422991D01*
X254825Y423050D01*
X253987Y424041D01*
X253919Y424094D01*
X253853Y424152D01*
X253840Y424156D01*
X253829Y424165D01*
X253746Y424188D01*
X253663Y424216D01*
X253650Y424215D01*
X253636Y424219D01*
X253550Y424208D01*
X253463Y424202D01*
X253450Y424195D01*
X253437Y424194D01*
X253389Y424166D01*
X253301Y424123D01*
X222637Y401842D01*
X221828Y403163D01*
X221808Y403184D01*
X221795Y403210D01*
X221741Y403256D01*
X221692Y403308D01*
X221666Y403320D01*
X221643Y403339D01*
X221576Y403360D01*
X221511Y403389D01*
X221482Y403390D01*
X221454Y403399D01*
X221383Y403392D01*
X221312Y403393D01*
X221285Y403382D01*
X221256Y403379D01*
X221167Y403335D01*
X221127Y403319D01*
X221119Y403311D01*
X221107Y403305D01*
X205807Y392105D01*
X205788Y392084D01*
X205763Y392069D01*
X205722Y392011D01*
X205673Y391958D01*
X205664Y391931D01*
X205647Y391907D01*
X205631Y391838D01*
X205607Y391770D01*
X205609Y391742D01*
X205603Y391714D01*
X205617Y391614D01*
X205620Y391572D01*
X205625Y391562D01*
X205627Y391549D01*
X211427Y373549D01*
X211441Y373524D01*
X211447Y373496D01*
X211489Y373438D01*
X211524Y373376D01*
X211547Y373358D01*
X211564Y373335D01*
X211625Y373298D01*
X211682Y373254D01*
X211709Y373247D01*
X211734Y373232D01*
X211805Y373222D01*
X211874Y373204D01*
X211902Y373208D01*
X211931Y373204D01*
X212029Y373226D01*
X212071Y373232D01*
X212080Y373238D01*
X212093Y373241D01*
X213504Y373825D01*
X225223Y337746D01*
X225266Y337671D01*
X225304Y337593D01*
X225315Y337584D01*
X225322Y337572D01*
X225390Y337518D01*
X225456Y337462D01*
X225469Y337457D01*
X225480Y337449D01*
X225564Y337426D01*
X225646Y337399D01*
X225661Y337400D01*
X225674Y337397D01*
X225729Y337404D01*
X225826Y337410D01*
X227128Y337729D01*
X227192Y337759D01*
X227259Y337781D01*
X227284Y337802D01*
X227309Y337814D01*
X227344Y337852D01*
X227397Y337897D01*
X227400Y337901D01*
X228047Y337959D01*
X228080Y337969D01*
X228121Y337972D01*
X228752Y338126D01*
X228756Y338123D01*
X228823Y338099D01*
X228886Y338068D01*
X228919Y338065D01*
X228945Y338055D01*
X228996Y338058D01*
X229065Y338052D01*
X231421Y338265D01*
X231489Y338285D01*
X231558Y338297D01*
X231586Y338314D01*
X231613Y338322D01*
X231653Y338355D01*
X231712Y338391D01*
X231716Y338395D01*
X232364Y338356D01*
X232398Y338361D01*
X232440Y338357D01*
X233086Y338416D01*
X233090Y338412D01*
X233152Y338379D01*
X233210Y338338D01*
X233242Y338330D01*
X233267Y338317D01*
X233318Y338312D01*
X233385Y338295D01*
X235746Y338155D01*
X235816Y338165D01*
X235887Y338167D01*
X235917Y338179D01*
X235945Y338183D01*
X235989Y338210D01*
X236053Y338236D01*
X236057Y338239D01*
X236692Y338105D01*
X236727Y338104D01*
X236767Y338095D01*
X237415Y338056D01*
X237419Y338052D01*
X237475Y338010D01*
X237526Y337961D01*
X237557Y337948D01*
X237579Y337932D01*
X237629Y337919D01*
X237693Y337893D01*
X240007Y337402D01*
X240077Y337402D01*
X240147Y337392D01*
X240179Y337401D01*
X240207Y337400D01*
X240255Y337420D01*
X240322Y337437D01*
X240327Y337439D01*
X240935Y337211D01*
X240969Y337206D01*
X241008Y337190D01*
X241642Y337056D01*
X241645Y337051D01*
X241695Y337001D01*
X241738Y336945D01*
X241766Y336928D01*
X241786Y336908D01*
X241833Y336888D01*
X241893Y336852D01*
X244108Y336023D01*
X244177Y336011D01*
X244245Y335992D01*
X244278Y335995D01*
X244305Y335991D01*
X244356Y336003D01*
X244424Y336010D01*
X244430Y336011D01*
X244997Y335695D01*
X245030Y335685D01*
X245066Y335664D01*
X245673Y335436D01*
X245675Y335431D01*
X245717Y335374D01*
X245751Y335312D01*
X245776Y335291D01*
X245793Y335269D01*
X245837Y335242D01*
X245890Y335198D01*
X247957Y334047D01*
X248024Y334026D01*
X248088Y333996D01*
X248121Y333995D01*
X248148Y333986D01*
X248199Y333991D01*
X248268Y333987D01*
X248274Y333988D01*
X248787Y333591D01*
X248819Y333576D01*
X248851Y333549D01*
X249418Y333234D01*
X249419Y333228D01*
X249451Y333166D01*
X249476Y333100D01*
X249498Y333075D01*
X249511Y333050D01*
X249551Y333017D01*
X249597Y332966D01*
X251469Y331520D01*
X251532Y331489D01*
X251591Y331450D01*
X251623Y331444D01*
X251649Y331431D01*
X251700Y331428D01*
X251768Y331414D01*
X251773Y331414D01*
X252222Y330945D01*
X252251Y330925D01*
X252278Y330895D01*
X252792Y330498D01*
X252793Y330493D01*
X252815Y330426D01*
X252830Y330357D01*
X252848Y330329D01*
X252857Y330303D01*
X252891Y330264D01*
X252929Y330206D01*
X254565Y328498D01*
X254623Y328457D01*
X254676Y328410D01*
X254706Y328399D01*
X254729Y328383D01*
X254780Y328372D01*
X254845Y328349D01*
X254850Y328348D01*
X255224Y327817D01*
X255249Y327793D01*
X255272Y327759D01*
X255721Y327290D01*
X255721Y327284D01*
X255733Y327215D01*
X255737Y327145D01*
X255751Y327115D01*
X255756Y327087D01*
X255784Y327044D01*
X255813Y326981D01*
X257176Y325048D01*
X257227Y324999D01*
X257272Y324945D01*
X257301Y324929D01*
X257321Y324910D01*
X257370Y324892D01*
X257430Y324859D01*
X257436Y324857D01*
X257726Y324277D01*
X257748Y324249D01*
X257765Y324212D01*
X258139Y323681D01*
X258138Y323676D01*
X258140Y323605D01*
X258134Y323535D01*
X258143Y323503D01*
X258144Y323475D01*
X258165Y323428D01*
X258184Y323362D01*
X259244Y321247D01*
X259287Y321192D01*
X259324Y321131D01*
X259350Y321111D01*
X259367Y321089D01*
X259412Y321064D01*
X259467Y321022D01*
X259472Y321020D01*
X259673Y320403D01*
X259690Y320372D01*
X259702Y320332D01*
X259992Y319752D01*
X259990Y319747D01*
X259982Y319677D01*
X259965Y319608D01*
X259969Y319576D01*
X259966Y319548D01*
X259980Y319498D01*
X259989Y319430D01*
X260722Y317181D01*
X260756Y317119D01*
X260783Y317054D01*
X260806Y317031D01*
X260820Y317006D01*
X260861Y316975D01*
X260909Y316925D01*
X260914Y316922D01*
X261020Y316282D01*
X261033Y316249D01*
X261038Y316208D01*
X261239Y315591D01*
X261237Y315586D01*
X261218Y315518D01*
X261191Y315453D01*
X261190Y315420D01*
X261183Y315393D01*
X261189Y315342D01*
X261188Y315273D01*
X261577Y312940D01*
X261602Y312874D01*
X261619Y312805D01*
X261639Y312779D01*
X261649Y312752D01*
X261684Y312715D01*
X261725Y312659D01*
X261728Y312655D01*
X261738Y312006D01*
X261746Y311972D01*
X261745Y311931D01*
X261852Y311291D01*
X261849Y311286D01*
X261820Y311222D01*
X261784Y311161D01*
X261778Y311129D01*
X261767Y311103D01*
X261766Y311052D01*
X261754Y310983D01*
X261791Y308618D01*
X261806Y308549D01*
X261813Y308479D01*
X261828Y308450D01*
X261834Y308422D01*
X261863Y308380D01*
X261895Y308319D01*
X261898Y308314D01*
X261811Y307671D01*
X261813Y307641D01*
X261813Y307639D01*
X261814Y307638D01*
X261814Y307637D01*
X261807Y307596D01*
X261817Y306947D01*
X261813Y306943D01*
X261775Y306883D01*
X261730Y306829D01*
X261720Y306798D01*
X261705Y306774D01*
X261696Y306723D01*
X261675Y306657D01*
X261358Y304313D01*
X261363Y304243D01*
X261359Y304172D01*
X261370Y304141D01*
X261371Y304113D01*
X261395Y304067D01*
X261416Y304001D01*
X261419Y303997D01*
X261237Y303374D01*
X261235Y303339D01*
X261222Y303300D01*
X261135Y302657D01*
X261131Y302653D01*
X261084Y302600D01*
X261032Y302553D01*
X261017Y302524D01*
X260998Y302503D01*
X260982Y302454D01*
X260951Y302392D01*
X260289Y300121D01*
X260283Y300051D01*
X260269Y299981D01*
X260275Y299949D01*
X260272Y299921D01*
X260288Y299872D01*
X260300Y299804D01*
X260302Y299799D01*
X260029Y299210D01*
X260021Y299176D01*
X260003Y299139D01*
X259821Y298516D01*
X259816Y298513D01*
X259763Y298468D01*
X259703Y298429D01*
X259685Y298402D01*
X259663Y298384D01*
X259640Y298338D01*
X259600Y298282D01*
X258607Y296135D01*
X258590Y296066D01*
X258566Y296000D01*
X258567Y295967D01*
X258560Y295940D01*
X258569Y295889D01*
X258570Y295820D01*
X258571Y295814D01*
X258214Y295273D01*
X258201Y295240D01*
X258177Y295206D01*
X257905Y294617D01*
X257900Y294616D01*
X257840Y294579D01*
X257776Y294549D01*
X257753Y294525D01*
X257729Y294511D01*
X257699Y294469D01*
X257651Y294419D01*
X256349Y292444D01*
X256323Y292378D01*
X256289Y292317D01*
X256285Y292284D01*
X256274Y292258D01*
X256275Y292206D01*
X256266Y292138D01*
X256267Y292132D01*
X255833Y291650D01*
X255815Y291620D01*
X255786Y291590D01*
X255429Y291048D01*
X255424Y291047D01*
X255359Y291019D01*
X255291Y291000D01*
X255265Y290980D01*
X255239Y290969D01*
X255203Y290932D01*
X255149Y290889D01*
X253567Y289131D01*
X253531Y289070D01*
X253488Y289014D01*
X253479Y288982D01*
X253465Y288958D01*
X253458Y288907D01*
X253439Y288840D01*
X253439Y288835D01*
X252937Y288422D01*
X252916Y288395D01*
X252883Y288370D01*
X252449Y287888D01*
X252443Y287887D01*
X252375Y287870D01*
X252305Y287860D01*
X252276Y287844D01*
X252249Y287837D01*
X252208Y287806D01*
X252148Y287772D01*
X250322Y286269D01*
X250277Y286214D01*
X250226Y286165D01*
X250213Y286135D01*
X250195Y286114D01*
X250181Y286064D01*
X250164Y286027D01*
X250162Y286025D01*
X250162Y286024D01*
X250152Y286001D01*
X250151Y285996D01*
X249594Y285663D01*
X249568Y285639D01*
X249532Y285619D01*
X249031Y285207D01*
X249025Y285207D01*
X248955Y285200D01*
X248885Y285201D01*
X248854Y285189D01*
X248826Y285187D01*
X248781Y285162D01*
X248716Y285137D01*
X246686Y283923D01*
X246634Y283876D01*
X246576Y283835D01*
X246559Y283807D01*
X246538Y283788D01*
X246516Y283742D01*
X246478Y283683D01*
X246476Y283678D01*
X245876Y283432D01*
X245847Y283413D01*
X245808Y283398D01*
X245251Y283065D01*
X245246Y283066D01*
X245176Y283070D01*
X245106Y283081D01*
X245074Y283074D01*
X245046Y283076D01*
X244997Y283058D01*
X244930Y283044D01*
X243656Y282521D01*
X243584Y282473D01*
X243509Y282429D01*
X243501Y282417D01*
X243489Y282409D01*
X243441Y282337D01*
X243390Y282268D01*
X243386Y282254D01*
X243378Y282242D01*
X243362Y282157D01*
X243341Y282073D01*
X243344Y282058D01*
X243341Y282045D01*
X243353Y281991D01*
X243366Y281895D01*
X255046Y245938D01*
X253586Y245587D01*
X253560Y245575D01*
X253532Y245571D01*
X253470Y245534D01*
X253405Y245504D01*
X253386Y245482D01*
X253362Y245468D01*
X253320Y245409D01*
X253272Y245356D01*
X253263Y245329D01*
X253246Y245306D01*
X253231Y245236D01*
X253207Y245168D01*
X253209Y245140D01*
X253203Y245112D01*
X253218Y245012D01*
X253221Y244970D01*
X253225Y244960D01*
X253227Y244947D01*
X259127Y226847D01*
X259142Y226821D01*
X259149Y226792D01*
X259191Y226735D01*
X259225Y226674D01*
X259249Y226656D01*
X259267Y226632D01*
X259327Y226596D01*
X259383Y226553D01*
X259412Y226546D01*
X259438Y226530D01*
X259534Y226514D01*
X259576Y226503D01*
X259588Y226505D01*
X259602Y226503D01*
X278602Y226503D01*
X278630Y226508D01*
G37*
%LPC*%
G36*
X332886Y264980D02*
X332886Y264980D01*
X315737Y269741D01*
X300013Y278078D01*
X286448Y289600D01*
X275677Y303768D01*
X268204Y319921D01*
X264378Y337303D01*
X264378Y355101D01*
X268204Y372483D01*
X275677Y388636D01*
X286448Y402804D01*
X300013Y414326D01*
X315737Y422663D01*
X332886Y427424D01*
X350658Y428388D01*
X368221Y425508D01*
X384755Y418921D01*
X399486Y408933D01*
X411726Y396012D01*
X420901Y380762D01*
X426584Y363896D01*
X428508Y346202D01*
X426584Y328509D01*
X420901Y311643D01*
X411726Y296392D01*
X399486Y283471D01*
X384755Y273483D01*
X368221Y266896D01*
X350658Y264016D01*
X332886Y264980D01*
G37*
%LPD*%
G36*
X373229Y226508D02*
X373229Y226508D01*
X373256Y226506D01*
X373325Y226528D01*
X373397Y226542D01*
X373419Y226558D01*
X373445Y226566D01*
X373501Y226614D01*
X373561Y226655D01*
X373575Y226678D01*
X373596Y226696D01*
X373629Y226761D01*
X373668Y226822D01*
X373672Y226849D01*
X373684Y226874D01*
X373694Y226978D01*
X373701Y227019D01*
X373699Y227028D01*
X373700Y227039D01*
X373398Y231063D01*
X373390Y231094D01*
X373387Y231137D01*
X372489Y235071D01*
X372476Y235100D01*
X372467Y235143D01*
X370993Y238899D01*
X370976Y238926D01*
X370961Y238967D01*
X368943Y242461D01*
X368922Y242485D01*
X368901Y242523D01*
X366385Y245678D01*
X366360Y245698D01*
X366334Y245733D01*
X363376Y248477D01*
X363349Y248494D01*
X363317Y248524D01*
X359983Y250797D01*
X359954Y250810D01*
X359919Y250835D01*
X356283Y252585D01*
X356252Y252593D01*
X356213Y252613D01*
X352357Y253802D01*
X352326Y253805D01*
X352284Y253819D01*
X348294Y254420D01*
X348262Y254419D01*
X348220Y254426D01*
X344184Y254426D01*
X344153Y254419D01*
X344110Y254420D01*
X340120Y253819D01*
X340090Y253808D01*
X340047Y253802D01*
X336191Y252613D01*
X336163Y252597D01*
X336121Y252585D01*
X332485Y250835D01*
X332460Y250815D01*
X332421Y250797D01*
X329087Y248524D01*
X329064Y248501D01*
X329028Y248477D01*
X326070Y245733D01*
X326052Y245707D01*
X326019Y245678D01*
X323503Y242523D01*
X323489Y242495D01*
X323461Y242461D01*
X321443Y238967D01*
X321433Y238936D01*
X321411Y238899D01*
X319937Y235143D01*
X319931Y235111D01*
X319915Y235071D01*
X319017Y231137D01*
X319016Y231105D01*
X319006Y231063D01*
X318704Y227039D01*
X318708Y227012D01*
X318703Y226985D01*
X318720Y226915D01*
X318729Y226842D01*
X318743Y226818D01*
X318749Y226792D01*
X318792Y226733D01*
X318829Y226670D01*
X318851Y226654D01*
X318867Y226632D01*
X318930Y226595D01*
X318988Y226551D01*
X319015Y226544D01*
X319038Y226530D01*
X319142Y226513D01*
X319181Y226503D01*
X319191Y226505D01*
X319202Y226503D01*
X373202Y226503D01*
X373229Y226508D01*
G37*
G36*
X417500Y415193D02*
X417500Y415193D01*
X417543Y415191D01*
X421548Y415676D01*
X421579Y415686D01*
X421622Y415690D01*
X425510Y416766D01*
X425538Y416781D01*
X425580Y416792D01*
X429265Y418435D01*
X429290Y418454D01*
X429330Y418471D01*
X432729Y420645D01*
X432751Y420667D01*
X432788Y420690D01*
X435824Y423347D01*
X435844Y423372D01*
X435877Y423400D01*
X438483Y426479D01*
X438496Y426503D01*
X438516Y426522D01*
X438544Y426590D01*
X438579Y426654D01*
X438582Y426681D01*
X438592Y426706D01*
X438591Y426779D01*
X438599Y426852D01*
X438591Y426878D01*
X438591Y426905D01*
X438562Y426972D01*
X438540Y427042D01*
X438522Y427062D01*
X438512Y427087D01*
X438438Y427163D01*
X438412Y427194D01*
X438403Y427198D01*
X438395Y427206D01*
X394695Y458906D01*
X394670Y458917D01*
X394650Y458935D01*
X394581Y458958D01*
X394514Y458989D01*
X394487Y458989D01*
X394461Y458998D01*
X394388Y458992D01*
X394315Y458994D01*
X394290Y458984D01*
X394263Y458982D01*
X394198Y458948D01*
X394130Y458921D01*
X394111Y458902D01*
X394087Y458889D01*
X394017Y458810D01*
X393988Y458782D01*
X393985Y458773D01*
X393977Y458764D01*
X391859Y455331D01*
X391848Y455301D01*
X391825Y455264D01*
X390242Y451553D01*
X390235Y451522D01*
X390218Y451483D01*
X389206Y447577D01*
X389204Y447545D01*
X389192Y447504D01*
X388774Y443491D01*
X388777Y443459D01*
X388771Y443417D01*
X388955Y439386D01*
X388963Y439356D01*
X388964Y439312D01*
X389747Y435354D01*
X389759Y435325D01*
X389767Y435283D01*
X391131Y431486D01*
X391141Y431469D01*
X391145Y431453D01*
X391153Y431441D01*
X391161Y431417D01*
X393075Y427866D01*
X393096Y427842D01*
X393116Y427803D01*
X395538Y424577D01*
X395562Y424556D01*
X395587Y424521D01*
X398463Y421692D01*
X398490Y421674D01*
X398520Y421643D01*
X401786Y419275D01*
X401815Y419261D01*
X401850Y419235D01*
X405432Y417380D01*
X405463Y417371D01*
X405500Y417350D01*
X409319Y416049D01*
X409351Y416045D01*
X409392Y416030D01*
X413362Y415313D01*
X413394Y415314D01*
X413436Y415305D01*
X417469Y415188D01*
X417500Y415193D01*
G37*
G36*
X278968Y415305D02*
X278968Y415305D01*
X278999Y415313D01*
X279042Y415313D01*
X283012Y416030D01*
X283042Y416042D01*
X283085Y416049D01*
X286904Y417350D01*
X286931Y417366D01*
X286972Y417380D01*
X290554Y419235D01*
X290579Y419255D01*
X290618Y419275D01*
X293884Y421643D01*
X293905Y421667D01*
X293941Y421692D01*
X296817Y424521D01*
X296835Y424547D01*
X296866Y424577D01*
X299288Y427803D01*
X299302Y427832D01*
X299329Y427866D01*
X301243Y431417D01*
X301252Y431448D01*
X301269Y431479D01*
X301272Y431483D01*
X301272Y431484D01*
X301273Y431486D01*
X302637Y435283D01*
X302642Y435314D01*
X302657Y435354D01*
X303440Y439312D01*
X303440Y439344D01*
X303449Y439386D01*
X303633Y443417D01*
X303628Y443448D01*
X303631Y443491D01*
X303212Y447504D01*
X303202Y447534D01*
X303199Y447577D01*
X302186Y451483D01*
X302172Y451511D01*
X302162Y451553D01*
X300580Y455264D01*
X300561Y455290D01*
X300545Y455331D01*
X298427Y458764D01*
X298408Y458784D01*
X298396Y458808D01*
X298341Y458856D01*
X298291Y458909D01*
X298266Y458920D01*
X298245Y458938D01*
X298176Y458960D01*
X298109Y458990D01*
X298082Y458990D01*
X298056Y458998D01*
X297983Y458992D01*
X297910Y458993D01*
X297885Y458983D01*
X297858Y458980D01*
X297764Y458933D01*
X297726Y458918D01*
X297719Y458911D01*
X297709Y458906D01*
X254009Y427206D01*
X253990Y427186D01*
X253967Y427172D01*
X253924Y427113D01*
X253874Y427060D01*
X253865Y427034D01*
X253849Y427012D01*
X253832Y426941D01*
X253808Y426872D01*
X253809Y426845D01*
X253803Y426819D01*
X253815Y426747D01*
X253820Y426674D01*
X253832Y426650D01*
X253836Y426623D01*
X253890Y426532D01*
X253908Y426496D01*
X253915Y426490D01*
X253921Y426479D01*
X256527Y423400D01*
X256552Y423380D01*
X256580Y423347D01*
X259616Y420690D01*
X259643Y420674D01*
X259676Y420645D01*
X263074Y418471D01*
X263104Y418459D01*
X263139Y418435D01*
X266824Y416792D01*
X266855Y416785D01*
X266894Y416766D01*
X270782Y415690D01*
X270814Y415688D01*
X270856Y415676D01*
X274861Y415191D01*
X274893Y415194D01*
X274935Y415188D01*
X278968Y415305D01*
G37*
G36*
X241202Y283207D02*
X241202Y283207D01*
X241229Y283204D01*
X241332Y283227D01*
X241372Y283233D01*
X241380Y283238D01*
X241392Y283240D01*
X245121Y284771D01*
X245148Y284789D01*
X245188Y284805D01*
X248648Y286874D01*
X248671Y286896D01*
X248709Y286917D01*
X251822Y289480D01*
X251842Y289504D01*
X251875Y289531D01*
X254571Y292529D01*
X254588Y292556D01*
X254617Y292588D01*
X256836Y295954D01*
X256848Y295983D01*
X256873Y296019D01*
X258565Y299678D01*
X258573Y299709D01*
X258591Y299748D01*
X259720Y303619D01*
X259722Y303650D01*
X259735Y303692D01*
X260274Y307687D01*
X260272Y307719D01*
X260279Y307762D01*
X260216Y311793D01*
X260209Y311824D01*
X260209Y311867D01*
X259547Y315844D01*
X259535Y315874D01*
X259529Y315916D01*
X258281Y319750D01*
X258265Y319778D01*
X258253Y319819D01*
X256447Y323424D01*
X256428Y323449D01*
X256409Y323488D01*
X254086Y326783D01*
X254063Y326805D01*
X254039Y326841D01*
X251251Y329754D01*
X251225Y329772D01*
X251196Y329803D01*
X248005Y332268D01*
X247976Y332282D01*
X247943Y332309D01*
X244420Y334270D01*
X244390Y334280D01*
X244353Y334302D01*
X240577Y335716D01*
X240546Y335721D01*
X240506Y335737D01*
X236562Y336573D01*
X236530Y336573D01*
X236488Y336583D01*
X232463Y336822D01*
X232432Y336818D01*
X232388Y336821D01*
X228373Y336457D01*
X228343Y336448D01*
X228300Y336445D01*
X224383Y335487D01*
X224359Y335475D01*
X224332Y335471D01*
X224270Y335433D01*
X224204Y335402D01*
X224185Y335382D01*
X224162Y335368D01*
X224120Y335308D01*
X224071Y335254D01*
X224062Y335228D01*
X224046Y335206D01*
X224030Y335135D01*
X224007Y335066D01*
X224009Y335039D01*
X224003Y335012D01*
X224018Y334908D01*
X224021Y334867D01*
X224026Y334859D01*
X224027Y334847D01*
X240727Y283547D01*
X240741Y283524D01*
X240747Y283497D01*
X240789Y283438D01*
X240825Y283374D01*
X240847Y283358D01*
X240863Y283336D01*
X240925Y283298D01*
X240983Y283253D01*
X241009Y283247D01*
X241033Y283232D01*
X241105Y283222D01*
X241175Y283203D01*
X241202Y283207D01*
G37*
G36*
X451234Y283209D02*
X451234Y283209D01*
X451261Y283206D01*
X451331Y283229D01*
X451402Y283245D01*
X451424Y283260D01*
X451450Y283269D01*
X451505Y283317D01*
X451565Y283359D01*
X451579Y283382D01*
X451600Y283400D01*
X451648Y283493D01*
X451670Y283528D01*
X451671Y283537D01*
X451677Y283547D01*
X468377Y334847D01*
X468380Y334874D01*
X468391Y334899D01*
X468391Y334973D01*
X468399Y335045D01*
X468392Y335071D01*
X468392Y335098D01*
X468364Y335166D01*
X468343Y335236D01*
X468326Y335257D01*
X468315Y335282D01*
X468263Y335333D01*
X468217Y335389D01*
X468193Y335402D01*
X468173Y335421D01*
X468077Y335463D01*
X468041Y335482D01*
X468031Y335482D01*
X468021Y335487D01*
X464104Y336445D01*
X464073Y336446D01*
X464031Y336457D01*
X460016Y336821D01*
X459984Y336817D01*
X459941Y336822D01*
X455916Y336583D01*
X455886Y336575D01*
X455842Y336573D01*
X451898Y335737D01*
X451869Y335724D01*
X451827Y335716D01*
X448051Y334302D01*
X448024Y334285D01*
X447984Y334270D01*
X444461Y332309D01*
X444437Y332288D01*
X444399Y332268D01*
X441208Y329803D01*
X441187Y329779D01*
X441153Y329754D01*
X438365Y326841D01*
X438348Y326814D01*
X438318Y326783D01*
X435995Y323488D01*
X435982Y323459D01*
X435957Y323424D01*
X434151Y319819D01*
X434143Y319788D01*
X434123Y319750D01*
X432875Y315916D01*
X432871Y315885D01*
X432857Y315844D01*
X432195Y311867D01*
X432196Y311835D01*
X432188Y311793D01*
X432125Y307762D01*
X432131Y307730D01*
X432130Y307687D01*
X432669Y303692D01*
X432679Y303661D01*
X432684Y303619D01*
X433813Y299748D01*
X433827Y299720D01*
X433839Y299678D01*
X435531Y296019D01*
X435550Y295993D01*
X435568Y295954D01*
X437787Y292588D01*
X437809Y292565D01*
X437833Y292529D01*
X440529Y289531D01*
X440554Y289512D01*
X440583Y289480D01*
X443695Y286917D01*
X443723Y286902D01*
X443756Y286874D01*
X447216Y284805D01*
X447246Y284794D01*
X447283Y284771D01*
X451012Y283240D01*
X451039Y283235D01*
X451063Y283222D01*
X451136Y283217D01*
X451208Y283203D01*
X451234Y283209D01*
G37*
D10*
X346202Y486702D03*
X479802Y389602D03*
X428802Y232502D03*
X263602Y232502D03*
X212602Y389602D03*
X413002Y438202D03*
X454302Y311102D03*
X346202Y232502D03*
X238102Y311102D03*
X279402Y438202D03*
M02*
