G04 EAGLE Gerber RS-274X export*
G75*
%MOMM*%
%FSLAX34Y34*%
%LPD*%
%IN*%
%IPPOS*%
%AMOC8*
5,1,8,0,0,1.08239X$1,22.5*%
G01*
%ADD10C,0.254000*%


D10*
X206102Y391702D02*
X259602Y227002D01*
X432802Y227002D01*
X486302Y391702D01*
X346202Y493502D01*
X206102Y391702D01*
X357702Y345750D02*
X357631Y344849D01*
X357490Y343957D01*
X357279Y343078D01*
X357000Y342219D01*
X356654Y341384D01*
X356243Y340579D01*
X355771Y339808D01*
X355240Y339077D01*
X354653Y338390D01*
X354014Y337751D01*
X353327Y337164D01*
X352596Y336633D01*
X351825Y336161D01*
X351020Y335750D01*
X350185Y335404D01*
X349326Y335125D01*
X348447Y334914D01*
X347555Y334773D01*
X346654Y334702D01*
X345750Y334702D01*
X344849Y334773D01*
X343957Y334914D01*
X343078Y335125D01*
X342219Y335404D01*
X341384Y335750D01*
X340579Y336161D01*
X339808Y336633D01*
X339077Y337164D01*
X338390Y337751D01*
X337751Y338390D01*
X337164Y339077D01*
X336633Y339808D01*
X336161Y340579D01*
X335750Y341384D01*
X335404Y342219D01*
X335125Y343078D01*
X334914Y343957D01*
X334773Y344849D01*
X334702Y345750D01*
X334702Y346654D01*
X334773Y347555D01*
X334914Y348447D01*
X335125Y349326D01*
X335404Y350185D01*
X335750Y351020D01*
X336161Y351825D01*
X336633Y352596D01*
X337164Y353327D01*
X337751Y354014D01*
X338390Y354653D01*
X339077Y355240D01*
X339808Y355771D01*
X340579Y356243D01*
X341384Y356654D01*
X342219Y357000D01*
X343078Y357279D01*
X343957Y357490D01*
X344849Y357631D01*
X345750Y357702D01*
X346654Y357702D01*
X347555Y357631D01*
X348447Y357490D01*
X349326Y357279D01*
X350185Y357000D01*
X351020Y356654D01*
X351825Y356243D01*
X352596Y355771D01*
X353327Y355240D01*
X354014Y354653D01*
X354653Y354014D01*
X355240Y353327D01*
X355771Y352596D01*
X356243Y351825D01*
X356654Y351020D01*
X357000Y350185D01*
X357279Y349326D01*
X357490Y348447D01*
X357631Y347555D01*
X357702Y346654D01*
X357702Y345750D01*
M02*
