G04 EAGLE Gerber RS-274X export*
G75*
%MOMM*%
%FSLAX34Y34*%
%LPD*%
%INSilkscreen Top*%
%IPPOS*%
%AMOC8*
5,1,8,0,0,1.08239X$1,22.5*%
G01*
%ADD10C,0.101600*%
%ADD11R,0.014731X0.014731*%
%ADD12R,0.147319X0.014731*%
%ADD13R,0.265175X0.014731*%
%ADD14R,0.383031X0.014731*%
%ADD15R,0.515619X0.014731*%
%ADD16R,0.633475X0.014731*%
%ADD17R,0.751331X0.014731*%
%ADD18R,0.883919X0.014731*%
%ADD19R,1.001775X0.014731*%
%ADD20R,1.119631X0.014731*%
%ADD21R,1.134363X0.014731*%
%ADD22R,1.149094X0.014731*%
%ADD23R,1.163825X0.014731*%
%ADD24R,1.178556X0.014731*%
%ADD25R,1.193288X0.014731*%
%ADD26R,1.222756X0.014731*%
%ADD27R,1.237488X0.014731*%
%ADD28R,1.266950X0.014731*%
%ADD29R,1.281681X0.014731*%
%ADD30R,1.311144X0.014731*%
%ADD31R,1.325881X0.014731*%
%ADD32R,1.355344X0.014731*%
%ADD33R,1.370075X0.014731*%
%ADD34R,1.384806X0.014731*%
%ADD35R,1.399538X0.014731*%
%ADD36R,1.414275X0.014731*%
%ADD37R,1.443738X0.014731*%
%ADD38R,1.458469X0.014731*%
%ADD39R,1.487931X0.014731*%
%ADD40R,1.502663X0.014731*%
%ADD41R,1.517394X0.014731*%
%ADD42R,1.532125X0.014731*%
%ADD43R,1.546856X0.014731*%
%ADD44R,1.576319X0.014731*%
%ADD45R,1.605788X0.014731*%
%ADD46R,1.620519X0.014731*%
%ADD47R,1.649981X0.014731*%
%ADD48R,1.664713X0.014731*%
%ADD49R,1.694175X0.014731*%
%ADD50R,1.708913X0.014731*%
%ADD51R,1.738375X0.014731*%
%ADD52R,1.753106X0.014731*%
%ADD53R,1.767838X0.014731*%
%ADD54R,1.782569X0.014731*%
%ADD55R,1.797306X0.014731*%
%ADD56R,0.117856X0.014731*%
%ADD57R,1.826769X0.014731*%
%ADD58R,0.235713X0.014731*%
%ADD59R,0.353569X0.014731*%
%ADD60R,1.856231X0.014731*%
%ADD61R,0.486156X0.014731*%
%ADD62R,1.870963X0.014731*%
%ADD63R,0.604013X0.014731*%
%ADD64R,0.721869X0.014731*%
%ADD65R,1.885694X0.014731*%
%ADD66R,0.839719X0.014731*%
%ADD67R,0.972306X0.014731*%
%ADD68R,1.090169X0.014731*%
%ADD69R,1.208025X0.014731*%
%ADD70R,1.252219X0.014731*%
%ADD71R,1.296412X0.014731*%
%ADD72R,1.340612X0.014731*%
%ADD73R,1.826763X0.014731*%
%ADD74R,1.414269X0.014731*%
%ADD75R,1.812031X0.014731*%
%ADD76R,1.429000X0.014731*%
%ADD77R,1.458462X0.014731*%
%ADD78R,1.473200X0.014731*%
%ADD79R,1.723644X0.014731*%
%ADD80R,1.694181X0.014731*%
%ADD81R,1.679450X0.014731*%
%ADD82R,1.561594X0.014731*%
%ADD83R,1.576325X0.014731*%
%ADD84R,1.591056X0.014731*%
%ADD85R,1.635250X0.014731*%
%ADD86R,1.561588X0.014731*%
%ADD87R,1.443731X0.014731*%
%ADD88R,1.797300X0.014731*%
%ADD89R,1.841500X0.014731*%
%ADD90R,1.311150X0.014731*%
%ADD91R,1.296419X0.014731*%
%ADD92R,1.193294X0.014731*%
%ADD93R,0.957575X0.014731*%
%ADD94R,0.589281X0.014731*%
%ADD95R,0.471425X0.014731*%
%ADD96R,0.220975X0.014731*%
%ADD97R,1.812038X0.014731*%
%ADD98R,0.103119X0.014731*%
%ADD99R,0.029463X0.014731*%
%ADD100R,0.162050X0.014731*%
%ADD101R,0.397763X0.014731*%
%ADD102R,0.648206X0.014731*%
%ADD103R,1.679444X0.014731*%
%ADD104R,1.016506X0.014731*%
%ADD105R,1.104900X0.014731*%
%ADD106R,1.222750X0.014731*%
%ADD107R,1.429006X0.014731*%
%ADD108R,1.208019X0.014731*%
%ADD109R,0.987044X0.014731*%
%ADD110R,0.854456X0.014731*%
%ADD111R,0.618744X0.014731*%
%ADD112R,0.500888X0.014731*%
%ADD113R,0.368300X0.014731*%
%ADD114R,0.132587X0.014731*%
%ADD115R,1.664719X0.014731*%
%ADD116R,1.075438X0.014731*%
%ADD117R,0.942844X0.014731*%
%ADD118R,0.707131X0.014731*%
%ADD119R,0.456694X0.014731*%
%ADD120R,0.088388X0.014731*%
%ADD121C,0.254000*%
%ADD122C,0.203200*%


D10*
X331524Y459658D02*
X334770Y459658D01*
X334883Y459660D01*
X334996Y459666D01*
X335109Y459676D01*
X335222Y459690D01*
X335334Y459707D01*
X335445Y459729D01*
X335555Y459754D01*
X335665Y459784D01*
X335773Y459817D01*
X335880Y459854D01*
X335986Y459894D01*
X336090Y459939D01*
X336193Y459987D01*
X336294Y460038D01*
X336393Y460093D01*
X336490Y460151D01*
X336585Y460213D01*
X336678Y460278D01*
X336768Y460346D01*
X336856Y460417D01*
X336942Y460492D01*
X337025Y460569D01*
X337105Y460649D01*
X337182Y460732D01*
X337257Y460818D01*
X337328Y460906D01*
X337396Y460996D01*
X337461Y461089D01*
X337523Y461184D01*
X337581Y461281D01*
X337636Y461380D01*
X337687Y461481D01*
X337735Y461584D01*
X337780Y461688D01*
X337820Y461794D01*
X337857Y461901D01*
X337890Y462009D01*
X337920Y462119D01*
X337945Y462229D01*
X337967Y462340D01*
X337984Y462452D01*
X337998Y462565D01*
X338008Y462678D01*
X338014Y462791D01*
X338016Y462904D01*
X338014Y463017D01*
X338008Y463130D01*
X337998Y463243D01*
X337984Y463356D01*
X337967Y463468D01*
X337945Y463579D01*
X337920Y463689D01*
X337890Y463799D01*
X337857Y463907D01*
X337820Y464014D01*
X337780Y464120D01*
X337735Y464224D01*
X337687Y464327D01*
X337636Y464428D01*
X337581Y464527D01*
X337523Y464624D01*
X337461Y464719D01*
X337396Y464812D01*
X337328Y464902D01*
X337257Y464990D01*
X337182Y465076D01*
X337105Y465159D01*
X337025Y465239D01*
X336942Y465316D01*
X336856Y465391D01*
X336768Y465462D01*
X336678Y465530D01*
X336585Y465595D01*
X336490Y465657D01*
X336393Y465715D01*
X336294Y465770D01*
X336193Y465821D01*
X336090Y465869D01*
X335986Y465914D01*
X335880Y465954D01*
X335773Y465991D01*
X335665Y466024D01*
X335555Y466054D01*
X335445Y466079D01*
X335334Y466101D01*
X335222Y466118D01*
X335109Y466132D01*
X334996Y466142D01*
X334883Y466148D01*
X334770Y466150D01*
X335419Y471342D02*
X331524Y471342D01*
X335419Y471342D02*
X335520Y471340D01*
X335620Y471334D01*
X335720Y471324D01*
X335820Y471311D01*
X335919Y471293D01*
X336018Y471272D01*
X336115Y471247D01*
X336212Y471218D01*
X336307Y471185D01*
X336401Y471149D01*
X336493Y471109D01*
X336584Y471066D01*
X336673Y471019D01*
X336760Y470969D01*
X336846Y470915D01*
X336929Y470858D01*
X337009Y470798D01*
X337088Y470735D01*
X337164Y470668D01*
X337237Y470599D01*
X337307Y470527D01*
X337375Y470453D01*
X337440Y470376D01*
X337501Y470296D01*
X337560Y470214D01*
X337615Y470130D01*
X337667Y470044D01*
X337716Y469956D01*
X337761Y469866D01*
X337803Y469774D01*
X337841Y469681D01*
X337875Y469586D01*
X337906Y469491D01*
X337933Y469394D01*
X337956Y469296D01*
X337976Y469197D01*
X337991Y469097D01*
X338003Y468997D01*
X338011Y468897D01*
X338015Y468796D01*
X338015Y468696D01*
X338011Y468595D01*
X338003Y468495D01*
X337991Y468395D01*
X337976Y468295D01*
X337956Y468196D01*
X337933Y468098D01*
X337906Y468001D01*
X337875Y467906D01*
X337841Y467811D01*
X337803Y467718D01*
X337761Y467626D01*
X337716Y467536D01*
X337667Y467448D01*
X337615Y467362D01*
X337560Y467278D01*
X337501Y467196D01*
X337440Y467116D01*
X337375Y467039D01*
X337307Y466965D01*
X337237Y466893D01*
X337164Y466824D01*
X337088Y466757D01*
X337009Y466694D01*
X336929Y466634D01*
X336846Y466577D01*
X336760Y466523D01*
X336673Y466473D01*
X336584Y466426D01*
X336493Y466383D01*
X336401Y466343D01*
X336307Y466307D01*
X336212Y466274D01*
X336115Y466245D01*
X336018Y466220D01*
X335919Y466199D01*
X335820Y466181D01*
X335720Y466168D01*
X335620Y466158D01*
X335520Y466152D01*
X335419Y466150D01*
X335419Y466149D02*
X332823Y466149D01*
X342305Y471342D02*
X346200Y459658D01*
X350095Y471342D01*
X354384Y459658D02*
X357630Y459658D01*
X357743Y459660D01*
X357856Y459666D01*
X357969Y459676D01*
X358082Y459690D01*
X358194Y459707D01*
X358305Y459729D01*
X358415Y459754D01*
X358525Y459784D01*
X358633Y459817D01*
X358740Y459854D01*
X358846Y459894D01*
X358950Y459939D01*
X359053Y459987D01*
X359154Y460038D01*
X359253Y460093D01*
X359350Y460151D01*
X359445Y460213D01*
X359538Y460278D01*
X359628Y460346D01*
X359716Y460417D01*
X359802Y460492D01*
X359885Y460569D01*
X359965Y460649D01*
X360042Y460732D01*
X360117Y460818D01*
X360188Y460906D01*
X360256Y460996D01*
X360321Y461089D01*
X360383Y461184D01*
X360441Y461281D01*
X360496Y461380D01*
X360547Y461481D01*
X360595Y461584D01*
X360640Y461688D01*
X360680Y461794D01*
X360717Y461901D01*
X360750Y462009D01*
X360780Y462119D01*
X360805Y462229D01*
X360827Y462340D01*
X360844Y462452D01*
X360858Y462565D01*
X360868Y462678D01*
X360874Y462791D01*
X360876Y462904D01*
X360874Y463017D01*
X360868Y463130D01*
X360858Y463243D01*
X360844Y463356D01*
X360827Y463468D01*
X360805Y463579D01*
X360780Y463689D01*
X360750Y463799D01*
X360717Y463907D01*
X360680Y464014D01*
X360640Y464120D01*
X360595Y464224D01*
X360547Y464327D01*
X360496Y464428D01*
X360441Y464527D01*
X360383Y464624D01*
X360321Y464719D01*
X360256Y464812D01*
X360188Y464902D01*
X360117Y464990D01*
X360042Y465076D01*
X359965Y465159D01*
X359885Y465239D01*
X359802Y465316D01*
X359716Y465391D01*
X359628Y465462D01*
X359538Y465530D01*
X359445Y465595D01*
X359350Y465657D01*
X359253Y465715D01*
X359154Y465770D01*
X359053Y465821D01*
X358950Y465869D01*
X358846Y465914D01*
X358740Y465954D01*
X358633Y465991D01*
X358525Y466024D01*
X358415Y466054D01*
X358305Y466079D01*
X358194Y466101D01*
X358082Y466118D01*
X357969Y466132D01*
X357856Y466142D01*
X357743Y466148D01*
X357630Y466150D01*
X358279Y471342D02*
X354384Y471342D01*
X358279Y471342D02*
X358380Y471340D01*
X358480Y471334D01*
X358580Y471324D01*
X358680Y471311D01*
X358779Y471293D01*
X358878Y471272D01*
X358975Y471247D01*
X359072Y471218D01*
X359167Y471185D01*
X359261Y471149D01*
X359353Y471109D01*
X359444Y471066D01*
X359533Y471019D01*
X359620Y470969D01*
X359706Y470915D01*
X359789Y470858D01*
X359869Y470798D01*
X359948Y470735D01*
X360024Y470668D01*
X360097Y470599D01*
X360167Y470527D01*
X360235Y470453D01*
X360300Y470376D01*
X360361Y470296D01*
X360420Y470214D01*
X360475Y470130D01*
X360527Y470044D01*
X360576Y469956D01*
X360621Y469866D01*
X360663Y469774D01*
X360701Y469681D01*
X360735Y469586D01*
X360766Y469491D01*
X360793Y469394D01*
X360816Y469296D01*
X360836Y469197D01*
X360851Y469097D01*
X360863Y468997D01*
X360871Y468897D01*
X360875Y468796D01*
X360875Y468696D01*
X360871Y468595D01*
X360863Y468495D01*
X360851Y468395D01*
X360836Y468295D01*
X360816Y468196D01*
X360793Y468098D01*
X360766Y468001D01*
X360735Y467906D01*
X360701Y467811D01*
X360663Y467718D01*
X360621Y467626D01*
X360576Y467536D01*
X360527Y467448D01*
X360475Y467362D01*
X360420Y467278D01*
X360361Y467196D01*
X360300Y467116D01*
X360235Y467039D01*
X360167Y466965D01*
X360097Y466893D01*
X360024Y466824D01*
X359948Y466757D01*
X359869Y466694D01*
X359789Y466634D01*
X359706Y466577D01*
X359620Y466523D01*
X359533Y466473D01*
X359444Y466426D01*
X359353Y466383D01*
X359261Y466343D01*
X359167Y466307D01*
X359072Y466274D01*
X358975Y466245D01*
X358878Y466220D01*
X358779Y466199D01*
X358680Y466181D01*
X358580Y466168D01*
X358480Y466158D01*
X358380Y466152D01*
X358279Y466150D01*
X358279Y466149D02*
X355683Y466149D01*
X449191Y394892D02*
X450301Y391843D01*
X450341Y391737D01*
X450386Y391633D01*
X450434Y391530D01*
X450485Y391429D01*
X450540Y391330D01*
X450598Y391233D01*
X450660Y391138D01*
X450725Y391045D01*
X450793Y390955D01*
X450864Y390867D01*
X450939Y390781D01*
X451016Y390698D01*
X451096Y390618D01*
X451179Y390541D01*
X451265Y390466D01*
X451353Y390395D01*
X451443Y390327D01*
X451536Y390262D01*
X451631Y390200D01*
X451728Y390142D01*
X451827Y390087D01*
X451928Y390036D01*
X452031Y389988D01*
X452135Y389943D01*
X452241Y389903D01*
X452348Y389866D01*
X452456Y389833D01*
X452566Y389803D01*
X452676Y389778D01*
X452787Y389756D01*
X452899Y389739D01*
X453012Y389725D01*
X453125Y389715D01*
X453238Y389709D01*
X453351Y389707D01*
X453464Y389709D01*
X453577Y389715D01*
X453690Y389725D01*
X453803Y389739D01*
X453915Y389756D01*
X454026Y389778D01*
X454136Y389803D01*
X454246Y389833D01*
X454354Y389866D01*
X454461Y389903D01*
X454567Y389943D01*
X454671Y389988D01*
X454774Y390036D01*
X454875Y390087D01*
X454974Y390142D01*
X455071Y390200D01*
X455166Y390262D01*
X455259Y390327D01*
X455349Y390395D01*
X455437Y390466D01*
X455523Y390541D01*
X455606Y390618D01*
X455686Y390698D01*
X455763Y390781D01*
X455838Y390867D01*
X455909Y390955D01*
X455977Y391045D01*
X456042Y391138D01*
X456104Y391233D01*
X456162Y391330D01*
X456217Y391429D01*
X456268Y391530D01*
X456316Y391633D01*
X456361Y391737D01*
X456401Y391843D01*
X456438Y391950D01*
X456471Y392058D01*
X456501Y392168D01*
X456526Y392278D01*
X456548Y392389D01*
X456565Y392501D01*
X456579Y392614D01*
X456589Y392727D01*
X456595Y392840D01*
X456597Y392953D01*
X456595Y393066D01*
X456589Y393179D01*
X456579Y393292D01*
X456565Y393405D01*
X456548Y393517D01*
X456526Y393628D01*
X456501Y393738D01*
X456471Y393848D01*
X456438Y393956D01*
X456401Y394063D01*
X461502Y395229D02*
X460170Y398889D01*
X461501Y395229D02*
X461534Y395134D01*
X461563Y395037D01*
X461588Y394940D01*
X461609Y394841D01*
X461627Y394742D01*
X461640Y394642D01*
X461650Y394542D01*
X461656Y394442D01*
X461658Y394341D01*
X461656Y394240D01*
X461650Y394140D01*
X461640Y394040D01*
X461627Y393940D01*
X461609Y393841D01*
X461588Y393742D01*
X461563Y393645D01*
X461534Y393548D01*
X461501Y393453D01*
X461465Y393359D01*
X461425Y393267D01*
X461382Y393176D01*
X461335Y393087D01*
X461285Y393000D01*
X461231Y392914D01*
X461174Y392831D01*
X461114Y392751D01*
X461051Y392672D01*
X460984Y392596D01*
X460915Y392523D01*
X460843Y392453D01*
X460769Y392385D01*
X460692Y392320D01*
X460612Y392259D01*
X460530Y392200D01*
X460446Y392145D01*
X460360Y392093D01*
X460272Y392044D01*
X460182Y391999D01*
X460090Y391957D01*
X459997Y391919D01*
X459902Y391885D01*
X459807Y391854D01*
X459710Y391827D01*
X459612Y391804D01*
X459513Y391784D01*
X459413Y391769D01*
X459313Y391757D01*
X459213Y391749D01*
X459112Y391745D01*
X459012Y391745D01*
X458911Y391749D01*
X458811Y391757D01*
X458711Y391769D01*
X458611Y391784D01*
X458512Y391804D01*
X458414Y391827D01*
X458317Y391854D01*
X458222Y391885D01*
X458127Y391919D01*
X458034Y391957D01*
X457942Y391999D01*
X457852Y392044D01*
X457764Y392093D01*
X457678Y392145D01*
X457594Y392200D01*
X457512Y392259D01*
X457432Y392320D01*
X457355Y392385D01*
X457281Y392453D01*
X457209Y392523D01*
X457140Y392596D01*
X457073Y392672D01*
X457010Y392751D01*
X456950Y392831D01*
X456893Y392914D01*
X456839Y393000D01*
X456789Y393087D01*
X456742Y393176D01*
X456699Y393267D01*
X456659Y393359D01*
X456623Y393453D01*
X455735Y395893D01*
X463858Y388758D02*
X454210Y381102D01*
X466522Y381438D01*
X457009Y373411D02*
X458120Y370361D01*
X458119Y370361D02*
X458159Y370255D01*
X458204Y370151D01*
X458252Y370048D01*
X458303Y369947D01*
X458358Y369848D01*
X458416Y369751D01*
X458478Y369656D01*
X458543Y369563D01*
X458611Y369473D01*
X458682Y369385D01*
X458757Y369299D01*
X458834Y369216D01*
X458914Y369136D01*
X458997Y369059D01*
X459083Y368984D01*
X459171Y368913D01*
X459261Y368845D01*
X459354Y368780D01*
X459449Y368718D01*
X459546Y368660D01*
X459645Y368605D01*
X459746Y368554D01*
X459849Y368506D01*
X459953Y368461D01*
X460059Y368421D01*
X460166Y368384D01*
X460274Y368351D01*
X460384Y368321D01*
X460494Y368296D01*
X460605Y368274D01*
X460717Y368257D01*
X460830Y368243D01*
X460943Y368233D01*
X461056Y368227D01*
X461169Y368225D01*
X461282Y368227D01*
X461395Y368233D01*
X461508Y368243D01*
X461621Y368257D01*
X461733Y368274D01*
X461844Y368296D01*
X461954Y368321D01*
X462064Y368351D01*
X462172Y368384D01*
X462279Y368421D01*
X462385Y368461D01*
X462489Y368506D01*
X462592Y368554D01*
X462693Y368605D01*
X462792Y368660D01*
X462889Y368718D01*
X462984Y368780D01*
X463077Y368845D01*
X463167Y368913D01*
X463255Y368984D01*
X463341Y369059D01*
X463424Y369136D01*
X463504Y369216D01*
X463581Y369299D01*
X463656Y369385D01*
X463727Y369473D01*
X463795Y369563D01*
X463860Y369656D01*
X463922Y369751D01*
X463980Y369848D01*
X464035Y369947D01*
X464086Y370048D01*
X464134Y370151D01*
X464179Y370255D01*
X464219Y370361D01*
X464256Y370468D01*
X464289Y370576D01*
X464319Y370686D01*
X464344Y370796D01*
X464366Y370907D01*
X464383Y371019D01*
X464397Y371132D01*
X464407Y371245D01*
X464413Y371358D01*
X464415Y371471D01*
X464413Y371584D01*
X464407Y371697D01*
X464397Y371810D01*
X464383Y371923D01*
X464366Y372035D01*
X464344Y372146D01*
X464319Y372256D01*
X464289Y372366D01*
X464256Y372474D01*
X464219Y372581D01*
X469321Y373747D02*
X467989Y377407D01*
X469320Y373747D02*
X469353Y373652D01*
X469382Y373555D01*
X469407Y373458D01*
X469428Y373359D01*
X469446Y373260D01*
X469459Y373160D01*
X469469Y373060D01*
X469475Y372960D01*
X469477Y372859D01*
X469475Y372758D01*
X469469Y372658D01*
X469459Y372558D01*
X469446Y372458D01*
X469428Y372359D01*
X469407Y372260D01*
X469382Y372163D01*
X469353Y372066D01*
X469320Y371971D01*
X469284Y371877D01*
X469244Y371785D01*
X469201Y371694D01*
X469154Y371605D01*
X469104Y371518D01*
X469050Y371432D01*
X468993Y371349D01*
X468933Y371269D01*
X468870Y371190D01*
X468803Y371114D01*
X468734Y371041D01*
X468662Y370971D01*
X468588Y370903D01*
X468511Y370838D01*
X468431Y370777D01*
X468349Y370718D01*
X468265Y370663D01*
X468179Y370611D01*
X468091Y370562D01*
X468001Y370517D01*
X467909Y370475D01*
X467816Y370437D01*
X467721Y370403D01*
X467626Y370372D01*
X467529Y370345D01*
X467431Y370322D01*
X467332Y370302D01*
X467232Y370287D01*
X467132Y370275D01*
X467032Y370267D01*
X466931Y370263D01*
X466831Y370263D01*
X466730Y370267D01*
X466630Y370275D01*
X466530Y370287D01*
X466430Y370302D01*
X466331Y370322D01*
X466233Y370345D01*
X466136Y370372D01*
X466041Y370403D01*
X465946Y370437D01*
X465853Y370475D01*
X465761Y370517D01*
X465671Y370562D01*
X465583Y370611D01*
X465497Y370663D01*
X465413Y370718D01*
X465331Y370777D01*
X465251Y370838D01*
X465174Y370903D01*
X465100Y370971D01*
X465028Y371041D01*
X464959Y371114D01*
X464892Y371190D01*
X464829Y371269D01*
X464769Y371349D01*
X464712Y371432D01*
X464658Y371518D01*
X464608Y371605D01*
X464561Y371694D01*
X464518Y371785D01*
X464478Y371877D01*
X464442Y371971D01*
X464441Y371971D02*
X463553Y374411D01*
X410288Y238359D02*
X407629Y236497D01*
X410288Y238358D02*
X410379Y238425D01*
X410469Y238494D01*
X410556Y238567D01*
X410640Y238643D01*
X410721Y238722D01*
X410800Y238803D01*
X410876Y238887D01*
X410949Y238974D01*
X411018Y239064D01*
X411085Y239155D01*
X411148Y239249D01*
X411208Y239345D01*
X411265Y239443D01*
X411318Y239543D01*
X411368Y239645D01*
X411414Y239749D01*
X411456Y239854D01*
X411495Y239960D01*
X411530Y240068D01*
X411561Y240177D01*
X411589Y240287D01*
X411612Y240398D01*
X411632Y240509D01*
X411648Y240621D01*
X411660Y240734D01*
X411668Y240847D01*
X411672Y240960D01*
X411672Y241074D01*
X411668Y241187D01*
X411660Y241300D01*
X411648Y241413D01*
X411632Y241525D01*
X411612Y241636D01*
X411589Y241747D01*
X411561Y241857D01*
X411530Y241966D01*
X411495Y242074D01*
X411456Y242180D01*
X411414Y242285D01*
X411368Y242389D01*
X411318Y242491D01*
X411265Y242591D01*
X411208Y242689D01*
X411148Y242785D01*
X411085Y242879D01*
X411018Y242970D01*
X410949Y243060D01*
X410876Y243147D01*
X410800Y243231D01*
X410721Y243312D01*
X410640Y243391D01*
X410556Y243467D01*
X410469Y243540D01*
X410380Y243609D01*
X410288Y243676D01*
X410194Y243739D01*
X410098Y243799D01*
X410000Y243856D01*
X409900Y243909D01*
X409798Y243959D01*
X409694Y244005D01*
X409589Y244047D01*
X409483Y244086D01*
X409375Y244121D01*
X409266Y244152D01*
X409156Y244180D01*
X409045Y244203D01*
X408934Y244223D01*
X408822Y244239D01*
X408709Y244251D01*
X408596Y244259D01*
X408483Y244263D01*
X408369Y244263D01*
X408256Y244259D01*
X408143Y244251D01*
X408030Y244239D01*
X407918Y244223D01*
X407807Y244203D01*
X407696Y244180D01*
X407586Y244152D01*
X407477Y244121D01*
X407369Y244086D01*
X407263Y244047D01*
X407158Y244005D01*
X407054Y243959D01*
X406952Y243909D01*
X406852Y243856D01*
X406754Y243799D01*
X406658Y243739D01*
X406564Y243676D01*
X404118Y248302D02*
X400928Y246068D01*
X404118Y248302D02*
X404202Y248358D01*
X404287Y248411D01*
X404375Y248460D01*
X404464Y248506D01*
X404556Y248549D01*
X404649Y248588D01*
X404743Y248623D01*
X404838Y248655D01*
X404935Y248683D01*
X405033Y248707D01*
X405131Y248727D01*
X405231Y248744D01*
X405331Y248756D01*
X405431Y248765D01*
X405532Y248770D01*
X405632Y248771D01*
X405733Y248768D01*
X405833Y248761D01*
X405933Y248750D01*
X406033Y248736D01*
X406132Y248717D01*
X406230Y248695D01*
X406327Y248669D01*
X406424Y248639D01*
X406519Y248606D01*
X406612Y248569D01*
X406704Y248528D01*
X406795Y248483D01*
X406883Y248436D01*
X406970Y248384D01*
X407054Y248330D01*
X407137Y248272D01*
X407217Y248211D01*
X407295Y248147D01*
X407370Y248080D01*
X407443Y248011D01*
X407512Y247938D01*
X407579Y247863D01*
X407643Y247785D01*
X407704Y247705D01*
X407762Y247622D01*
X407816Y247538D01*
X407868Y247451D01*
X407915Y247363D01*
X407960Y247272D01*
X408001Y247180D01*
X408038Y247086D01*
X408071Y246992D01*
X408101Y246895D01*
X408127Y246798D01*
X408149Y246700D01*
X408168Y246601D01*
X408182Y246501D01*
X408193Y246401D01*
X408200Y246301D01*
X408203Y246200D01*
X408202Y246100D01*
X408197Y245999D01*
X408188Y245899D01*
X408176Y245799D01*
X408159Y245699D01*
X408139Y245601D01*
X408115Y245503D01*
X408087Y245406D01*
X408055Y245311D01*
X408020Y245217D01*
X407981Y245124D01*
X407938Y245032D01*
X407892Y244943D01*
X407843Y244855D01*
X407790Y244770D01*
X407734Y244686D01*
X407674Y244605D01*
X407612Y244526D01*
X407546Y244449D01*
X407478Y244375D01*
X407407Y244304D01*
X407333Y244236D01*
X407256Y244170D01*
X407177Y244108D01*
X407096Y244048D01*
X404970Y242559D01*
X409759Y252252D02*
X419651Y244914D01*
X416139Y256719D01*
X426355Y249609D02*
X429014Y251470D01*
X429105Y251537D01*
X429195Y251606D01*
X429282Y251679D01*
X429366Y251755D01*
X429447Y251834D01*
X429526Y251915D01*
X429602Y251999D01*
X429675Y252086D01*
X429744Y252176D01*
X429811Y252267D01*
X429874Y252361D01*
X429934Y252457D01*
X429991Y252555D01*
X430044Y252655D01*
X430094Y252757D01*
X430140Y252861D01*
X430182Y252966D01*
X430221Y253072D01*
X430256Y253180D01*
X430287Y253289D01*
X430315Y253399D01*
X430338Y253510D01*
X430358Y253621D01*
X430374Y253733D01*
X430386Y253846D01*
X430394Y253959D01*
X430398Y254072D01*
X430398Y254186D01*
X430394Y254299D01*
X430386Y254412D01*
X430374Y254525D01*
X430358Y254637D01*
X430338Y254748D01*
X430315Y254859D01*
X430287Y254969D01*
X430256Y255078D01*
X430221Y255186D01*
X430182Y255292D01*
X430140Y255397D01*
X430094Y255501D01*
X430044Y255603D01*
X429991Y255703D01*
X429934Y255801D01*
X429874Y255897D01*
X429811Y255991D01*
X429744Y256082D01*
X429675Y256172D01*
X429602Y256259D01*
X429526Y256343D01*
X429447Y256424D01*
X429366Y256503D01*
X429282Y256579D01*
X429195Y256652D01*
X429106Y256721D01*
X429014Y256788D01*
X428920Y256851D01*
X428824Y256911D01*
X428726Y256968D01*
X428626Y257021D01*
X428524Y257071D01*
X428420Y257117D01*
X428315Y257159D01*
X428209Y257198D01*
X428101Y257233D01*
X427992Y257264D01*
X427882Y257292D01*
X427771Y257315D01*
X427660Y257335D01*
X427548Y257351D01*
X427435Y257363D01*
X427322Y257371D01*
X427209Y257375D01*
X427095Y257375D01*
X426982Y257371D01*
X426869Y257363D01*
X426756Y257351D01*
X426644Y257335D01*
X426533Y257315D01*
X426422Y257292D01*
X426312Y257264D01*
X426203Y257233D01*
X426095Y257198D01*
X425989Y257159D01*
X425884Y257117D01*
X425780Y257071D01*
X425678Y257021D01*
X425578Y256968D01*
X425480Y256911D01*
X425384Y256851D01*
X425290Y256788D01*
X422844Y261414D02*
X419653Y259180D01*
X422844Y261414D02*
X422928Y261470D01*
X423013Y261523D01*
X423101Y261572D01*
X423190Y261618D01*
X423282Y261661D01*
X423375Y261700D01*
X423469Y261735D01*
X423564Y261767D01*
X423661Y261795D01*
X423759Y261819D01*
X423857Y261839D01*
X423957Y261856D01*
X424057Y261868D01*
X424157Y261877D01*
X424258Y261882D01*
X424358Y261883D01*
X424459Y261880D01*
X424559Y261873D01*
X424659Y261862D01*
X424759Y261848D01*
X424858Y261829D01*
X424956Y261807D01*
X425053Y261781D01*
X425150Y261751D01*
X425245Y261718D01*
X425338Y261681D01*
X425430Y261640D01*
X425521Y261595D01*
X425609Y261548D01*
X425696Y261496D01*
X425780Y261442D01*
X425863Y261384D01*
X425943Y261323D01*
X426021Y261259D01*
X426096Y261192D01*
X426169Y261123D01*
X426238Y261050D01*
X426305Y260975D01*
X426369Y260897D01*
X426430Y260817D01*
X426488Y260734D01*
X426542Y260650D01*
X426594Y260563D01*
X426641Y260475D01*
X426686Y260384D01*
X426727Y260292D01*
X426764Y260198D01*
X426797Y260104D01*
X426827Y260007D01*
X426853Y259910D01*
X426875Y259812D01*
X426894Y259713D01*
X426908Y259613D01*
X426919Y259513D01*
X426926Y259413D01*
X426929Y259312D01*
X426928Y259212D01*
X426923Y259111D01*
X426914Y259011D01*
X426902Y258911D01*
X426885Y258811D01*
X426865Y258713D01*
X426841Y258615D01*
X426813Y258518D01*
X426781Y258423D01*
X426746Y258329D01*
X426707Y258236D01*
X426664Y258144D01*
X426618Y258055D01*
X426569Y257967D01*
X426516Y257882D01*
X426460Y257798D01*
X426400Y257717D01*
X426338Y257638D01*
X426272Y257561D01*
X426204Y257487D01*
X426133Y257416D01*
X426059Y257348D01*
X425982Y257282D01*
X425903Y257220D01*
X425822Y257160D01*
X423695Y255671D01*
X263386Y251470D02*
X260728Y253332D01*
X263386Y251470D02*
X263480Y251407D01*
X263576Y251347D01*
X263674Y251290D01*
X263774Y251237D01*
X263876Y251187D01*
X263980Y251141D01*
X264085Y251099D01*
X264191Y251060D01*
X264299Y251025D01*
X264408Y250994D01*
X264518Y250966D01*
X264629Y250943D01*
X264740Y250923D01*
X264852Y250907D01*
X264965Y250895D01*
X265078Y250887D01*
X265191Y250883D01*
X265305Y250883D01*
X265418Y250887D01*
X265531Y250895D01*
X265644Y250907D01*
X265756Y250923D01*
X265867Y250943D01*
X265978Y250966D01*
X266088Y250994D01*
X266197Y251025D01*
X266305Y251060D01*
X266411Y251099D01*
X266516Y251141D01*
X266620Y251187D01*
X266722Y251237D01*
X266822Y251290D01*
X266920Y251347D01*
X267016Y251407D01*
X267110Y251470D01*
X267201Y251537D01*
X267291Y251606D01*
X267378Y251679D01*
X267462Y251755D01*
X267543Y251834D01*
X267622Y251915D01*
X267698Y251999D01*
X267771Y252086D01*
X267840Y252176D01*
X267907Y252267D01*
X267970Y252361D01*
X268030Y252457D01*
X268087Y252555D01*
X268140Y252655D01*
X268190Y252757D01*
X268236Y252861D01*
X268278Y252966D01*
X268317Y253072D01*
X268352Y253180D01*
X268383Y253289D01*
X268411Y253399D01*
X268434Y253510D01*
X268454Y253621D01*
X268470Y253733D01*
X268482Y253846D01*
X268490Y253959D01*
X268494Y254072D01*
X268494Y254186D01*
X268490Y254299D01*
X268482Y254412D01*
X268470Y254525D01*
X268454Y254637D01*
X268434Y254748D01*
X268411Y254859D01*
X268383Y254969D01*
X268352Y255078D01*
X268317Y255186D01*
X268278Y255292D01*
X268236Y255397D01*
X268190Y255501D01*
X268140Y255603D01*
X268087Y255703D01*
X268030Y255801D01*
X267970Y255897D01*
X267907Y255991D01*
X267840Y256082D01*
X267771Y256172D01*
X267698Y256259D01*
X267622Y256343D01*
X267543Y256424D01*
X267462Y256503D01*
X267378Y256579D01*
X267291Y256652D01*
X267202Y256721D01*
X267110Y256788D01*
X270620Y260669D02*
X267429Y262903D01*
X270619Y260669D02*
X270700Y260609D01*
X270779Y260547D01*
X270856Y260481D01*
X270930Y260413D01*
X271001Y260342D01*
X271069Y260268D01*
X271135Y260191D01*
X271197Y260112D01*
X271257Y260031D01*
X271313Y259947D01*
X271366Y259862D01*
X271415Y259774D01*
X271461Y259685D01*
X271504Y259593D01*
X271543Y259500D01*
X271578Y259406D01*
X271610Y259311D01*
X271638Y259214D01*
X271662Y259116D01*
X271682Y259018D01*
X271699Y258918D01*
X271711Y258818D01*
X271720Y258718D01*
X271725Y258618D01*
X271726Y258517D01*
X271723Y258416D01*
X271716Y258316D01*
X271705Y258216D01*
X271691Y258116D01*
X271672Y258017D01*
X271650Y257919D01*
X271624Y257822D01*
X271594Y257725D01*
X271561Y257631D01*
X271524Y257537D01*
X271483Y257445D01*
X271438Y257354D01*
X271391Y257266D01*
X271339Y257179D01*
X271285Y257095D01*
X271227Y257012D01*
X271166Y256932D01*
X271102Y256854D01*
X271035Y256779D01*
X270966Y256706D01*
X270893Y256637D01*
X270818Y256570D01*
X270740Y256506D01*
X270660Y256445D01*
X270577Y256387D01*
X270493Y256333D01*
X270406Y256281D01*
X270318Y256234D01*
X270227Y256189D01*
X270135Y256148D01*
X270041Y256111D01*
X269947Y256078D01*
X269850Y256048D01*
X269753Y256022D01*
X269655Y256000D01*
X269556Y255981D01*
X269456Y255967D01*
X269356Y255956D01*
X269256Y255949D01*
X269155Y255946D01*
X269054Y255947D01*
X268954Y255952D01*
X268854Y255961D01*
X268754Y255973D01*
X268654Y255990D01*
X268556Y256010D01*
X268458Y256034D01*
X268361Y256062D01*
X268266Y256094D01*
X268172Y256129D01*
X268079Y256168D01*
X267987Y256211D01*
X267898Y256257D01*
X267810Y256306D01*
X267725Y256359D01*
X267641Y256415D01*
X265514Y257905D01*
X276260Y256719D02*
X272749Y244914D01*
X282641Y252252D01*
X279453Y240220D02*
X282112Y238358D01*
X282206Y238295D01*
X282302Y238235D01*
X282400Y238178D01*
X282500Y238125D01*
X282602Y238075D01*
X282706Y238029D01*
X282811Y237987D01*
X282917Y237948D01*
X283025Y237913D01*
X283134Y237882D01*
X283244Y237854D01*
X283355Y237831D01*
X283466Y237811D01*
X283578Y237795D01*
X283691Y237783D01*
X283804Y237775D01*
X283917Y237771D01*
X284031Y237771D01*
X284144Y237775D01*
X284257Y237783D01*
X284370Y237795D01*
X284482Y237811D01*
X284593Y237831D01*
X284704Y237854D01*
X284814Y237882D01*
X284923Y237913D01*
X285031Y237948D01*
X285137Y237987D01*
X285242Y238029D01*
X285346Y238075D01*
X285448Y238125D01*
X285548Y238178D01*
X285646Y238235D01*
X285742Y238295D01*
X285836Y238358D01*
X285927Y238425D01*
X286017Y238494D01*
X286104Y238567D01*
X286188Y238643D01*
X286269Y238722D01*
X286348Y238803D01*
X286424Y238887D01*
X286497Y238974D01*
X286566Y239064D01*
X286633Y239155D01*
X286696Y239249D01*
X286756Y239345D01*
X286813Y239443D01*
X286866Y239543D01*
X286916Y239645D01*
X286962Y239749D01*
X287004Y239854D01*
X287043Y239960D01*
X287078Y240068D01*
X287109Y240177D01*
X287137Y240287D01*
X287160Y240398D01*
X287180Y240509D01*
X287196Y240621D01*
X287208Y240734D01*
X287216Y240847D01*
X287220Y240960D01*
X287220Y241074D01*
X287216Y241187D01*
X287208Y241300D01*
X287196Y241413D01*
X287180Y241525D01*
X287160Y241636D01*
X287137Y241747D01*
X287109Y241857D01*
X287078Y241966D01*
X287043Y242074D01*
X287004Y242180D01*
X286962Y242285D01*
X286916Y242389D01*
X286866Y242491D01*
X286813Y242591D01*
X286756Y242689D01*
X286696Y242785D01*
X286633Y242879D01*
X286566Y242970D01*
X286497Y243060D01*
X286424Y243147D01*
X286348Y243231D01*
X286269Y243312D01*
X286188Y243391D01*
X286104Y243467D01*
X286017Y243540D01*
X285928Y243609D01*
X285836Y243676D01*
X289345Y247557D02*
X286155Y249791D01*
X289345Y247557D02*
X289426Y247497D01*
X289505Y247435D01*
X289582Y247369D01*
X289656Y247301D01*
X289727Y247230D01*
X289795Y247156D01*
X289861Y247079D01*
X289923Y247000D01*
X289983Y246919D01*
X290039Y246835D01*
X290092Y246750D01*
X290141Y246662D01*
X290187Y246573D01*
X290230Y246481D01*
X290269Y246388D01*
X290304Y246294D01*
X290336Y246199D01*
X290364Y246102D01*
X290388Y246004D01*
X290408Y245906D01*
X290425Y245806D01*
X290437Y245706D01*
X290446Y245606D01*
X290451Y245506D01*
X290452Y245405D01*
X290449Y245304D01*
X290442Y245204D01*
X290431Y245104D01*
X290417Y245004D01*
X290398Y244905D01*
X290376Y244807D01*
X290350Y244710D01*
X290320Y244613D01*
X290287Y244519D01*
X290250Y244425D01*
X290209Y244333D01*
X290164Y244242D01*
X290117Y244154D01*
X290065Y244067D01*
X290011Y243983D01*
X289953Y243900D01*
X289892Y243820D01*
X289828Y243742D01*
X289761Y243667D01*
X289692Y243594D01*
X289619Y243525D01*
X289544Y243458D01*
X289466Y243394D01*
X289386Y243333D01*
X289303Y243275D01*
X289219Y243221D01*
X289132Y243169D01*
X289044Y243122D01*
X288953Y243077D01*
X288861Y243036D01*
X288767Y242999D01*
X288673Y242966D01*
X288576Y242936D01*
X288479Y242910D01*
X288381Y242888D01*
X288282Y242869D01*
X288182Y242855D01*
X288082Y242844D01*
X287982Y242837D01*
X287881Y242834D01*
X287780Y242835D01*
X287680Y242840D01*
X287580Y242849D01*
X287480Y242861D01*
X287380Y242878D01*
X287282Y242898D01*
X287184Y242922D01*
X287087Y242950D01*
X286992Y242982D01*
X286898Y243017D01*
X286805Y243056D01*
X286713Y243099D01*
X286624Y243145D01*
X286536Y243194D01*
X286451Y243247D01*
X286367Y243303D01*
X284240Y244793D01*
X233170Y367311D02*
X234280Y370361D01*
X234281Y370361D02*
X234318Y370468D01*
X234351Y370576D01*
X234381Y370686D01*
X234406Y370796D01*
X234428Y370907D01*
X234445Y371019D01*
X234459Y371132D01*
X234469Y371245D01*
X234475Y371358D01*
X234477Y371471D01*
X234475Y371584D01*
X234469Y371697D01*
X234459Y371810D01*
X234445Y371923D01*
X234428Y372035D01*
X234406Y372146D01*
X234381Y372256D01*
X234351Y372366D01*
X234318Y372474D01*
X234281Y372581D01*
X234241Y372687D01*
X234196Y372791D01*
X234148Y372894D01*
X234097Y372995D01*
X234042Y373094D01*
X233984Y373191D01*
X233922Y373286D01*
X233857Y373379D01*
X233789Y373469D01*
X233718Y373557D01*
X233643Y373643D01*
X233566Y373726D01*
X233486Y373806D01*
X233403Y373883D01*
X233317Y373958D01*
X233229Y374029D01*
X233139Y374097D01*
X233046Y374162D01*
X232951Y374224D01*
X232854Y374282D01*
X232755Y374337D01*
X232654Y374388D01*
X232551Y374436D01*
X232447Y374481D01*
X232341Y374521D01*
X232234Y374558D01*
X232126Y374591D01*
X232016Y374621D01*
X231906Y374646D01*
X231795Y374668D01*
X231683Y374685D01*
X231570Y374699D01*
X231457Y374709D01*
X231344Y374715D01*
X231231Y374717D01*
X231118Y374715D01*
X231005Y374709D01*
X230892Y374699D01*
X230779Y374685D01*
X230667Y374668D01*
X230556Y374646D01*
X230446Y374621D01*
X230336Y374591D01*
X230228Y374558D01*
X230121Y374521D01*
X230015Y374481D01*
X229911Y374436D01*
X229808Y374388D01*
X229707Y374337D01*
X229608Y374282D01*
X229511Y374224D01*
X229416Y374162D01*
X229323Y374097D01*
X229233Y374029D01*
X229145Y373958D01*
X229059Y373883D01*
X228976Y373806D01*
X228896Y373726D01*
X228819Y373643D01*
X228744Y373557D01*
X228673Y373469D01*
X228605Y373379D01*
X228540Y373286D01*
X228478Y373191D01*
X228420Y373094D01*
X228365Y372995D01*
X228314Y372894D01*
X228266Y372791D01*
X228221Y372687D01*
X228181Y372581D01*
X223523Y374967D02*
X222191Y371308D01*
X223524Y374967D02*
X223560Y375061D01*
X223600Y375153D01*
X223643Y375244D01*
X223690Y375333D01*
X223740Y375420D01*
X223794Y375506D01*
X223851Y375589D01*
X223911Y375669D01*
X223974Y375748D01*
X224041Y375824D01*
X224110Y375897D01*
X224182Y375967D01*
X224256Y376035D01*
X224333Y376100D01*
X224413Y376161D01*
X224495Y376220D01*
X224579Y376275D01*
X224665Y376327D01*
X224753Y376376D01*
X224843Y376421D01*
X224935Y376463D01*
X225028Y376501D01*
X225123Y376535D01*
X225218Y376566D01*
X225315Y376593D01*
X225413Y376616D01*
X225512Y376636D01*
X225612Y376651D01*
X225712Y376663D01*
X225812Y376671D01*
X225913Y376675D01*
X226013Y376675D01*
X226114Y376671D01*
X226214Y376663D01*
X226314Y376651D01*
X226414Y376636D01*
X226513Y376616D01*
X226611Y376593D01*
X226708Y376566D01*
X226803Y376535D01*
X226898Y376501D01*
X226991Y376463D01*
X227083Y376421D01*
X227173Y376376D01*
X227261Y376327D01*
X227347Y376275D01*
X227431Y376220D01*
X227513Y376161D01*
X227593Y376100D01*
X227670Y376035D01*
X227744Y375967D01*
X227816Y375897D01*
X227885Y375824D01*
X227952Y375748D01*
X228015Y375669D01*
X228075Y375589D01*
X228132Y375506D01*
X228186Y375420D01*
X228236Y375333D01*
X228283Y375244D01*
X228326Y375153D01*
X228366Y375061D01*
X228402Y374967D01*
X228435Y374872D01*
X228464Y374775D01*
X228489Y374678D01*
X228510Y374579D01*
X228528Y374480D01*
X228541Y374380D01*
X228551Y374280D01*
X228557Y374180D01*
X228559Y374079D01*
X228557Y373978D01*
X228551Y373878D01*
X228541Y373778D01*
X228528Y373678D01*
X228510Y373579D01*
X228489Y373480D01*
X228464Y373383D01*
X228435Y373286D01*
X228402Y373191D01*
X228403Y373191D02*
X227515Y370751D01*
X225878Y381438D02*
X238190Y381102D01*
X228542Y388758D01*
X240989Y388793D02*
X242099Y391842D01*
X242099Y391843D02*
X242136Y391950D01*
X242169Y392058D01*
X242199Y392168D01*
X242224Y392278D01*
X242246Y392389D01*
X242263Y392501D01*
X242277Y392614D01*
X242287Y392727D01*
X242293Y392840D01*
X242295Y392953D01*
X242293Y393066D01*
X242287Y393179D01*
X242277Y393292D01*
X242263Y393405D01*
X242246Y393517D01*
X242224Y393628D01*
X242199Y393738D01*
X242169Y393848D01*
X242136Y393956D01*
X242099Y394063D01*
X242059Y394169D01*
X242014Y394273D01*
X241966Y394376D01*
X241915Y394477D01*
X241860Y394576D01*
X241802Y394673D01*
X241740Y394768D01*
X241675Y394861D01*
X241607Y394951D01*
X241536Y395039D01*
X241461Y395125D01*
X241384Y395208D01*
X241304Y395288D01*
X241221Y395365D01*
X241135Y395440D01*
X241047Y395511D01*
X240957Y395579D01*
X240864Y395644D01*
X240769Y395706D01*
X240672Y395764D01*
X240573Y395819D01*
X240472Y395870D01*
X240369Y395918D01*
X240265Y395963D01*
X240159Y396003D01*
X240052Y396040D01*
X239944Y396073D01*
X239834Y396103D01*
X239724Y396128D01*
X239613Y396150D01*
X239501Y396167D01*
X239388Y396181D01*
X239275Y396191D01*
X239162Y396197D01*
X239049Y396199D01*
X238936Y396197D01*
X238823Y396191D01*
X238710Y396181D01*
X238597Y396167D01*
X238485Y396150D01*
X238374Y396128D01*
X238264Y396103D01*
X238154Y396073D01*
X238046Y396040D01*
X237939Y396003D01*
X237833Y395963D01*
X237729Y395918D01*
X237626Y395870D01*
X237525Y395819D01*
X237426Y395764D01*
X237329Y395706D01*
X237234Y395644D01*
X237141Y395579D01*
X237051Y395511D01*
X236963Y395440D01*
X236877Y395365D01*
X236794Y395288D01*
X236714Y395208D01*
X236637Y395125D01*
X236562Y395039D01*
X236491Y394951D01*
X236423Y394861D01*
X236358Y394768D01*
X236296Y394673D01*
X236238Y394576D01*
X236183Y394477D01*
X236132Y394376D01*
X236084Y394273D01*
X236039Y394169D01*
X235999Y394063D01*
X231342Y396449D02*
X230009Y392789D01*
X231342Y396449D02*
X231378Y396543D01*
X231418Y396635D01*
X231461Y396726D01*
X231508Y396815D01*
X231558Y396902D01*
X231612Y396988D01*
X231669Y397071D01*
X231729Y397151D01*
X231792Y397230D01*
X231859Y397306D01*
X231928Y397379D01*
X232000Y397449D01*
X232074Y397517D01*
X232151Y397582D01*
X232231Y397643D01*
X232313Y397702D01*
X232397Y397757D01*
X232483Y397809D01*
X232571Y397858D01*
X232661Y397903D01*
X232753Y397945D01*
X232846Y397983D01*
X232941Y398017D01*
X233036Y398048D01*
X233133Y398075D01*
X233231Y398098D01*
X233330Y398118D01*
X233430Y398133D01*
X233530Y398145D01*
X233630Y398153D01*
X233731Y398157D01*
X233831Y398157D01*
X233932Y398153D01*
X234032Y398145D01*
X234132Y398133D01*
X234232Y398118D01*
X234331Y398098D01*
X234429Y398075D01*
X234526Y398048D01*
X234621Y398017D01*
X234716Y397983D01*
X234809Y397945D01*
X234901Y397903D01*
X234991Y397858D01*
X235079Y397809D01*
X235165Y397757D01*
X235249Y397702D01*
X235331Y397643D01*
X235411Y397582D01*
X235488Y397517D01*
X235562Y397449D01*
X235634Y397379D01*
X235703Y397306D01*
X235770Y397230D01*
X235833Y397151D01*
X235893Y397071D01*
X235950Y396988D01*
X236004Y396902D01*
X236054Y396815D01*
X236101Y396726D01*
X236144Y396635D01*
X236184Y396543D01*
X236220Y396449D01*
X236253Y396354D01*
X236282Y396257D01*
X236307Y396160D01*
X236328Y396061D01*
X236346Y395962D01*
X236359Y395862D01*
X236369Y395762D01*
X236375Y395662D01*
X236377Y395561D01*
X236375Y395460D01*
X236369Y395360D01*
X236359Y395260D01*
X236346Y395160D01*
X236328Y395061D01*
X236307Y394962D01*
X236282Y394865D01*
X236253Y394768D01*
X236220Y394673D01*
X236221Y394673D02*
X235333Y392233D01*
D11*
X344002Y404848D03*
D12*
X343487Y404995D03*
D13*
X342897Y405143D03*
D14*
X342456Y405290D03*
D15*
X341940Y405437D03*
D16*
X341498Y405585D03*
D17*
X340909Y405732D03*
D18*
X340393Y405879D03*
D19*
X339951Y406027D03*
D20*
X339509Y406174D03*
D21*
X339435Y406321D03*
D22*
X339509Y406469D03*
D23*
X339583Y406616D03*
D24*
X339509Y406763D03*
D25*
X339583Y406911D03*
D26*
X339583Y407058D03*
D27*
X339656Y407205D03*
X339656Y407353D03*
D28*
X339656Y407500D03*
D29*
X339730Y407647D03*
D30*
X339730Y407794D03*
X339730Y407942D03*
D31*
X339804Y408089D03*
D32*
X339804Y408236D03*
D33*
X339877Y408384D03*
D34*
X339804Y408531D03*
D35*
X339877Y408678D03*
D36*
X339951Y408826D03*
D37*
X339951Y408973D03*
X339951Y409120D03*
D38*
X340025Y409268D03*
D39*
X340025Y409415D03*
D40*
X340098Y409562D03*
D41*
X340025Y409710D03*
D42*
X340098Y409857D03*
D43*
X340172Y410004D03*
D44*
X340172Y410152D03*
X340172Y410299D03*
D45*
X340172Y410446D03*
D46*
X340246Y410594D03*
X340246Y410741D03*
D47*
X340246Y410888D03*
D48*
X340319Y411036D03*
D49*
X340319Y411183D03*
X340319Y411330D03*
D50*
X340393Y411477D03*
D51*
X340393Y411625D03*
D52*
X340467Y411772D03*
D53*
X340393Y411919D03*
D54*
X340467Y412067D03*
D55*
X340540Y412214D03*
D56*
X361018Y412214D03*
D57*
X340540Y412361D03*
D58*
X360429Y412361D03*
D57*
X340540Y412509D03*
D59*
X359987Y412509D03*
D60*
X340540Y412656D03*
D61*
X359471Y412656D03*
D62*
X340614Y412803D03*
D63*
X359029Y412803D03*
D62*
X340614Y412951D03*
D64*
X358440Y412951D03*
D65*
X340540Y413098D03*
D66*
X357998Y413098D03*
D65*
X340540Y413245D03*
D67*
X357482Y413245D03*
D62*
X340467Y413393D03*
D68*
X357040Y413393D03*
D65*
X340393Y413540D03*
D20*
X356893Y413540D03*
D65*
X340393Y413687D03*
D22*
X356893Y413687D03*
D65*
X340246Y413835D03*
D23*
X356967Y413835D03*
D65*
X340246Y413982D03*
D24*
X357040Y413982D03*
D62*
X340172Y414129D03*
D25*
X356967Y414129D03*
D65*
X340098Y414277D03*
D69*
X357040Y414277D03*
D65*
X340098Y414424D03*
D27*
X357040Y414424D03*
D65*
X339951Y414571D03*
D70*
X357114Y414571D03*
D65*
X339951Y414719D03*
D70*
X357114Y414719D03*
D62*
X339877Y414866D03*
D29*
X357114Y414866D03*
D65*
X339804Y415013D03*
D71*
X357188Y415013D03*
D65*
X339804Y415160D03*
D31*
X357188Y415160D03*
D65*
X339656Y415308D03*
D31*
X357188Y415308D03*
D65*
X339656Y415455D03*
D72*
X357261Y415455D03*
D62*
X339583Y415602D03*
D33*
X357261Y415602D03*
D60*
X339656Y415750D03*
D34*
X357335Y415750D03*
D60*
X339656Y415897D03*
D35*
X357261Y415897D03*
D73*
X339656Y416044D03*
D74*
X357335Y416044D03*
D75*
X339730Y416192D03*
D76*
X357408Y416192D03*
D54*
X339730Y416339D03*
D77*
X357408Y416339D03*
D54*
X339730Y416486D03*
D77*
X357408Y416486D03*
D53*
X339804Y416634D03*
D78*
X357482Y416634D03*
D51*
X339804Y416781D03*
D40*
X357482Y416781D03*
D79*
X339877Y416928D03*
D40*
X357482Y416928D03*
D50*
X339804Y417076D03*
D42*
X357482Y417076D03*
D80*
X339877Y417223D03*
D43*
X357556Y417223D03*
D81*
X339951Y417370D03*
D82*
X357629Y417370D03*
D47*
X339951Y417518D03*
D83*
X357556Y417518D03*
D47*
X339951Y417665D03*
D84*
X357629Y417665D03*
D85*
X340025Y417812D03*
D46*
X357629Y417812D03*
D45*
X340025Y417960D03*
D85*
X357703Y417960D03*
D45*
X340025Y418107D03*
D85*
X357703Y418107D03*
D83*
X340025Y418254D03*
D48*
X357703Y418254D03*
D86*
X340098Y418402D03*
D81*
X357777Y418402D03*
D43*
X340172Y418549D03*
D50*
X357777Y418549D03*
D42*
X340098Y418696D03*
D50*
X357777Y418696D03*
D41*
X340172Y418843D03*
D79*
X357850Y418843D03*
D39*
X340172Y418991D03*
D52*
X357850Y418991D03*
D78*
X340246Y419138D03*
D53*
X357924Y419138D03*
D78*
X340246Y419285D03*
D54*
X357850Y419285D03*
D87*
X340246Y419433D03*
D88*
X357924Y419433D03*
D76*
X340319Y419580D03*
D75*
X357998Y419580D03*
D35*
X340319Y419727D03*
D89*
X357998Y419727D03*
D35*
X340319Y419875D03*
D89*
X357998Y419875D03*
D34*
X340393Y420022D03*
D62*
X357998Y420022D03*
D32*
X340393Y420169D03*
D65*
X358071Y420169D03*
D72*
X340467Y420317D03*
D62*
X357998Y420317D03*
D31*
X340393Y420464D03*
D65*
X357924Y420464D03*
D90*
X340467Y420611D03*
D65*
X357924Y420611D03*
D91*
X340540Y420759D03*
D62*
X357850Y420759D03*
D28*
X340540Y420906D03*
D65*
X357777Y420906D03*
D28*
X340540Y421053D03*
D65*
X357777Y421053D03*
D70*
X340614Y421201D03*
D65*
X357629Y421201D03*
D26*
X340614Y421348D03*
D65*
X357629Y421348D03*
D69*
X340688Y421495D03*
D62*
X357556Y421495D03*
D92*
X340614Y421643D03*
D65*
X357482Y421643D03*
D24*
X340688Y421790D03*
D65*
X357482Y421790D03*
D23*
X340761Y421937D03*
D65*
X357335Y421937D03*
D22*
X340688Y422085D03*
D65*
X357335Y422085D03*
D21*
X340761Y422232D03*
D62*
X357261Y422232D03*
D68*
X340688Y422379D03*
D65*
X357188Y422379D03*
D93*
X340172Y422526D03*
D65*
X357188Y422526D03*
D66*
X339583Y422674D03*
D65*
X357040Y422674D03*
D64*
X339141Y422821D03*
D65*
X357040Y422821D03*
D94*
X338625Y422968D03*
D60*
X357040Y422968D03*
D95*
X338183Y423116D03*
D89*
X357114Y423116D03*
D59*
X337594Y423263D03*
D89*
X357114Y423263D03*
D96*
X337078Y423410D03*
D97*
X357114Y423410D03*
D98*
X336636Y423558D03*
D55*
X357188Y423558D03*
D99*
X346433Y423705D03*
D54*
X357114Y423705D03*
D100*
X345918Y423852D03*
D53*
X357188Y423852D03*
D13*
X345402Y424000D03*
D52*
X357261Y424000D03*
D101*
X344886Y424147D03*
D79*
X357261Y424147D03*
D15*
X344444Y424294D03*
D79*
X357261Y424294D03*
D102*
X343929Y424442D03*
D80*
X357261Y424442D03*
D17*
X343413Y424589D03*
D103*
X357335Y424589D03*
D18*
X342897Y424736D03*
D48*
X357408Y424736D03*
D104*
X342382Y424884D03*
D47*
X357335Y424884D03*
D105*
X341940Y425031D03*
D85*
X357408Y425031D03*
D21*
X341940Y425178D03*
D46*
X357482Y425178D03*
D22*
X342014Y425326D03*
D84*
X357482Y425326D03*
D23*
X342087Y425473D03*
D84*
X357482Y425473D03*
D24*
X342014Y425620D03*
D86*
X357482Y425620D03*
D25*
X342087Y425768D03*
D43*
X357556Y425768D03*
D106*
X342087Y425915D03*
D42*
X357629Y425915D03*
D27*
X342161Y426062D03*
D41*
X357556Y426062D03*
D27*
X342161Y426209D03*
D40*
X357629Y426209D03*
D28*
X342161Y426357D03*
D78*
X357629Y426357D03*
D29*
X342235Y426504D03*
D38*
X357703Y426504D03*
D30*
X342235Y426651D03*
D38*
X357703Y426651D03*
D30*
X342235Y426799D03*
D107*
X357703Y426799D03*
D31*
X342308Y426946D03*
D74*
X357777Y426946D03*
D32*
X342308Y427093D03*
D34*
X357777Y427093D03*
D33*
X342382Y427241D03*
D34*
X357777Y427241D03*
X342308Y427388D03*
D33*
X357850Y427388D03*
D35*
X342382Y427535D03*
D72*
X357850Y427535D03*
D74*
X342456Y427683D03*
D72*
X357850Y427683D03*
D37*
X342456Y427830D03*
D90*
X357850Y427830D03*
D37*
X342456Y427977D03*
D71*
X357924Y427977D03*
D78*
X342456Y428125D03*
D29*
X357998Y428125D03*
D39*
X342529Y428272D03*
D28*
X357924Y428272D03*
D40*
X342603Y428419D03*
D70*
X357998Y428419D03*
D41*
X342529Y428567D03*
D26*
X357998Y428567D03*
D42*
X342603Y428714D03*
D108*
X358071Y428714D03*
D86*
X342603Y428861D03*
D108*
X358071Y428861D03*
D44*
X342676Y429009D03*
D24*
X358071Y429009D03*
D44*
X342676Y429156D03*
D23*
X358145Y429156D03*
D45*
X342676Y429303D03*
D22*
X358219Y429303D03*
D46*
X342750Y429451D03*
D21*
X358145Y429451D03*
D46*
X342750Y429598D03*
D105*
X358145Y429598D03*
D47*
X342750Y429745D03*
D109*
X357703Y429745D03*
D48*
X342824Y429892D03*
D110*
X357188Y429892D03*
D49*
X342824Y430040D03*
D17*
X356672Y430040D03*
D49*
X342824Y430187D03*
D111*
X356156Y430187D03*
D50*
X342897Y430334D03*
D112*
X355714Y430334D03*
D51*
X342897Y430482D03*
D113*
X355199Y430482D03*
D52*
X342971Y430629D03*
D13*
X354683Y430629D03*
D53*
X342897Y430776D03*
D114*
X354167Y430776D03*
D54*
X342971Y430924D03*
D11*
X353725Y430924D03*
D55*
X343045Y431071D03*
D57*
X343045Y431218D03*
X343045Y431366D03*
D60*
X343045Y431513D03*
D62*
X343118Y431660D03*
X343118Y431808D03*
D65*
X343045Y431955D03*
X343045Y432102D03*
X342897Y432250D03*
X342897Y432397D03*
D62*
X342824Y432544D03*
D65*
X342750Y432692D03*
X342750Y432839D03*
X342603Y432986D03*
X342603Y433134D03*
D62*
X342529Y433281D03*
D65*
X342456Y433428D03*
X342456Y433575D03*
D62*
X342382Y433723D03*
D65*
X342308Y433870D03*
X342308Y434017D03*
X342161Y434165D03*
X342161Y434312D03*
D62*
X342087Y434459D03*
D60*
X342161Y434607D03*
X342161Y434754D03*
D73*
X342161Y434901D03*
D75*
X342235Y435049D03*
D54*
X342235Y435196D03*
X342235Y435343D03*
D53*
X342308Y435491D03*
D51*
X342308Y435638D03*
D79*
X342382Y435785D03*
D50*
X342308Y435933D03*
D80*
X342382Y436080D03*
D81*
X342456Y436227D03*
D115*
X342382Y436375D03*
D47*
X342456Y436522D03*
D46*
X342456Y436669D03*
D45*
X342529Y436817D03*
X342529Y436964D03*
D83*
X342529Y437111D03*
D86*
X342603Y437258D03*
D42*
X342603Y437406D03*
X342603Y437553D03*
D41*
X342676Y437700D03*
D39*
X342676Y437848D03*
D78*
X342750Y437995D03*
X342750Y438142D03*
D87*
X342750Y438290D03*
D76*
X342824Y438437D03*
D35*
X342824Y438584D03*
X342824Y438732D03*
D34*
X342897Y438879D03*
D32*
X342897Y439026D03*
D72*
X342971Y439174D03*
D31*
X342897Y439321D03*
D90*
X342971Y439468D03*
D91*
X343045Y439616D03*
D28*
X343045Y439763D03*
X343045Y439910D03*
D27*
X343045Y440058D03*
D26*
X343118Y440205D03*
D69*
X343192Y440352D03*
D92*
X343118Y440500D03*
D24*
X343192Y440647D03*
D22*
X343192Y440794D03*
X343192Y440941D03*
D21*
X343266Y441089D03*
D116*
X343118Y441236D03*
D117*
X342603Y441383D03*
D66*
X342087Y441531D03*
D118*
X341572Y441678D03*
D94*
X341130Y441825D03*
D119*
X340614Y441973D03*
D59*
X340098Y442120D03*
D96*
X339583Y442267D03*
D120*
X339067Y442415D03*
D121*
X311202Y346202D02*
X311213Y347061D01*
X311244Y347919D01*
X311297Y348777D01*
X311371Y349633D01*
X311465Y350486D01*
X311581Y351338D01*
X311717Y352186D01*
X311875Y353030D01*
X312052Y353871D01*
X312251Y354706D01*
X312470Y355537D01*
X312709Y356362D01*
X312969Y357181D01*
X313248Y357993D01*
X313547Y358798D01*
X313866Y359596D01*
X314205Y360385D01*
X314562Y361166D01*
X314939Y361938D01*
X315335Y362701D01*
X315749Y363453D01*
X316181Y364196D01*
X316632Y364927D01*
X317101Y365647D01*
X317587Y366355D01*
X318090Y367051D01*
X318610Y367735D01*
X319147Y368406D01*
X319700Y369063D01*
X320269Y369707D01*
X320853Y370336D01*
X321453Y370951D01*
X322068Y371551D01*
X322697Y372135D01*
X323341Y372704D01*
X323998Y373257D01*
X324669Y373794D01*
X325353Y374314D01*
X326049Y374817D01*
X326757Y375303D01*
X327477Y375772D01*
X328208Y376223D01*
X328951Y376655D01*
X329703Y377069D01*
X330466Y377465D01*
X331238Y377842D01*
X332019Y378199D01*
X332808Y378538D01*
X333606Y378857D01*
X334411Y379156D01*
X335223Y379435D01*
X336042Y379695D01*
X336867Y379934D01*
X337698Y380153D01*
X338533Y380352D01*
X339374Y380529D01*
X340218Y380687D01*
X341066Y380823D01*
X341918Y380939D01*
X342771Y381033D01*
X343627Y381107D01*
X344485Y381160D01*
X345343Y381191D01*
X346202Y381202D01*
X347061Y381191D01*
X347919Y381160D01*
X348777Y381107D01*
X349633Y381033D01*
X350486Y380939D01*
X351338Y380823D01*
X352186Y380687D01*
X353030Y380529D01*
X353871Y380352D01*
X354706Y380153D01*
X355537Y379934D01*
X356362Y379695D01*
X357181Y379435D01*
X357993Y379156D01*
X358798Y378857D01*
X359596Y378538D01*
X360385Y378199D01*
X361166Y377842D01*
X361938Y377465D01*
X362701Y377069D01*
X363453Y376655D01*
X364196Y376223D01*
X364927Y375772D01*
X365647Y375303D01*
X366355Y374817D01*
X367051Y374314D01*
X367735Y373794D01*
X368406Y373257D01*
X369063Y372704D01*
X369707Y372135D01*
X370336Y371551D01*
X370951Y370951D01*
X371551Y370336D01*
X372135Y369707D01*
X372704Y369063D01*
X373257Y368406D01*
X373794Y367735D01*
X374314Y367051D01*
X374817Y366355D01*
X375303Y365647D01*
X375772Y364927D01*
X376223Y364196D01*
X376655Y363453D01*
X377069Y362701D01*
X377465Y361938D01*
X377842Y361166D01*
X378199Y360385D01*
X378538Y359596D01*
X378857Y358798D01*
X379156Y357993D01*
X379435Y357181D01*
X379695Y356362D01*
X379934Y355537D01*
X380153Y354706D01*
X380352Y353871D01*
X380529Y353030D01*
X380687Y352186D01*
X380823Y351338D01*
X380939Y350486D01*
X381033Y349633D01*
X381107Y348777D01*
X381160Y347919D01*
X381191Y347061D01*
X381202Y346202D01*
X381191Y345343D01*
X381160Y344485D01*
X381107Y343627D01*
X381033Y342771D01*
X380939Y341918D01*
X380823Y341066D01*
X380687Y340218D01*
X380529Y339374D01*
X380352Y338533D01*
X380153Y337698D01*
X379934Y336867D01*
X379695Y336042D01*
X379435Y335223D01*
X379156Y334411D01*
X378857Y333606D01*
X378538Y332808D01*
X378199Y332019D01*
X377842Y331238D01*
X377465Y330466D01*
X377069Y329703D01*
X376655Y328951D01*
X376223Y328208D01*
X375772Y327477D01*
X375303Y326757D01*
X374817Y326049D01*
X374314Y325353D01*
X373794Y324669D01*
X373257Y323998D01*
X372704Y323341D01*
X372135Y322697D01*
X371551Y322068D01*
X370951Y321453D01*
X370336Y320853D01*
X369707Y320269D01*
X369063Y319700D01*
X368406Y319147D01*
X367735Y318610D01*
X367051Y318090D01*
X366355Y317587D01*
X365647Y317101D01*
X364927Y316632D01*
X364196Y316181D01*
X363453Y315749D01*
X362701Y315335D01*
X361938Y314939D01*
X361166Y314562D01*
X360385Y314205D01*
X359596Y313866D01*
X358798Y313547D01*
X357993Y313248D01*
X357181Y312969D01*
X356362Y312709D01*
X355537Y312470D01*
X354706Y312251D01*
X353871Y312052D01*
X353030Y311875D01*
X352186Y311717D01*
X351338Y311581D01*
X350486Y311465D01*
X349633Y311371D01*
X348777Y311297D01*
X347919Y311244D01*
X347061Y311213D01*
X346202Y311202D01*
X345343Y311213D01*
X344485Y311244D01*
X343627Y311297D01*
X342771Y311371D01*
X341918Y311465D01*
X341066Y311581D01*
X340218Y311717D01*
X339374Y311875D01*
X338533Y312052D01*
X337698Y312251D01*
X336867Y312470D01*
X336042Y312709D01*
X335223Y312969D01*
X334411Y313248D01*
X333606Y313547D01*
X332808Y313866D01*
X332019Y314205D01*
X331238Y314562D01*
X330466Y314939D01*
X329703Y315335D01*
X328951Y315749D01*
X328208Y316181D01*
X327477Y316632D01*
X326757Y317101D01*
X326049Y317587D01*
X325353Y318090D01*
X324669Y318610D01*
X323998Y319147D01*
X323341Y319700D01*
X322697Y320269D01*
X322068Y320853D01*
X321453Y321453D01*
X320853Y322068D01*
X320269Y322697D01*
X319700Y323341D01*
X319147Y323998D01*
X318610Y324669D01*
X318090Y325353D01*
X317587Y326049D01*
X317101Y326757D01*
X316632Y327477D01*
X316181Y328208D01*
X315749Y328951D01*
X315335Y329703D01*
X314939Y330466D01*
X314562Y331238D01*
X314205Y332019D01*
X313866Y332808D01*
X313547Y333606D01*
X313248Y334411D01*
X312969Y335223D01*
X312709Y336042D01*
X312470Y336867D01*
X312251Y337698D01*
X312052Y338533D01*
X311875Y339374D01*
X311717Y340218D01*
X311581Y341066D01*
X311465Y341918D01*
X311371Y342771D01*
X311297Y343627D01*
X311244Y344485D01*
X311213Y345343D01*
X311202Y346202D01*
X300202Y346202D02*
X300216Y347331D01*
X300257Y348459D01*
X300327Y349586D01*
X300424Y350711D01*
X300548Y351833D01*
X300700Y352952D01*
X300879Y354066D01*
X301086Y355176D01*
X301320Y356281D01*
X301581Y357379D01*
X301868Y358471D01*
X302183Y359555D01*
X302524Y360631D01*
X302891Y361699D01*
X303284Y362757D01*
X303704Y363805D01*
X304148Y364843D01*
X304618Y365870D01*
X305114Y366884D01*
X305634Y367886D01*
X306178Y368875D01*
X306746Y369851D01*
X307339Y370812D01*
X307954Y371758D01*
X308593Y372689D01*
X309254Y373604D01*
X309938Y374503D01*
X310644Y375384D01*
X311370Y376248D01*
X312118Y377094D01*
X312887Y377921D01*
X313675Y378729D01*
X314483Y379517D01*
X315310Y380286D01*
X316156Y381034D01*
X317020Y381760D01*
X317901Y382466D01*
X318800Y383150D01*
X319715Y383811D01*
X320646Y384450D01*
X321592Y385065D01*
X322553Y385658D01*
X323529Y386226D01*
X324518Y386770D01*
X325520Y387290D01*
X326534Y387786D01*
X327561Y388256D01*
X328599Y388700D01*
X329647Y389120D01*
X330705Y389513D01*
X331773Y389880D01*
X332849Y390221D01*
X333933Y390536D01*
X335025Y390823D01*
X336123Y391084D01*
X337228Y391318D01*
X338338Y391525D01*
X339452Y391704D01*
X340571Y391856D01*
X341693Y391980D01*
X342818Y392077D01*
X343945Y392147D01*
X345073Y392188D01*
X346202Y392202D01*
X347331Y392188D01*
X348459Y392147D01*
X349586Y392077D01*
X350711Y391980D01*
X351833Y391856D01*
X352952Y391704D01*
X354066Y391525D01*
X355176Y391318D01*
X356281Y391084D01*
X357379Y390823D01*
X358471Y390536D01*
X359555Y390221D01*
X360631Y389880D01*
X361699Y389513D01*
X362757Y389120D01*
X363805Y388700D01*
X364843Y388256D01*
X365870Y387786D01*
X366884Y387290D01*
X367886Y386770D01*
X368875Y386226D01*
X369851Y385658D01*
X370812Y385065D01*
X371758Y384450D01*
X372689Y383811D01*
X373604Y383150D01*
X374503Y382466D01*
X375384Y381760D01*
X376248Y381034D01*
X377094Y380286D01*
X377921Y379517D01*
X378729Y378729D01*
X379517Y377921D01*
X380286Y377094D01*
X381034Y376248D01*
X381760Y375384D01*
X382466Y374503D01*
X383150Y373604D01*
X383811Y372689D01*
X384450Y371758D01*
X385065Y370812D01*
X385658Y369851D01*
X386226Y368875D01*
X386770Y367886D01*
X387290Y366884D01*
X387786Y365870D01*
X388256Y364843D01*
X388700Y363805D01*
X389120Y362757D01*
X389513Y361699D01*
X389880Y360631D01*
X390221Y359555D01*
X390536Y358471D01*
X390823Y357379D01*
X391084Y356281D01*
X391318Y355176D01*
X391525Y354066D01*
X391704Y352952D01*
X391856Y351833D01*
X391980Y350711D01*
X392077Y349586D01*
X392147Y348459D01*
X392188Y347331D01*
X392202Y346202D01*
X392188Y345073D01*
X392147Y343945D01*
X392077Y342818D01*
X391980Y341693D01*
X391856Y340571D01*
X391704Y339452D01*
X391525Y338338D01*
X391318Y337228D01*
X391084Y336123D01*
X390823Y335025D01*
X390536Y333933D01*
X390221Y332849D01*
X389880Y331773D01*
X389513Y330705D01*
X389120Y329647D01*
X388700Y328599D01*
X388256Y327561D01*
X387786Y326534D01*
X387290Y325520D01*
X386770Y324518D01*
X386226Y323529D01*
X385658Y322553D01*
X385065Y321592D01*
X384450Y320646D01*
X383811Y319715D01*
X383150Y318800D01*
X382466Y317901D01*
X381760Y317020D01*
X381034Y316156D01*
X380286Y315310D01*
X379517Y314483D01*
X378729Y313675D01*
X377921Y312887D01*
X377094Y312118D01*
X376248Y311370D01*
X375384Y310644D01*
X374503Y309938D01*
X373604Y309254D01*
X372689Y308593D01*
X371758Y307954D01*
X370812Y307339D01*
X369851Y306746D01*
X368875Y306178D01*
X367886Y305634D01*
X366884Y305114D01*
X365870Y304618D01*
X364843Y304148D01*
X363805Y303704D01*
X362757Y303284D01*
X361699Y302891D01*
X360631Y302524D01*
X359555Y302183D01*
X358471Y301868D01*
X357379Y301581D01*
X356281Y301320D01*
X355176Y301086D01*
X354066Y300879D01*
X352952Y300700D01*
X351833Y300548D01*
X350711Y300424D01*
X349586Y300327D01*
X348459Y300257D01*
X347331Y300216D01*
X346202Y300202D01*
X345073Y300216D01*
X343945Y300257D01*
X342818Y300327D01*
X341693Y300424D01*
X340571Y300548D01*
X339452Y300700D01*
X338338Y300879D01*
X337228Y301086D01*
X336123Y301320D01*
X335025Y301581D01*
X333933Y301868D01*
X332849Y302183D01*
X331773Y302524D01*
X330705Y302891D01*
X329647Y303284D01*
X328599Y303704D01*
X327561Y304148D01*
X326534Y304618D01*
X325520Y305114D01*
X324518Y305634D01*
X323529Y306178D01*
X322553Y306746D01*
X321592Y307339D01*
X320646Y307954D01*
X319715Y308593D01*
X318800Y309254D01*
X317901Y309938D01*
X317020Y310644D01*
X316156Y311370D01*
X315310Y312118D01*
X314483Y312887D01*
X313675Y313675D01*
X312887Y314483D01*
X312118Y315310D01*
X311370Y316156D01*
X310644Y317020D01*
X309938Y317901D01*
X309254Y318800D01*
X308593Y319715D01*
X307954Y320646D01*
X307339Y321592D01*
X306746Y322553D01*
X306178Y323529D01*
X305634Y324518D01*
X305114Y325520D01*
X304618Y326534D01*
X304148Y327561D01*
X303704Y328599D01*
X303284Y329647D01*
X302891Y330705D01*
X302524Y331773D01*
X302183Y332849D01*
X301868Y333933D01*
X301581Y335025D01*
X301320Y336123D01*
X301086Y337228D01*
X300879Y338338D01*
X300700Y339452D01*
X300548Y340571D01*
X300424Y341693D01*
X300327Y342818D01*
X300257Y343945D01*
X300216Y345073D01*
X300202Y346202D01*
X317702Y346202D02*
X317711Y346901D01*
X317736Y347600D01*
X317779Y348299D01*
X317839Y348995D01*
X317916Y349691D01*
X318010Y350384D01*
X318122Y351074D01*
X318250Y351762D01*
X318394Y352446D01*
X318556Y353127D01*
X318734Y353803D01*
X318929Y354475D01*
X319140Y355142D01*
X319368Y355803D01*
X319612Y356459D01*
X319871Y357108D01*
X320147Y357751D01*
X320438Y358387D01*
X320745Y359016D01*
X321067Y359637D01*
X321405Y360250D01*
X321757Y360854D01*
X322124Y361449D01*
X322505Y362036D01*
X322901Y362613D01*
X323311Y363179D01*
X323734Y363736D01*
X324171Y364282D01*
X324622Y364817D01*
X325085Y365341D01*
X325561Y365854D01*
X326049Y366355D01*
X326550Y366843D01*
X327063Y367319D01*
X327587Y367782D01*
X328122Y368233D01*
X328668Y368670D01*
X329225Y369093D01*
X329791Y369503D01*
X330368Y369899D01*
X330955Y370280D01*
X331550Y370647D01*
X332154Y370999D01*
X332767Y371337D01*
X333388Y371659D01*
X334017Y371966D01*
X334653Y372257D01*
X335296Y372533D01*
X335945Y372792D01*
X336601Y373036D01*
X337262Y373264D01*
X337929Y373475D01*
X338601Y373670D01*
X339277Y373848D01*
X339958Y374010D01*
X340642Y374154D01*
X341330Y374282D01*
X342020Y374394D01*
X342713Y374488D01*
X343409Y374565D01*
X344105Y374625D01*
X344804Y374668D01*
X345503Y374693D01*
X346202Y374702D01*
X346901Y374693D01*
X347600Y374668D01*
X348299Y374625D01*
X348995Y374565D01*
X349691Y374488D01*
X350384Y374394D01*
X351074Y374282D01*
X351762Y374154D01*
X352446Y374010D01*
X353127Y373848D01*
X353803Y373670D01*
X354475Y373475D01*
X355142Y373264D01*
X355803Y373036D01*
X356459Y372792D01*
X357108Y372533D01*
X357751Y372257D01*
X358387Y371966D01*
X359016Y371659D01*
X359637Y371337D01*
X360250Y370999D01*
X360854Y370647D01*
X361449Y370280D01*
X362036Y369899D01*
X362613Y369503D01*
X363179Y369093D01*
X363736Y368670D01*
X364282Y368233D01*
X364817Y367782D01*
X365341Y367319D01*
X365854Y366843D01*
X366355Y366355D01*
X366843Y365854D01*
X367319Y365341D01*
X367782Y364817D01*
X368233Y364282D01*
X368670Y363736D01*
X369093Y363179D01*
X369503Y362613D01*
X369899Y362036D01*
X370280Y361449D01*
X370647Y360854D01*
X370999Y360250D01*
X371337Y359637D01*
X371659Y359016D01*
X371966Y358387D01*
X372257Y357751D01*
X372533Y357108D01*
X372792Y356459D01*
X373036Y355803D01*
X373264Y355142D01*
X373475Y354475D01*
X373670Y353803D01*
X373848Y353127D01*
X374010Y352446D01*
X374154Y351762D01*
X374282Y351074D01*
X374394Y350384D01*
X374488Y349691D01*
X374565Y348995D01*
X374625Y348299D01*
X374668Y347600D01*
X374693Y346901D01*
X374702Y346202D01*
X374693Y345503D01*
X374668Y344804D01*
X374625Y344105D01*
X374565Y343409D01*
X374488Y342713D01*
X374394Y342020D01*
X374282Y341330D01*
X374154Y340642D01*
X374010Y339958D01*
X373848Y339277D01*
X373670Y338601D01*
X373475Y337929D01*
X373264Y337262D01*
X373036Y336601D01*
X372792Y335945D01*
X372533Y335296D01*
X372257Y334653D01*
X371966Y334017D01*
X371659Y333388D01*
X371337Y332767D01*
X370999Y332154D01*
X370647Y331550D01*
X370280Y330955D01*
X369899Y330368D01*
X369503Y329791D01*
X369093Y329225D01*
X368670Y328668D01*
X368233Y328122D01*
X367782Y327587D01*
X367319Y327063D01*
X366843Y326550D01*
X366355Y326049D01*
X365854Y325561D01*
X365341Y325085D01*
X364817Y324622D01*
X364282Y324171D01*
X363736Y323734D01*
X363179Y323311D01*
X362613Y322901D01*
X362036Y322505D01*
X361449Y322124D01*
X360854Y321757D01*
X360250Y321405D01*
X359637Y321067D01*
X359016Y320745D01*
X358387Y320438D01*
X357751Y320147D01*
X357108Y319871D01*
X356459Y319612D01*
X355803Y319368D01*
X355142Y319140D01*
X354475Y318929D01*
X353803Y318734D01*
X353127Y318556D01*
X352446Y318394D01*
X351762Y318250D01*
X351074Y318122D01*
X350384Y318010D01*
X349691Y317916D01*
X348995Y317839D01*
X348299Y317779D01*
X347600Y317736D01*
X346901Y317711D01*
X346202Y317702D01*
X345503Y317711D01*
X344804Y317736D01*
X344105Y317779D01*
X343409Y317839D01*
X342713Y317916D01*
X342020Y318010D01*
X341330Y318122D01*
X340642Y318250D01*
X339958Y318394D01*
X339277Y318556D01*
X338601Y318734D01*
X337929Y318929D01*
X337262Y319140D01*
X336601Y319368D01*
X335945Y319612D01*
X335296Y319871D01*
X334653Y320147D01*
X334017Y320438D01*
X333388Y320745D01*
X332767Y321067D01*
X332154Y321405D01*
X331550Y321757D01*
X330955Y322124D01*
X330368Y322505D01*
X329791Y322901D01*
X329225Y323311D01*
X328668Y323734D01*
X328122Y324171D01*
X327587Y324622D01*
X327063Y325085D01*
X326550Y325561D01*
X326049Y326049D01*
X325561Y326550D01*
X325085Y327063D01*
X324622Y327587D01*
X324171Y328122D01*
X323734Y328668D01*
X323311Y329225D01*
X322901Y329791D01*
X322505Y330368D01*
X322124Y330955D01*
X321757Y331550D01*
X321405Y332154D01*
X321067Y332767D01*
X320745Y333388D01*
X320438Y334017D01*
X320147Y334653D01*
X319871Y335296D01*
X319612Y335945D01*
X319368Y336601D01*
X319140Y337262D01*
X318929Y337929D01*
X318734Y338601D01*
X318556Y339277D01*
X318394Y339958D01*
X318250Y340642D01*
X318122Y341330D01*
X318010Y342020D01*
X317916Y342713D01*
X317839Y343409D01*
X317779Y344105D01*
X317736Y344804D01*
X317711Y345503D01*
X317702Y346202D01*
D122*
X356870Y354330D02*
X381000Y378460D01*
X392537Y378460D01*
X402537Y378460D02*
X414073Y378460D01*
X424073Y378460D02*
X435610Y378460D01*
D10*
X413103Y383286D02*
X413103Y396494D01*
X417506Y389156D01*
X421909Y396494D01*
X421909Y383286D01*
X431955Y396494D02*
X432068Y396492D01*
X432180Y396486D01*
X432293Y396477D01*
X432405Y396463D01*
X432516Y396446D01*
X432627Y396425D01*
X432737Y396400D01*
X432846Y396372D01*
X432954Y396339D01*
X433061Y396303D01*
X433166Y396264D01*
X433271Y396221D01*
X433373Y396174D01*
X433474Y396124D01*
X433573Y396070D01*
X433671Y396013D01*
X433766Y395953D01*
X433859Y395890D01*
X433950Y395823D01*
X434039Y395753D01*
X434125Y395681D01*
X434209Y395605D01*
X434290Y395527D01*
X434368Y395446D01*
X434444Y395362D01*
X434516Y395276D01*
X434586Y395187D01*
X434653Y395096D01*
X434716Y395003D01*
X434776Y394908D01*
X434833Y394810D01*
X434887Y394711D01*
X434937Y394610D01*
X434984Y394508D01*
X435027Y394403D01*
X435066Y394298D01*
X435102Y394191D01*
X435135Y394083D01*
X435163Y393974D01*
X435188Y393864D01*
X435209Y393753D01*
X435226Y393642D01*
X435240Y393530D01*
X435249Y393417D01*
X435255Y393305D01*
X435257Y393192D01*
X431955Y396494D02*
X431828Y396492D01*
X431701Y396486D01*
X431574Y396477D01*
X431448Y396464D01*
X431322Y396447D01*
X431197Y396426D01*
X431072Y396401D01*
X430949Y396373D01*
X430826Y396341D01*
X430704Y396305D01*
X430583Y396266D01*
X430463Y396223D01*
X430345Y396177D01*
X430228Y396127D01*
X430113Y396073D01*
X430000Y396016D01*
X429888Y395956D01*
X429778Y395893D01*
X429670Y395826D01*
X429564Y395756D01*
X429460Y395683D01*
X429358Y395606D01*
X429259Y395527D01*
X429162Y395445D01*
X429068Y395360D01*
X428976Y395272D01*
X428887Y395182D01*
X428801Y395088D01*
X428717Y394993D01*
X428637Y394895D01*
X428559Y394794D01*
X428484Y394691D01*
X428413Y394586D01*
X428345Y394479D01*
X428280Y394370D01*
X428218Y394259D01*
X428159Y394146D01*
X428104Y394032D01*
X428053Y393916D01*
X428005Y393798D01*
X427960Y393679D01*
X427919Y393559D01*
X434156Y390624D02*
X434238Y390704D01*
X434317Y390787D01*
X434394Y390873D01*
X434468Y390961D01*
X434538Y391052D01*
X434606Y391144D01*
X434671Y391239D01*
X434733Y391336D01*
X434791Y391435D01*
X434847Y391536D01*
X434899Y391638D01*
X434947Y391742D01*
X434992Y391848D01*
X435034Y391955D01*
X435073Y392063D01*
X435107Y392173D01*
X435139Y392283D01*
X435166Y392395D01*
X435190Y392507D01*
X435211Y392620D01*
X435227Y392734D01*
X435240Y392848D01*
X435250Y392962D01*
X435255Y393077D01*
X435257Y393192D01*
X434156Y390624D02*
X427919Y383286D01*
X435257Y383286D01*
X399062Y364744D02*
X399062Y351536D01*
X403465Y357406D02*
X399062Y364744D01*
X403465Y357406D02*
X407868Y364744D01*
X407868Y351536D01*
X417914Y364744D02*
X418027Y364742D01*
X418139Y364736D01*
X418252Y364727D01*
X418364Y364713D01*
X418475Y364696D01*
X418586Y364675D01*
X418696Y364650D01*
X418805Y364622D01*
X418913Y364589D01*
X419020Y364553D01*
X419125Y364514D01*
X419230Y364471D01*
X419332Y364424D01*
X419433Y364374D01*
X419532Y364320D01*
X419630Y364263D01*
X419725Y364203D01*
X419818Y364140D01*
X419909Y364073D01*
X419998Y364003D01*
X420084Y363931D01*
X420168Y363855D01*
X420249Y363777D01*
X420327Y363696D01*
X420403Y363612D01*
X420475Y363526D01*
X420545Y363437D01*
X420612Y363346D01*
X420675Y363253D01*
X420735Y363158D01*
X420792Y363060D01*
X420846Y362961D01*
X420896Y362860D01*
X420943Y362758D01*
X420986Y362653D01*
X421025Y362548D01*
X421061Y362441D01*
X421094Y362333D01*
X421122Y362224D01*
X421147Y362114D01*
X421168Y362003D01*
X421185Y361892D01*
X421199Y361780D01*
X421208Y361667D01*
X421214Y361555D01*
X421216Y361442D01*
X417914Y364744D02*
X417787Y364742D01*
X417660Y364736D01*
X417533Y364727D01*
X417407Y364714D01*
X417281Y364697D01*
X417156Y364676D01*
X417031Y364651D01*
X416908Y364623D01*
X416785Y364591D01*
X416663Y364555D01*
X416542Y364516D01*
X416422Y364473D01*
X416304Y364427D01*
X416187Y364377D01*
X416072Y364323D01*
X415959Y364266D01*
X415847Y364206D01*
X415737Y364143D01*
X415629Y364076D01*
X415523Y364006D01*
X415419Y363933D01*
X415317Y363856D01*
X415218Y363777D01*
X415121Y363695D01*
X415027Y363610D01*
X414935Y363522D01*
X414846Y363432D01*
X414760Y363338D01*
X414676Y363243D01*
X414596Y363145D01*
X414518Y363044D01*
X414443Y362941D01*
X414372Y362836D01*
X414304Y362729D01*
X414239Y362620D01*
X414177Y362509D01*
X414118Y362396D01*
X414063Y362282D01*
X414012Y362166D01*
X413964Y362048D01*
X413919Y361929D01*
X413878Y361809D01*
X420115Y358874D02*
X420197Y358954D01*
X420276Y359037D01*
X420353Y359123D01*
X420427Y359211D01*
X420497Y359302D01*
X420565Y359394D01*
X420630Y359489D01*
X420692Y359586D01*
X420750Y359685D01*
X420806Y359786D01*
X420858Y359888D01*
X420906Y359992D01*
X420951Y360098D01*
X420993Y360205D01*
X421032Y360313D01*
X421066Y360423D01*
X421098Y360533D01*
X421125Y360645D01*
X421149Y360757D01*
X421170Y360870D01*
X421186Y360984D01*
X421199Y361098D01*
X421209Y361212D01*
X421214Y361327D01*
X421216Y361442D01*
X420115Y358874D02*
X413878Y351536D01*
X421216Y351536D01*
X426141Y351536D02*
X426141Y352270D01*
X426875Y352270D01*
X426875Y351536D01*
X426141Y351536D01*
X431800Y351536D02*
X436203Y351536D01*
X436310Y351538D01*
X436417Y351544D01*
X436524Y351554D01*
X436630Y351567D01*
X436736Y351585D01*
X436841Y351606D01*
X436945Y351631D01*
X437049Y351660D01*
X437151Y351693D01*
X437251Y351730D01*
X437351Y351770D01*
X437449Y351814D01*
X437545Y351861D01*
X437639Y351912D01*
X437732Y351966D01*
X437822Y352023D01*
X437911Y352084D01*
X437997Y352148D01*
X438080Y352215D01*
X438162Y352285D01*
X438240Y352358D01*
X438316Y352434D01*
X438389Y352512D01*
X438459Y352594D01*
X438526Y352677D01*
X438590Y352763D01*
X438651Y352852D01*
X438708Y352942D01*
X438762Y353035D01*
X438813Y353129D01*
X438861Y353225D01*
X438904Y353323D01*
X438944Y353423D01*
X438981Y353523D01*
X439014Y353625D01*
X439043Y353729D01*
X439068Y353833D01*
X439089Y353938D01*
X439107Y354044D01*
X439120Y354150D01*
X439130Y354257D01*
X439136Y354364D01*
X439138Y354471D01*
X439138Y355939D01*
X439136Y356046D01*
X439130Y356153D01*
X439120Y356260D01*
X439107Y356366D01*
X439089Y356472D01*
X439068Y356577D01*
X439043Y356681D01*
X439014Y356785D01*
X438981Y356887D01*
X438944Y356987D01*
X438904Y357087D01*
X438860Y357185D01*
X438813Y357281D01*
X438762Y357375D01*
X438708Y357468D01*
X438651Y357558D01*
X438590Y357647D01*
X438526Y357733D01*
X438459Y357816D01*
X438389Y357898D01*
X438316Y357976D01*
X438240Y358052D01*
X438162Y358125D01*
X438080Y358195D01*
X437997Y358262D01*
X437911Y358326D01*
X437822Y358387D01*
X437732Y358444D01*
X437639Y358498D01*
X437545Y358549D01*
X437449Y358596D01*
X437351Y358640D01*
X437251Y358680D01*
X437151Y358717D01*
X437049Y358750D01*
X436945Y358779D01*
X436841Y358804D01*
X436736Y358825D01*
X436630Y358843D01*
X436524Y358856D01*
X436417Y358866D01*
X436310Y358872D01*
X436203Y358874D01*
X431800Y358874D01*
X431800Y364744D01*
X439138Y364744D01*
X251813Y359664D02*
X251813Y346456D01*
X256216Y352326D02*
X251813Y359664D01*
X256216Y352326D02*
X260619Y359664D01*
X260619Y346456D01*
X266629Y346456D02*
X270298Y346456D01*
X270418Y346458D01*
X270538Y346464D01*
X270658Y346474D01*
X270777Y346487D01*
X270896Y346505D01*
X271014Y346526D01*
X271131Y346552D01*
X271248Y346581D01*
X271363Y346614D01*
X271477Y346651D01*
X271590Y346691D01*
X271702Y346735D01*
X271812Y346783D01*
X271921Y346834D01*
X272028Y346889D01*
X272133Y346948D01*
X272235Y347009D01*
X272336Y347074D01*
X272435Y347143D01*
X272532Y347214D01*
X272626Y347289D01*
X272717Y347366D01*
X272806Y347447D01*
X272892Y347531D01*
X272976Y347617D01*
X273057Y347706D01*
X273134Y347797D01*
X273209Y347891D01*
X273280Y347988D01*
X273349Y348087D01*
X273414Y348188D01*
X273475Y348291D01*
X273534Y348395D01*
X273589Y348502D01*
X273640Y348611D01*
X273688Y348721D01*
X273732Y348833D01*
X273772Y348946D01*
X273809Y349060D01*
X273842Y349175D01*
X273871Y349292D01*
X273897Y349409D01*
X273918Y349527D01*
X273936Y349646D01*
X273949Y349765D01*
X273959Y349885D01*
X273965Y350005D01*
X273967Y350125D01*
X273965Y350245D01*
X273959Y350365D01*
X273949Y350485D01*
X273936Y350604D01*
X273918Y350723D01*
X273897Y350841D01*
X273871Y350958D01*
X273842Y351075D01*
X273809Y351190D01*
X273772Y351304D01*
X273732Y351417D01*
X273688Y351529D01*
X273640Y351639D01*
X273589Y351748D01*
X273534Y351855D01*
X273475Y351960D01*
X273414Y352062D01*
X273349Y352163D01*
X273280Y352262D01*
X273209Y352359D01*
X273134Y352453D01*
X273057Y352544D01*
X272976Y352633D01*
X272892Y352719D01*
X272806Y352803D01*
X272717Y352884D01*
X272626Y352961D01*
X272532Y353036D01*
X272435Y353107D01*
X272336Y353176D01*
X272235Y353241D01*
X272132Y353302D01*
X272028Y353361D01*
X271921Y353416D01*
X271812Y353467D01*
X271702Y353515D01*
X271590Y353559D01*
X271477Y353599D01*
X271363Y353636D01*
X271248Y353669D01*
X271131Y353698D01*
X271014Y353724D01*
X270896Y353745D01*
X270777Y353763D01*
X270658Y353776D01*
X270538Y353786D01*
X270418Y353792D01*
X270298Y353794D01*
X271032Y359664D02*
X266629Y359664D01*
X271032Y359664D02*
X271139Y359662D01*
X271246Y359656D01*
X271353Y359646D01*
X271459Y359633D01*
X271565Y359615D01*
X271670Y359594D01*
X271774Y359569D01*
X271878Y359540D01*
X271980Y359507D01*
X272080Y359470D01*
X272180Y359430D01*
X272278Y359386D01*
X272374Y359339D01*
X272468Y359288D01*
X272561Y359234D01*
X272651Y359177D01*
X272740Y359116D01*
X272826Y359052D01*
X272909Y358985D01*
X272991Y358915D01*
X273069Y358842D01*
X273145Y358766D01*
X273218Y358688D01*
X273288Y358606D01*
X273355Y358523D01*
X273419Y358437D01*
X273480Y358348D01*
X273537Y358258D01*
X273591Y358165D01*
X273642Y358071D01*
X273689Y357975D01*
X273733Y357877D01*
X273773Y357777D01*
X273810Y357677D01*
X273843Y357575D01*
X273872Y357471D01*
X273897Y357367D01*
X273918Y357262D01*
X273936Y357156D01*
X273949Y357050D01*
X273959Y356943D01*
X273965Y356836D01*
X273967Y356729D01*
X273965Y356622D01*
X273959Y356515D01*
X273949Y356408D01*
X273936Y356302D01*
X273918Y356196D01*
X273897Y356091D01*
X273872Y355987D01*
X273843Y355883D01*
X273810Y355781D01*
X273773Y355681D01*
X273733Y355581D01*
X273689Y355483D01*
X273642Y355387D01*
X273591Y355293D01*
X273537Y355200D01*
X273480Y355110D01*
X273419Y355021D01*
X273355Y354935D01*
X273288Y354852D01*
X273218Y354770D01*
X273145Y354692D01*
X273069Y354616D01*
X272991Y354543D01*
X272909Y354473D01*
X272826Y354406D01*
X272740Y354342D01*
X272651Y354281D01*
X272561Y354224D01*
X272468Y354170D01*
X272374Y354119D01*
X272278Y354072D01*
X272180Y354028D01*
X272080Y353988D01*
X271980Y353951D01*
X271878Y353918D01*
X271774Y353889D01*
X271670Y353864D01*
X271565Y353843D01*
X271459Y353825D01*
X271353Y353812D01*
X271246Y353802D01*
X271139Y353796D01*
X271032Y353794D01*
X268096Y353794D01*
X258163Y378206D02*
X258163Y391414D01*
X262566Y384076D01*
X266969Y391414D01*
X266969Y378206D01*
X272979Y381141D02*
X275914Y391414D01*
X272979Y381141D02*
X280317Y381141D01*
X278115Y384076D02*
X278115Y378206D01*
D122*
X374650Y346710D02*
X389573Y346710D01*
X399573Y346710D02*
X414497Y346710D01*
X424497Y346710D02*
X439420Y346710D01*
X268500Y374650D02*
X257810Y374650D01*
X278500Y374650D02*
X289190Y374650D01*
X299190Y374650D02*
X309880Y374650D01*
X264690Y342900D02*
X251460Y342900D01*
X274690Y342900D02*
X287920Y342900D01*
X297920Y342900D02*
X311150Y342900D01*
M02*
